<svg id="visual" viewBox="0 0 900 600" width="900" height="600" xmlns="http://www.w3.org/2000/svg" xmlns:xlink="http://www.w3.org/1999/xlink" version="1.1"><path d="M0 49L13.7 50C27.3 51 54.7 53 82 54C109.3 55 136.7 55 163.8 55C191 55 218 55 245.2 53C272.3 51 299.7 47 327 47C354.3 47 381.7 51 409 64C436.3 77 463.7 99 491 96C518.3 93 545.7 65 573 63C600.3 61 627.7 85 654.8 88C682 91 709 73 736.2 73C763.3 73 790.7 91 818 86C845.3 81 872.7 53 886.3 39L900 25L900 0L886.3 0C872.7 0 845.3 0 818 0C790.7 0 763.3 0 736.2 0C709 0 682 0 654.8 0C627.7 0 600.3 0 573 0C545.7 0 518.3 0 491 0C463.7 0 436.3 0 409 0C381.7 0 354.3 0 327 0C299.7 0 272.3 0 245.2 0C218 0 191 0 163.8 0C136.7 0 109.3 0 82 0C54.7 0 27.3 0 13.7 0L0 0Z" fill="#09598e"></path><path d="M0 127L13.7 119C27.3 111 54.7 95 82 93C109.3 91 136.7 103 163.8 103C191 103 218 91 245.2 82C272.3 73 299.7 67 327 77C354.3 87 381.7 113 409 128C436.3 143 463.7 147 491 135C518.3 123 545.7 95 573 94C600.3 93 627.7 119 654.8 122C682 125 709 105 736.2 105C763.3 105 790.7 125 818 125C845.3 125 872.7 105 886.3 95L900 85L900 23L886.3 37C872.7 51 845.3 79 818 84C790.7 89 763.3 71 736.2 71C709 71 682 89 654.8 86C627.7 83 600.3 59 573 61C545.7 63 518.3 91 491 94C463.7 97 436.3 75 409 62C381.7 49 354.3 45 327 45C299.7 45 272.3 49 245.2 51C218 53 191 53 163.8 53C136.7 53 109.3 53 82 52C54.7 51 27.3 49 13.7 48L0 47Z" fill="#054b7f"></path><path d="M0 319L13.7 303C27.3 287 54.7 255 82 230C109.3 205 136.7 187 163.8 192C191 197 218 225 245.2 227C272.3 229 299.7 205 327 204C354.3 203 381.7 225 409 244C436.3 263 463.7 279 491 275C518.3 271 545.7 247 573 233C600.3 219 627.7 215 654.8 224C682 233 709 255 736.2 266C763.3 277 790.7 277 818 283C845.3 289 872.7 301 886.3 307L900 313L900 83L886.3 93C872.7 103 845.3 123 818 123C790.7 123 763.3 103 736.2 103C709 103 682 123 654.8 120C627.7 117 600.3 91 573 92C545.7 93 518.3 121 491 133C463.7 145 436.3 141 409 126C381.7 111 354.3 85 327 75C299.7 65 272.3 71 245.2 80C218 89 191 101 163.8 101C136.7 101 109.3 89 82 91C54.7 93 27.3 109 13.7 117L0 125Z" fill="#023d71"></path><path d="M0 373L13.7 377C27.3 381 54.7 389 82 388C109.3 387 136.7 377 163.8 371C191 365 218 363 245.2 364C272.3 365 299.7 369 327 374C354.3 379 381.7 385 409 391C436.3 397 463.7 403 491 394C518.3 385 545.7 361 573 356C600.3 351 627.7 365 654.8 378C682 391 709 403 736.2 402C763.3 401 790.7 387 818 395C845.3 403 872.7 433 886.3 448L900 463L900 311L886.3 305C872.7 299 845.3 287 818 281C790.7 275 763.3 275 736.2 264C709 253 682 231 654.8 222C627.7 213 600.3 217 573 231C545.7 245 518.3 269 491 273C463.7 277 436.3 261 409 242C381.7 223 354.3 201 327 202C299.7 203 272.3 227 245.2 225C218 223 191 195 163.8 190C136.7 185 109.3 203 82 228C54.7 253 27.3 285 13.7 301L0 317Z" fill="#003062"></path><path d="M0 529L13.7 525C27.3 521 54.7 513 82 511C109.3 509 136.7 513 163.8 510C191 507 218 497 245.2 488C272.3 479 299.7 471 327 468C354.3 465 381.7 467 409 472C436.3 477 463.7 485 491 488C518.3 491 545.7 489 573 493C600.3 497 627.7 507 654.8 499C682 491 709 465 736.2 456C763.3 447 790.7 455 818 467C845.3 479 872.7 495 886.3 503L900 511L900 461L886.3 446C872.7 431 845.3 401 818 393C790.7 385 763.3 399 736.2 400C709 401 682 389 654.8 376C627.7 363 600.3 349 573 354C545.7 359 518.3 383 491 392C463.7 401 436.3 395 409 389C381.7 383 354.3 377 327 372C299.7 367 272.3 363 245.2 362C218 361 191 363 163.8 369C136.7 375 109.3 385 82 386C54.7 387 27.3 379 13.7 375L0 371Z" fill="#002353"></path><path d="M0 553L13.7 553C27.3 553 54.7 553 82 559C109.3 565 136.7 577 163.8 576C191 575 218 561 245.2 545C272.3 529 299.7 511 327 508C354.3 505 381.7 517 409 522C436.3 527 463.7 525 491 521C518.3 517 545.7 511 573 520C600.3 529 627.7 553 654.8 554C682 555 709 533 736.2 522C763.3 511 790.7 511 818 514C845.3 517 872.7 523 886.3 526L900 529L900 509L886.3 501C872.7 493 845.3 477 818 465C790.7 453 763.3 445 736.2 454C709 463 682 489 654.8 497C627.7 505 600.3 495 573 491C545.7 487 518.3 489 491 486C463.7 483 436.3 475 409 470C381.7 465 354.3 463 327 466C299.7 469 272.3 477 245.2 486C218 495 191 505 163.8 508C136.7 511 109.3 507 82 509C54.7 511 27.3 519 13.7 523L0 527Z" fill="#001744"></path><path d="M0 601L13.7 601C27.3 601 54.7 601 82 601C109.3 601 136.7 601 163.8 601C191 601 218 601 245.2 601C272.3 601 299.7 601 327 601C354.3 601 381.7 601 409 601C436.3 601 463.7 601 491 601C518.3 601 545.7 601 573 601C600.3 601 627.7 601 654.8 601C682 601 709 601 736.2 601C763.3 601 790.7 601 818 601C845.3 601 872.7 601 886.3 601L900 601L900 527L886.3 524C872.7 521 845.3 515 818 512C790.7 509 763.3 509 736.2 520C709 531 682 553 654.8 552C627.7 551 600.3 527 573 518C545.7 509 518.3 515 491 519C463.7 523 436.3 525 409 520C381.7 515 354.3 503 327 506C299.7 509 272.3 527 245.2 543C218 559 191 573 163.8 574C136.7 575 109.3 563 82 557C54.7 551 27.3 551 13.7 551L0 551Z" fill="#000736"></path></svg>