<svg id="visual" viewBox="0 0 960 540" width="960" height="540" xmlns="http://www.w3.org/2000/svg" xmlns:xlink="http://www.w3.org/1999/xlink" version="1.1"><path d="M0 163L14.5 150.3C29 137.7 58 112.3 87.2 125.8C116.3 139.3 145.7 191.7 174.8 192.7C204 193.7 233 143.3 262 120.8C291 98.3 320 103.7 349 111.7C378 119.7 407 130.3 436.2 136.7C465.3 143 494.7 145 523.8 144.2C553 143.3 582 139.7 611 143.2C640 146.7 669 157.3 698 152.8C727 148.3 756 128.7 785.2 116.2C814.3 103.7 843.7 98.3 872.8 105.5C902 112.7 931 132.3 945.5 142.2L960 152L960 0L945.5 0C931 0 902 0 872.8 0C843.7 0 814.3 0 785.2 0C756 0 727 0 698 0C669 0 640 0 611 0C582 0 553 0 523.8 0C494.7 0 465.3 0 436.2 0C407 0 378 0 349 0C320 0 291 0 262 0C233 0 204 0 174.8 0C145.7 0 116.3 0 87.2 0C58 0 29 0 14.5 0L0 0Z" fill="#dfd630"></path><path d="M0 330L14.5 322.8C29 315.7 58 301.3 87.2 304.2C116.3 307 145.7 327 174.8 325.2C204 323.3 233 299.7 262 294.2C291 288.7 320 301.3 349 307.7C378 314 407 314 436.2 310.5C465.3 307 494.7 300 523.8 291C553 282 582 271 611 275.5C640 280 669 300 698 320.7C727 341.3 756 362.7 785.2 368C814.3 373.3 843.7 362.7 872.8 351C902 339.3 931 326.7 945.5 320.3L960 314L960 150L945.5 140.2C931 130.3 902 110.7 872.8 103.5C843.7 96.3 814.3 101.7 785.2 114.2C756 126.7 727 146.3 698 150.8C669 155.3 640 144.7 611 141.2C582 137.7 553 141.3 523.8 142.2C494.7 143 465.3 141 436.2 134.7C407 128.3 378 117.7 349 109.7C320 101.7 291 96.3 262 118.8C233 141.3 204 191.7 174.8 190.7C145.7 189.7 116.3 137.3 87.2 123.8C58 110.3 29 135.7 14.5 148.3L0 161Z" fill="#6cc76d"></path><path d="M0 433L14.5 427.7C29 422.3 58 411.7 87.2 418C116.3 424.3 145.7 447.7 174.8 446.7C204 445.7 233 420.3 262 403.2C291 386 320 377 349 378C378 379 407 390 436.2 392.7C465.3 395.3 494.7 389.7 523.8 390.5C553 391.3 582 398.7 611 408.7C640 418.7 669 431.3 698 437.7C727 444 756 444 785.2 440.3C814.3 436.7 843.7 429.3 872.8 423.8C902 418.3 931 414.7 945.5 412.8L960 411L960 312L945.5 318.3C931 324.7 902 337.3 872.8 349C843.7 360.7 814.3 371.3 785.2 366C756 360.7 727 339.3 698 318.7C669 298 640 278 611 273.5C582 269 553 280 523.8 289C494.7 298 465.3 305 436.2 308.5C407 312 378 312 349 305.7C320 299.3 291 286.7 262 292.2C233 297.7 204 321.3 174.8 323.2C145.7 325 116.3 305 87.2 302.2C58 299.3 29 313.7 14.5 320.8L0 328Z" fill="#00a997"></path><path d="M0 487L14.5 480.7C29 474.3 58 461.7 87.2 464.3C116.3 467 145.7 485 174.8 490.5C204 496 233 489 262 477.3C291 465.7 320 449.3 349 443.8C378 438.3 407 443.7 436.2 448.2C465.3 452.7 494.7 456.3 523.8 454.5C553 452.7 582 445.3 611 449C640 452.7 669 467.3 698 473.7C727 480 756 478 785.2 477C814.3 476 843.7 476 872.8 475.2C902 474.3 931 472.7 945.5 471.8L960 471L960 409L945.5 410.8C931 412.7 902 416.3 872.8 421.8C843.7 427.3 814.3 434.7 785.2 438.3C756 442 727 442 698 435.7C669 429.3 640 416.7 611 406.7C582 396.7 553 389.3 523.8 388.5C494.7 387.7 465.3 393.3 436.2 390.7C407 388 378 377 349 376C320 375 291 384 262 401.2C233 418.3 204 443.7 174.8 444.7C145.7 445.7 116.3 422.3 87.2 416C58 409.7 29 420.3 14.5 425.7L0 431Z" fill="#0083a2"></path><path d="M0 541L14.5 541C29 541 58 541 87.2 541C116.3 541 145.7 541 174.8 541C204 541 233 541 262 541C291 541 320 541 349 541C378 541 407 541 436.2 541C465.3 541 494.7 541 523.8 541C553 541 582 541 611 541C640 541 669 541 698 541C727 541 756 541 785.2 541C814.3 541 843.7 541 872.8 541C902 541 931 541 945.5 541L960 541L960 469L945.5 469.8C931 470.7 902 472.3 872.8 473.2C843.7 474 814.3 474 785.2 475C756 476 727 478 698 471.7C669 465.3 640 450.7 611 447C582 443.3 553 450.7 523.8 452.5C494.7 454.3 465.3 450.7 436.2 446.2C407 441.7 378 436.3 349 441.8C320 447.3 291 463.7 262 475.3C233 487 204 494 174.8 488.5C145.7 483 116.3 465 87.2 462.3C58 459.7 29 472.3 14.5 478.7L0 485Z" fill="#09598e"></path></svg>