<svg id="visual" viewBox="0 0 900 450" width="900" height="450" xmlns="http://www.w3.org/2000/svg" xmlns:xlink="http://www.w3.org/1999/xlink" version="1.1"><path d="M0 300L21.5 302.5C43 305 86 310 128.8 313.5C171.7 317 214.3 319 257.2 311.7C300 304.3 343 287.7 385.8 285.2C428.7 282.7 471.3 294.3 514.2 304.5C557 314.7 600 323.3 642.8 323.8C685.7 324.3 728.3 316.7 771.2 307.7C814 298.7 857 288.3 878.5 283.2L900 278L900 451L878.5 451C857 451 814 451 771.2 451C728.3 451 685.7 451 642.8 451C600 451 557 451 514.2 451C471.3 451 428.7 451 385.8 451C343 451 300 451 257.2 451C214.3 451 171.7 451 128.8 451C86 451 43 451 21.5 451L0 451Z" fill="#000736"></path><path d="M0 304L21.5 311.8C43 319.7 86 335.3 128.8 338.3C171.7 341.3 214.3 331.7 257.2 327.7C300 323.7 343 325.3 385.8 324.7C428.7 324 471.3 321 514.2 316.3C557 311.7 600 305.3 642.8 308.2C685.7 311 728.3 323 771.2 322.5C814 322 857 309 878.5 302.5L900 296L900 451L878.5 451C857 451 814 451 771.2 451C728.3 451 685.7 451 642.8 451C600 451 557 451 514.2 451C471.3 451 428.7 451 385.8 451C343 451 300 451 257.2 451C214.3 451 171.7 451 128.8 451C86 451 43 451 21.5 451L0 451Z" fill="#001d4c"></path><path d="M0 328L21.5 329.5C43 331 86 334 128.8 343.2C171.7 352.3 214.3 367.7 257.2 372.5C300 377.3 343 371.7 385.8 362.5C428.7 353.3 471.3 340.7 514.2 339.3C557 338 600 348 642.8 350.2C685.7 352.3 728.3 346.7 771.2 344C814 341.3 857 341.7 878.5 341.8L900 342L900 451L878.5 451C857 451 814 451 771.2 451C728.3 451 685.7 451 642.8 451C600 451 557 451 514.2 451C471.3 451 428.7 451 385.8 451C343 451 300 451 257.2 451C214.3 451 171.7 451 128.8 451C86 451 43 451 21.5 451L0 451Z" fill="#003062"></path><path d="M0 378L21.5 380.5C43 383 86 388 128.8 386.5C171.7 385 214.3 377 257.2 372C300 367 343 365 385.8 367.2C428.7 369.3 471.3 375.7 514.2 382.8C557 390 600 398 642.8 394.7C685.7 391.3 728.3 376.7 771.2 373.8C814 371 857 380 878.5 384.5L900 389L900 451L878.5 451C857 451 814 451 771.2 451C728.3 451 685.7 451 642.8 451C600 451 557 451 514.2 451C471.3 451 428.7 451 385.8 451C343 451 300 451 257.2 451C214.3 451 171.7 451 128.8 451C86 451 43 451 21.5 451L0 451Z" fill="#034478"></path><path d="M0 424L21.5 421.5C43 419 86 414 128.8 412.5C171.7 411 214.3 413 257.2 412.7C300 412.3 343 409.7 385.8 408C428.7 406.3 471.3 405.7 514.2 403.8C557 402 600 399 642.8 400.2C685.7 401.3 728.3 406.7 771.2 407.7C814 408.7 857 405.3 878.5 403.7L900 402L900 451L878.5 451C857 451 814 451 771.2 451C728.3 451 685.7 451 642.8 451C600 451 557 451 514.2 451C471.3 451 428.7 451 385.8 451C343 451 300 451 257.2 451C214.3 451 171.7 451 128.8 451C86 451 43 451 21.5 451L0 451Z" fill="#09598e"></path></svg>