<svg id="visual" viewBox="0 0 900 600" width="900" height="600" xmlns="http://www.w3.org/2000/svg" xmlns:xlink="http://www.w3.org/1999/xlink" version="1.1"><rect x="0" y="0" width="900" height="600" fill="#04a5aa"></rect><defs><linearGradient id="grad1_0" x1="33.3%" y1="0%" x2="100%" y2="100%"><stop offset="20%" stop-color="#dfd630" stop-opacity="1"></stop><stop offset="80%" stop-color="#dfd630" stop-opacity="1"></stop></linearGradient></defs><defs><linearGradient id="grad1_1" x1="33.3%" y1="0%" x2="100%" y2="100%"><stop offset="20%" stop-color="#dfd630" stop-opacity="1"></stop><stop offset="80%" stop-color="#55c87e" stop-opacity="1"></stop></linearGradient></defs><defs><linearGradient id="grad1_2" x1="33.3%" y1="0%" x2="100%" y2="100%"><stop offset="20%" stop-color="#04a5aa" stop-opacity="1"></stop><stop offset="80%" stop-color="#55c87e" stop-opacity="1"></stop></linearGradient></defs><defs><linearGradient id="grad2_0" x1="0%" y1="0%" x2="66.7%" y2="100%"><stop offset="20%" stop-color="#dfd630" stop-opacity="1"></stop><stop offset="80%" stop-color="#dfd630" stop-opacity="1"></stop></linearGradient></defs><defs><linearGradient id="grad2_1" x1="0%" y1="0%" x2="66.7%" y2="100%"><stop offset="20%" stop-color="#55c87e" stop-opacity="1"></stop><stop offset="80%" stop-color="#dfd630" stop-opacity="1"></stop></linearGradient></defs><defs><linearGradient id="grad2_2" x1="0%" y1="0%" x2="66.7%" y2="100%"><stop offset="20%" stop-color="#55c87e" stop-opacity="1"></stop><stop offset="80%" stop-color="#04a5aa" stop-opacity="1"></stop></linearGradient></defs><g transform="translate(900, 0)"><path d="M0 486.7C-72.1 488.7 -144.2 490.6 -186.3 449.7C-228.3 408.8 -240.3 325.1 -275.1 275.1C-309.8 225 -367.4 208.6 -406.5 168.4C-445.6 128.1 -466.2 64.1 -486.7 0L0 0Z" fill="#01b89c"></path><path d="M0 324.5C-48.1 325.8 -96.2 327.1 -124.2 299.8C-152.2 272.5 -160.2 216.7 -183.4 183.4C-206.6 150 -245 139.1 -271 112.3C-297.1 85.4 -310.8 42.7 -324.5 0L0 0Z" fill="#97d357"></path><path d="M0 162.2C-24 162.9 -48.1 163.5 -62.1 149.9C-76.1 136.3 -80.1 108.4 -91.7 91.7C-103.3 75 -122.5 69.5 -135.5 56.1C-148.5 42.7 -155.4 21.4 -162.2 0L0 0Z" fill="#dfd630"></path></g><g transform="translate(0, 600)"><path d="M0 -486.7C57.3 -465.4 114.6 -444 175.7 -424.1C236.7 -404.1 301.4 -385.6 344.2 -344.2C386.9 -302.7 407.7 -238.4 427.8 -177.2C447.8 -116 467.3 -58 486.7 0L0 0Z" fill="#01b89c"></path><path d="M0 -324.5C38.2 -310.2 76.4 -296 117.1 -282.7C157.8 -269.4 201 -257.1 229.5 -229.5C258 -201.8 271.8 -158.9 285.2 -118.1C298.6 -77.3 311.5 -38.7 324.5 0L0 0Z" fill="#97d357"></path><path d="M0 -162.2C19.1 -155.1 38.2 -148 58.6 -141.4C78.9 -134.7 100.5 -128.5 114.7 -114.7C129 -100.9 135.9 -79.5 142.6 -59.1C149.3 -38.7 155.8 -19.3 162.2 0L0 0Z" fill="#dfd630"></path></g></svg>