<svg id="visual" viewBox="0 0 900 600" width="900" height="600" xmlns="http://www.w3.org/2000/svg" xmlns:xlink="http://www.w3.org/1999/xlink" version="1.1"><path d="M0 495L21.5 492.2C43 489.3 86 483.7 128.8 484.2C171.7 484.7 214.3 491.3 257.2 490.7C300 490 343 482 385.8 473.7C428.7 465.3 471.3 456.7 514.2 457.3C557 458 600 468 642.8 470.7C685.7 473.3 728.3 468.7 771.2 467.8C814 467 857 470 878.5 471.5L900 473L900 601L878.5 601C857 601 814 601 771.2 601C728.3 601 685.7 601 642.8 601C600 601 557 601 514.2 601C471.3 601 428.7 601 385.8 601C343 601 300 601 257.2 601C214.3 601 171.7 601 128.8 601C86 601 43 601 21.5 601L0 601Z" fill="#767700"></path><path d="M0 506L21.5 499.7C43 493.3 86 480.7 128.8 481.3C171.7 482 214.3 496 257.2 500.2C300 504.3 343 498.7 385.8 493.7C428.7 488.7 471.3 484.3 514.2 486C557 487.7 600 495.3 642.8 495.8C685.7 496.3 728.3 489.7 771.2 484.7C814 479.7 857 476.3 878.5 474.7L900 473L900 601L878.5 601C857 601 814 601 771.2 601C728.3 601 685.7 601 642.8 601C600 601 557 601 514.2 601C471.3 601 428.7 601 385.8 601C343 601 300 601 257.2 601C214.3 601 171.7 601 128.8 601C86 601 43 601 21.5 601L0 601Z" fill="#828205"></path><path d="M0 498L21.5 497.2C43 496.3 86 494.7 128.8 495.8C171.7 497 214.3 501 257.2 503.2C300 505.3 343 505.7 385.8 504.7C428.7 503.7 471.3 501.3 514.2 498.2C557 495 600 491 642.8 493.5C685.7 496 728.3 505 771.2 509.2C814 513.3 857 512.7 878.5 512.3L900 512L900 601L878.5 601C857 601 814 601 771.2 601C728.3 601 685.7 601 642.8 601C600 601 557 601 514.2 601C471.3 601 428.7 601 385.8 601C343 601 300 601 257.2 601C214.3 601 171.7 601 128.8 601C86 601 43 601 21.5 601L0 601Z" fill="#8f8e0c"></path><path d="M0 497L21.5 499.8C43 502.7 86 508.3 128.8 507.8C171.7 507.3 214.3 500.7 257.2 502C300 503.3 343 512.7 385.8 519C428.7 525.3 471.3 528.7 514.2 527.7C557 526.7 600 521.3 642.8 515.2C685.7 509 728.3 502 771.2 499.3C814 496.7 857 498.3 878.5 499.2L900 500L900 601L878.5 601C857 601 814 601 771.2 601C728.3 601 685.7 601 642.8 601C600 601 557 601 514.2 601C471.3 601 428.7 601 385.8 601C343 601 300 601 257.2 601C214.3 601 171.7 601 128.8 601C86 601 43 601 21.5 601L0 601Z" fill="#9c9913"></path><path d="M0 521L21.5 520.3C43 519.7 86 518.3 128.8 520.5C171.7 522.7 214.3 528.3 257.2 528.3C300 528.3 343 522.7 385.8 518.5C428.7 514.3 471.3 511.7 514.2 512.3C557 513 600 517 642.8 519C685.7 521 728.3 521 771.2 522.2C814 523.3 857 525.7 878.5 526.8L900 528L900 601L878.5 601C857 601 814 601 771.2 601C728.3 601 685.7 601 642.8 601C600 601 557 601 514.2 601C471.3 601 428.7 601 385.8 601C343 601 300 601 257.2 601C214.3 601 171.7 601 128.8 601C86 601 43 601 21.5 601L0 601Z" fill="#a9a519"></path><path d="M0 555L21.5 552.3C43 549.7 86 544.3 128.8 544.5C171.7 544.7 214.3 550.3 257.2 549.5C300 548.7 343 541.3 385.8 538.7C428.7 536 471.3 538 514.2 539.8C557 541.7 600 543.3 642.8 544.3C685.7 545.3 728.3 545.7 771.2 546.2C814 546.7 857 547.3 878.5 547.7L900 548L900 601L878.5 601C857 601 814 601 771.2 601C728.3 601 685.7 601 642.8 601C600 601 557 601 514.2 601C471.3 601 428.7 601 385.8 601C343 601 300 601 257.2 601C214.3 601 171.7 601 128.8 601C86 601 43 601 21.5 601L0 601Z" fill="#b6b11f"></path><path d="M0 552L21.5 554C43 556 86 560 128.8 558.7C171.7 557.3 214.3 550.7 257.2 551.2C300 551.7 343 559.3 385.8 561.7C428.7 564 471.3 561 514.2 558.8C557 556.7 600 555.3 642.8 556.2C685.7 557 728.3 560 771.2 558.5C814 557 857 551 878.5 548L900 545L900 601L878.5 601C857 601 814 601 771.2 601C728.3 601 685.7 601 642.8 601C600 601 557 601 514.2 601C471.3 601 428.7 601 385.8 601C343 601 300 601 257.2 601C214.3 601 171.7 601 128.8 601C86 601 43 601 21.5 601L0 601Z" fill="#c4bd25"></path><path d="M0 563L21.5 562.7C43 562.3 86 561.7 128.8 561.2C171.7 560.7 214.3 560.3 257.2 559.7C300 559 343 558 385.8 560.8C428.7 563.7 471.3 570.3 514.2 572.3C557 574.3 600 571.7 642.8 570.8C685.7 570 728.3 571 771.2 570.7C814 570.3 857 568.7 878.5 567.8L900 567L900 601L878.5 601C857 601 814 601 771.2 601C728.3 601 685.7 601 642.8 601C600 601 557 601 514.2 601C471.3 601 428.7 601 385.8 601C343 601 300 601 257.2 601C214.3 601 171.7 601 128.8 601C86 601 43 601 21.5 601L0 601Z" fill="#d1ca2a"></path><path d="M0 585L21.5 585.7C43 586.3 86 587.7 128.8 586C171.7 584.3 214.3 579.7 257.2 578.5C300 577.3 343 579.7 385.8 579.2C428.7 578.7 471.3 575.3 514.2 575.7C557 576 600 580 642.8 582.8C685.7 585.7 728.3 587.3 771.2 586.8C814 586.3 857 583.7 878.5 582.3L900 581L900 601L878.5 601C857 601 814 601 771.2 601C728.3 601 685.7 601 642.8 601C600 601 557 601 514.2 601C471.3 601 428.7 601 385.8 601C343 601 300 601 257.2 601C214.3 601 171.7 601 128.8 601C86 601 43 601 21.5 601L0 601Z" fill="#dfd630"></path></svg>