<svg id="visual" viewBox="0 0 900 600" width="900" height="600" xmlns="http://www.w3.org/2000/svg" xmlns:xlink="http://www.w3.org/1999/xlink" version="1.1"><path d="M0 191L15 180.7C30 170.3 60 149.7 90 138.5C120 127.3 150 125.7 180 134.7C210 143.7 240 163.3 270 173C300 182.7 330 182.3 360 175C390 167.7 420 153.3 450 153C480 152.7 510 166.3 540 169C570 171.7 600 163.3 630 163.3C660 163.3 690 171.7 720 173C750 174.3 780 168.7 810 164.3C840 160 870 157 885 155.5L900 154L900 0L885 0C870 0 840 0 810 0C780 0 750 0 720 0C690 0 660 0 630 0C600 0 570 0 540 0C510 0 480 0 450 0C420 0 390 0 360 0C330 0 300 0 270 0C240 0 210 0 180 0C150 0 120 0 90 0C60 0 30 0 15 0L0 0Z" fill="#dfd630"></path><path d="M0 137L15 137.7C30 138.3 60 139.7 90 132.5C120 125.3 150 109.7 180 109.2C210 108.7 240 123.3 270 125C300 126.7 330 115.3 360 108.5C390 101.7 420 99.3 450 101.8C480 104.3 510 111.7 540 119C570 126.3 600 133.7 630 130.8C660 128 690 115 720 110C750 105 780 108 810 117.8C840 127.7 870 144.3 885 152.7L900 161L900 0L885 0C870 0 840 0 810 0C780 0 750 0 720 0C690 0 660 0 630 0C600 0 570 0 540 0C510 0 480 0 450 0C420 0 390 0 360 0C330 0 300 0 270 0C240 0 210 0 180 0C150 0 120 0 90 0C60 0 30 0 15 0L0 0Z" fill="#98d357"></path><path d="M0 78L15 84.2C30 90.3 60 102.7 90 109.5C120 116.3 150 117.7 180 116.7C210 115.7 240 112.3 270 109.2C300 106 330 103 360 99.5C390 96 420 92 450 95.5C480 99 510 110 540 109.8C570 109.7 600 98.3 630 94.5C660 90.7 690 94.3 720 93.3C750 92.3 780 86.7 810 91.7C840 96.7 870 112.3 885 120.2L900 128L900 0L885 0C870 0 840 0 810 0C780 0 750 0 720 0C690 0 660 0 630 0C600 0 570 0 540 0C510 0 480 0 450 0C420 0 390 0 360 0C330 0 300 0 270 0C240 0 210 0 180 0C150 0 120 0 90 0C60 0 30 0 15 0L0 0Z" fill="#55c87e"></path><path d="M0 57L15 55.3C30 53.7 60 50.3 90 50.8C120 51.3 150 55.7 180 56.3C210 57 240 54 270 52C300 50 330 49 360 52.5C390 56 420 64 450 64C480 64 510 56 540 57.2C570 58.3 600 68.7 630 70.5C660 72.3 690 65.7 720 67.2C750 68.7 780 78.3 810 79.8C840 81.3 870 74.7 885 71.3L900 68L900 0L885 0C870 0 840 0 810 0C780 0 750 0 720 0C690 0 660 0 630 0C600 0 570 0 540 0C510 0 480 0 450 0C420 0 390 0 360 0C330 0 300 0 270 0C240 0 210 0 180 0C150 0 120 0 90 0C60 0 30 0 15 0L0 0Z" fill="#02b89c"></path><path d="M0 54L15 50.8C30 47.7 60 41.3 90 35.7C120 30 150 25 180 24.2C210 23.3 240 26.7 270 32.3C300 38 330 46 360 50.3C390 54.7 420 55.3 450 49.7C480 44 510 32 540 30.3C570 28.7 600 37.3 630 43.7C660 50 690 54 720 49.8C750 45.7 780 33.3 810 33C840 32.7 870 44.3 885 50.2L900 56L900 0L885 0C870 0 840 0 810 0C780 0 750 0 720 0C690 0 660 0 630 0C600 0 570 0 540 0C510 0 480 0 450 0C420 0 390 0 360 0C330 0 300 0 270 0C240 0 210 0 180 0C150 0 120 0 90 0C60 0 30 0 15 0L0 0Z" fill="#04a5aa"></path></svg>