<svg id="visual" viewBox="0 0 900 600" width="900" height="600" xmlns="http://www.w3.org/2000/svg" xmlns:xlink="http://www.w3.org/1999/xlink" version="1.1"><path d="M0 55L13.7 63C27.3 71 54.7 87 82 93C109.3 99 136.7 95 163.8 93C191 91 218 91 245.2 91C272.3 91 299.7 91 327 83C354.3 75 381.7 59 409 60C436.3 61 463.7 79 491 84C518.3 89 545.7 81 573 72C600.3 63 627.7 53 654.8 53C682 53 709 63 736.2 73C763.3 83 790.7 93 818 90C845.3 87 872.7 71 886.3 63L900 55L900 0L886.3 0C872.7 0 845.3 0 818 0C790.7 0 763.3 0 736.2 0C709 0 682 0 654.8 0C627.7 0 600.3 0 573 0C545.7 0 518.3 0 491 0C463.7 0 436.3 0 409 0C381.7 0 354.3 0 327 0C299.7 0 272.3 0 245.2 0C218 0 191 0 163.8 0C136.7 0 109.3 0 82 0C54.7 0 27.3 0 13.7 0L0 0Z" fill="#db1630"></path><path d="M0 151L13.7 154C27.3 157 54.7 163 82 170C109.3 177 136.7 185 163.8 189C191 193 218 193 245.2 184C272.3 175 299.7 157 327 147C354.3 137 381.7 135 409 139C436.3 143 463.7 153 491 149C518.3 145 545.7 127 573 117C600.3 107 627.7 105 654.8 107C682 109 709 115 736.2 127C763.3 139 790.7 157 818 157C845.3 157 872.7 139 886.3 130L900 121L900 53L886.3 61C872.7 69 845.3 85 818 88C790.7 91 763.3 81 736.2 71C709 61 682 51 654.8 51C627.7 51 600.3 61 573 70C545.7 79 518.3 87 491 82C463.7 77 436.3 59 409 58C381.7 57 354.3 73 327 81C299.7 89 272.3 89 245.2 89C218 89 191 89 163.8 91C136.7 93 109.3 97 82 91C54.7 85 27.3 69 13.7 61L0 53Z" fill="#e8571c"></path><path d="M0 361L13.7 353C27.3 345 54.7 329 82 326C109.3 323 136.7 333 163.8 340C191 347 218 351 245.2 353C272.3 355 299.7 355 327 340C354.3 325 381.7 295 409 296C436.3 297 463.7 329 491 332C518.3 335 545.7 309 573 299C600.3 289 627.7 295 654.8 292C682 289 709 277 736.2 271C763.3 265 790.7 265 818 268C845.3 271 872.7 277 886.3 280L900 283L900 119L886.3 128C872.7 137 845.3 155 818 155C790.7 155 763.3 137 736.2 125C709 113 682 107 654.8 105C627.7 103 600.3 105 573 115C545.7 125 518.3 143 491 147C463.7 151 436.3 141 409 137C381.7 133 354.3 135 327 145C299.7 155 272.3 173 245.2 182C218 191 191 191 163.8 187C136.7 183 109.3 175 82 168C54.7 161 27.3 155 13.7 152L0 149Z" fill="#ec8500"></path><path d="M0 481L13.7 477C27.3 473 54.7 465 82 450C109.3 435 136.7 413 163.8 411C191 409 218 427 245.2 437C272.3 447 299.7 449 327 436C354.3 423 381.7 395 409 389C436.3 383 463.7 399 491 397C518.3 395 545.7 375 573 378C600.3 381 627.7 407 654.8 420C682 433 709 433 736.2 422C763.3 411 790.7 389 818 380C845.3 371 872.7 375 886.3 377L900 379L900 281L886.3 278C872.7 275 845.3 269 818 266C790.7 263 763.3 263 736.2 269C709 275 682 287 654.8 290C627.7 293 600.3 287 573 297C545.7 307 518.3 333 491 330C463.7 327 436.3 295 409 294C381.7 293 354.3 323 327 338C299.7 353 272.3 353 245.2 351C218 349 191 345 163.8 338C136.7 331 109.3 321 82 324C54.7 327 27.3 343 13.7 351L0 359Z" fill="#e9af02"></path><path d="M0 601L13.7 601C27.3 601 54.7 601 82 601C109.3 601 136.7 601 163.8 601C191 601 218 601 245.2 601C272.3 601 299.7 601 327 601C354.3 601 381.7 601 409 601C436.3 601 463.7 601 491 601C518.3 601 545.7 601 573 601C600.3 601 627.7 601 654.8 601C682 601 709 601 736.2 601C763.3 601 790.7 601 818 601C845.3 601 872.7 601 886.3 601L900 601L900 377L886.3 375C872.7 373 845.3 369 818 378C790.7 387 763.3 409 736.2 420C709 431 682 431 654.8 418C627.7 405 600.3 379 573 376C545.7 373 518.3 393 491 395C463.7 397 436.3 381 409 387C381.7 393 354.3 421 327 434C299.7 447 272.3 445 245.2 435C218 425 191 407 163.8 409C136.7 411 109.3 433 82 448C54.7 463 27.3 471 13.7 475L0 479Z" fill="#dfd630"></path></svg>