<svg id="visual" viewBox="0 0 960 540" width="960" height="540" xmlns="http://www.w3.org/2000/svg" xmlns:xlink="http://www.w3.org/1999/xlink" version="1.1"><path d="M0 460L13.3 462.5C26.7 465 53.3 470 80 470.5C106.7 471 133.3 467 160 465.8C186.7 464.7 213.3 466.3 240 469.2C266.7 472 293.3 476 320 475.7C346.7 475.3 373.3 470.7 400 469C426.7 467.3 453.3 468.7 480 470.5C506.7 472.3 533.3 474.7 560 474.3C586.7 474 613.3 471 640 468.2C666.7 465.3 693.3 462.7 720 462.2C746.7 461.7 773.3 463.3 800 466.7C826.7 470 853.3 475 880 476C906.7 477 933.3 474 946.7 472.5L960 471L960 541L946.7 541C933.3 541 906.7 541 880 541C853.3 541 826.7 541 800 541C773.3 541 746.7 541 720 541C693.3 541 666.7 541 640 541C613.3 541 586.7 541 560 541C533.3 541 506.7 541 480 541C453.3 541 426.7 541 400 541C373.3 541 346.7 541 320 541C293.3 541 266.7 541 240 541C213.3 541 186.7 541 160 541C133.3 541 106.7 541 80 541C53.3 541 26.7 541 13.3 541L0 541Z" fill="#252525"></path><path d="M0 478L13.3 477.7C26.7 477.3 53.3 476.7 80 477.7C106.7 478.7 133.3 481.3 160 481.7C186.7 482 213.3 480 240 481.2C266.7 482.3 293.3 486.7 320 489C346.7 491.3 373.3 491.7 400 489.8C426.7 488 453.3 484 480 482.2C506.7 480.3 533.3 480.7 560 480.2C586.7 479.7 613.3 478.3 640 477.7C666.7 477 693.3 477 720 478.8C746.7 480.7 773.3 484.3 800 484C826.7 483.7 853.3 479.3 880 479.3C906.7 479.3 933.3 483.7 946.7 485.8L960 488L960 541L946.7 541C933.3 541 906.7 541 880 541C853.3 541 826.7 541 800 541C773.3 541 746.7 541 720 541C693.3 541 666.7 541 640 541C613.3 541 586.7 541 560 541C533.3 541 506.7 541 480 541C453.3 541 426.7 541 400 541C373.3 541 346.7 541 320 541C293.3 541 266.7 541 240 541C213.3 541 186.7 541 160 541C133.3 541 106.7 541 80 541C53.3 541 26.7 541 13.3 541L0 541Z" fill="#383838"></path><path d="M0 497L13.3 497.8C26.7 498.7 53.3 500.3 80 498.8C106.7 497.3 133.3 492.7 160 490.2C186.7 487.7 213.3 487.3 240 489.8C266.7 492.3 293.3 497.7 320 499C346.7 500.3 373.3 497.7 400 497.7C426.7 497.7 453.3 500.3 480 499.8C506.7 499.3 533.3 495.7 560 494.5C586.7 493.3 613.3 494.7 640 495.8C666.7 497 693.3 498 720 498.8C746.7 499.7 773.3 500.3 800 498.8C826.7 497.3 853.3 493.7 880 492.7C906.7 491.7 933.3 493.3 946.7 494.2L960 495L960 541L946.7 541C933.3 541 906.7 541 880 541C853.3 541 826.7 541 800 541C773.3 541 746.7 541 720 541C693.3 541 666.7 541 640 541C613.3 541 586.7 541 560 541C533.3 541 506.7 541 480 541C453.3 541 426.7 541 400 541C373.3 541 346.7 541 320 541C293.3 541 266.7 541 240 541C213.3 541 186.7 541 160 541C133.3 541 106.7 541 80 541C53.3 541 26.7 541 13.3 541L0 541Z" fill="#4d4d4d"></path><path d="M0 510L13.3 509.3C26.7 508.7 53.3 507.3 80 507.3C106.7 507.3 133.3 508.7 160 508.8C186.7 509 213.3 508 240 508.8C266.7 509.7 293.3 512.3 320 512C346.7 511.7 373.3 508.3 400 508C426.7 507.7 453.3 510.3 480 509.8C506.7 509.3 533.3 505.7 560 505.5C586.7 505.3 613.3 508.7 640 510.2C666.7 511.7 693.3 511.3 720 510.5C746.7 509.7 773.3 508.3 800 507.5C826.7 506.7 853.3 506.3 880 506.2C906.7 506 933.3 506 946.7 506L960 506L960 541L946.7 541C933.3 541 906.7 541 880 541C853.3 541 826.7 541 800 541C773.3 541 746.7 541 720 541C693.3 541 666.7 541 640 541C613.3 541 586.7 541 560 541C533.3 541 506.7 541 480 541C453.3 541 426.7 541 400 541C373.3 541 346.7 541 320 541C293.3 541 266.7 541 240 541C213.3 541 186.7 541 160 541C133.3 541 106.7 541 80 541C53.3 541 26.7 541 13.3 541L0 541Z" fill="#636363"></path><path d="M0 523L13.3 522.5C26.7 522 53.3 521 80 520.8C106.7 520.7 133.3 521.3 160 521.7C186.7 522 213.3 522 240 522.5C266.7 523 293.3 524 320 523.2C346.7 522.3 373.3 519.7 400 519C426.7 518.3 453.3 519.7 480 521C506.7 522.3 533.3 523.7 560 524.2C586.7 524.7 613.3 524.3 640 522.8C666.7 521.3 693.3 518.7 720 518.2C746.7 517.7 773.3 519.3 800 520.2C826.7 521 853.3 521 880 520.3C906.7 519.7 933.3 518.3 946.7 517.7L960 517L960 541L946.7 541C933.3 541 906.7 541 880 541C853.3 541 826.7 541 800 541C773.3 541 746.7 541 720 541C693.3 541 666.7 541 640 541C613.3 541 586.7 541 560 541C533.3 541 506.7 541 480 541C453.3 541 426.7 541 400 541C373.3 541 346.7 541 320 541C293.3 541 266.7 541 240 541C213.3 541 186.7 541 160 541C133.3 541 106.7 541 80 541C53.3 541 26.7 541 13.3 541L0 541Z" fill="#797979"></path></svg>