<svg id="visual" viewBox="0 0 900 600" width="900" height="600" xmlns="http://www.w3.org/2000/svg" xmlns:xlink="http://www.w3.org/1999/xlink" version="1.1"><path d="M0 494L13.7 491C27.3 488 54.7 482 82 476.7C109.3 471.3 136.7 466.7 163.8 467.3C191 468 218 474 245.2 483C272.3 492 299.7 504 327 503.8C354.3 503.7 381.7 491.3 409 482.5C436.3 473.7 463.7 468.3 491 470C518.3 471.7 545.7 480.3 573 482C600.3 483.7 627.7 478.3 654.8 473C682 467.7 709 462.3 736.2 469.8C763.3 477.3 790.7 497.7 818 504.8C845.3 512 872.7 506 886.3 503L900 500L900 601L886.3 601C872.7 601 845.3 601 818 601C790.7 601 763.3 601 736.2 601C709 601 682 601 654.8 601C627.7 601 600.3 601 573 601C545.7 601 518.3 601 491 601C463.7 601 436.3 601 409 601C381.7 601 354.3 601 327 601C299.7 601 272.3 601 245.2 601C218 601 191 601 163.8 601C136.7 601 109.3 601 82 601C54.7 601 27.3 601 13.7 601L0 601Z" fill="#6b0f1c"></path><path d="M0 493L13.7 493.5C27.3 494 54.7 495 82 498.7C109.3 502.3 136.7 508.7 163.8 510.7C191 512.7 218 510.3 245.2 515.7C272.3 521 299.7 534 327 537.7C354.3 541.3 381.7 535.7 409 529C436.3 522.3 463.7 514.7 491 509.8C518.3 505 545.7 503 573 508.5C600.3 514 627.7 527 654.8 529.2C682 531.3 709 522.7 736.2 517.3C763.3 512 790.7 510 818 515.5C845.3 521 872.7 534 886.3 540.5L900 547L900 601L886.3 601C872.7 601 845.3 601 818 601C790.7 601 763.3 601 736.2 601C709 601 682 601 654.8 601C627.7 601 600.3 601 573 601C545.7 601 518.3 601 491 601C463.7 601 436.3 601 409 601C381.7 601 354.3 601 327 601C299.7 601 272.3 601 245.2 601C218 601 191 601 163.8 601C136.7 601 109.3 601 82 601C54.7 601 27.3 601 13.7 601L0 601Z" fill="#a21227"></path><path d="M0 540L13.7 545C27.3 550 54.7 560 82 564C109.3 568 136.7 566 163.8 565C191 564 218 564 245.2 563.3C272.3 562.7 299.7 561.3 327 560C354.3 558.7 381.7 557.3 409 555.5C436.3 553.7 463.7 551.3 491 547.5C518.3 543.7 545.7 538.3 573 536.8C600.3 535.3 627.7 537.7 654.8 541.5C682 545.3 709 550.7 736.2 552.8C763.3 555 790.7 554 818 555.8C845.3 557.7 872.7 562.3 886.3 564.7L900 567L900 601L886.3 601C872.7 601 845.3 601 818 601C790.7 601 763.3 601 736.2 601C709 601 682 601 654.8 601C627.7 601 600.3 601 573 601C545.7 601 518.3 601 491 601C463.7 601 436.3 601 409 601C381.7 601 354.3 601 327 601C299.7 601 272.3 601 245.2 601C218 601 191 601 163.8 601C136.7 601 109.3 601 82 601C54.7 601 27.3 601 13.7 601L0 601Z" fill="#db1630"></path></svg>