<svg id="visual" viewBox="0 0 960 540" width="960" height="540" xmlns="http://www.w3.org/2000/svg" xmlns:xlink="http://www.w3.org/1999/xlink" version="1.1"><path d="M0 150L16 154.5C32 159 64 168 96 166.8C128 165.7 160 154.3 192 147.8C224 141.3 256 139.7 288 146C320 152.3 352 166.7 384 167.2C416 167.7 448 154.3 480 154.8C512 155.3 544 169.7 576 176.3C608 183 640 182 672 177.7C704 173.3 736 165.7 768 165.3C800 165 832 172 864 171C896 170 928 161 944 156.5L960 152L960 0L944 0C928 0 896 0 864 0C832 0 800 0 768 0C736 0 704 0 672 0C640 0 608 0 576 0C544 0 512 0 480 0C448 0 416 0 384 0C352 0 320 0 288 0C256 0 224 0 192 0C160 0 128 0 96 0C64 0 32 0 16 0L0 0Z" fill="#04a5aa"></path><path d="M0 122L16 122C32 122 64 122 96 122.8C128 123.7 160 125.3 192 125C224 124.7 256 122.3 288 125.7C320 129 352 138 384 140.7C416 143.3 448 139.7 480 133.5C512 127.3 544 118.7 576 120.3C608 122 640 134 672 134.5C704 135 736 124 768 118.3C800 112.7 832 112.3 864 115.8C896 119.3 928 126.7 944 130.3L960 134L960 0L944 0C928 0 896 0 864 0C832 0 800 0 768 0C736 0 704 0 672 0C640 0 608 0 576 0C544 0 512 0 480 0C448 0 416 0 384 0C352 0 320 0 288 0C256 0 224 0 192 0C160 0 128 0 96 0C64 0 32 0 16 0L0 0Z" fill="#008da9"></path><path d="M0 111L16 106.7C32 102.3 64 93.7 96 93.7C128 93.7 160 102.3 192 101.5C224 100.7 256 90.3 288 85.2C320 80 352 80 384 82.7C416 85.3 448 90.7 480 91.3C512 92 544 88 576 89.2C608 90.3 640 96.7 672 97.8C704 99 736 95 768 90.3C800 85.7 832 80.3 864 76.8C896 73.3 928 71.7 944 70.8L960 70L960 0L944 0C928 0 896 0 864 0C832 0 800 0 768 0C736 0 704 0 672 0C640 0 608 0 576 0C544 0 512 0 480 0C448 0 416 0 384 0C352 0 320 0 288 0C256 0 224 0 192 0C160 0 128 0 96 0C64 0 32 0 16 0L0 0Z" fill="#00739e"></path><path d="M0 67L16 66C32 65 64 63 96 59.3C128 55.7 160 50.3 192 48.2C224 46 256 47 288 45.7C320 44.3 352 40.7 384 39.7C416 38.7 448 40.3 480 41.8C512 43.3 544 44.7 576 45.5C608 46.3 640 46.7 672 45.8C704 45 736 43 768 44.2C800 45.3 832 49.7 864 52.3C896 55 928 56 944 56.5L960 57L960 0L944 0C928 0 896 0 864 0C832 0 800 0 768 0C736 0 704 0 672 0C640 0 608 0 576 0C544 0 512 0 480 0C448 0 416 0 384 0C352 0 320 0 288 0C256 0 224 0 192 0C160 0 128 0 96 0C64 0 32 0 16 0L0 0Z" fill="#09598e"></path></svg>