<svg id="visual" viewBox="0 0 960 540" width="960" height="540" xmlns="http://www.w3.org/2000/svg" xmlns:xlink="http://www.w3.org/1999/xlink" version="1.1"><path d="M0 418L16 414.3C32 410.7 64 403.3 96 404.3C128 405.3 160 414.7 192 420C224 425.3 256 426.7 288 421.5C320 416.3 352 404.7 384 404.2C416 403.7 448 414.3 480 414C512 413.7 544 402.3 576 397C608 391.7 640 392.3 672 395.7C704 399 736 405 768 405.3C800 405.7 832 400.3 864 401.3C896 402.3 928 409.7 944 413.3L960 417L960 541L944 541C928 541 896 541 864 541C832 541 800 541 768 541C736 541 704 541 672 541C640 541 608 541 576 541C544 541 512 541 480 541C448 541 416 541 384 541C352 541 320 541 288 541C256 541 224 541 192 541C160 541 128 541 96 541C64 541 32 541 16 541L0 541Z" fill="#04a5aa"></path><path d="M0 441L16 441C32 441 64 441 96 440.3C128 439.7 160 438.3 192 438.5C224 438.7 256 440.3 288 437.7C320 435 352 428 384 425.8C416 423.7 448 426.3 480 431.2C512 436 544 443 576 441.7C608 440.3 640 430.7 672 430.3C704 430 736 439 768 443.5C800 448 832 448 864 445.2C896 442.3 928 436.7 944 433.8L960 431L960 541L944 541C928 541 896 541 864 541C832 541 800 541 768 541C736 541 704 541 672 541C640 541 608 541 576 541C544 541 512 541 480 541C448 541 416 541 384 541C352 541 320 541 288 541C256 541 224 541 192 541C160 541 128 541 96 541C64 541 32 541 16 541L0 541Z" fill="#26be94"></path><path d="M0 450L16 453.5C32 457 64 464 96 463.8C128 463.7 160 456.3 192 456.8C224 457.3 256 465.7 288 469.8C320 474 352 474 384 472C416 470 448 466 480 465.5C512 465 544 468 576 467C608 466 640 461 672 460.2C704 459.3 736 462.7 768 466.3C800 470 832 474 864 476.7C896 479.3 928 480.7 944 481.3L960 482L960 541L944 541C928 541 896 541 864 541C832 541 800 541 768 541C736 541 704 541 672 541C640 541 608 541 576 541C544 541 512 541 480 541C448 541 416 541 384 541C352 541 320 541 288 541C256 541 224 541 192 541C160 541 128 541 96 541C64 541 32 541 16 541L0 541Z" fill="#81d064"></path><path d="M0 485L16 485.7C32 486.3 64 487.7 96 490.5C128 493.3 160 497.7 192 499.5C224 501.3 256 500.7 288 501.8C320 503 352 506 384 506.8C416 507.7 448 506.3 480 505C512 503.7 544 502.3 576 501.5C608 500.7 640 500.3 672 501C704 501.7 736 503.3 768 502.5C800 501.7 832 498.3 864 496.3C896 494.3 928 493.7 944 493.3L960 493L960 541L944 541C928 541 896 541 864 541C832 541 800 541 768 541C736 541 704 541 672 541C640 541 608 541 576 541C544 541 512 541 480 541C448 541 416 541 384 541C352 541 320 541 288 541C256 541 224 541 192 541C160 541 128 541 96 541C64 541 32 541 16 541L0 541Z" fill="#dfd630"></path></svg>