<svg id="visual" viewBox="0 0 900 600" width="900" height="600" xmlns="http://www.w3.org/2000/svg" xmlns:xlink="http://www.w3.org/1999/xlink" version="1.1"><path d="M0 130L16.7 139.2C33.3 148.3 66.7 166.7 100 175.3C133.3 184 166.7 183 200 178.7C233.3 174.3 266.7 166.7 300 159.8C333.3 153 366.7 147 400 140.2C433.3 133.3 466.7 125.7 500 128C533.3 130.3 566.7 142.7 600 150.3C633.3 158 666.7 161 700 158C733.3 155 766.7 146 800 149.5C833.3 153 866.7 169 883.3 177L900 185L900 0L883.3 0C866.7 0 833.3 0 800 0C766.7 0 733.3 0 700 0C666.7 0 633.3 0 600 0C566.7 0 533.3 0 500 0C466.7 0 433.3 0 400 0C366.7 0 333.3 0 300 0C266.7 0 233.3 0 200 0C166.7 0 133.3 0 100 0C66.7 0 33.3 0 16.7 0L0 0Z" fill="#04a5aa"></path><path d="M0 101L16.7 106C33.3 111 66.7 121 100 127.2C133.3 133.3 166.7 135.7 200 132.5C233.3 129.3 266.7 120.7 300 114C333.3 107.3 366.7 102.7 400 107.8C433.3 113 466.7 128 500 132.5C533.3 137 566.7 131 600 131C633.3 131 666.7 137 700 134.8C733.3 132.7 766.7 122.3 800 114.3C833.3 106.3 866.7 100.7 883.3 97.8L900 95L900 0L883.3 0C866.7 0 833.3 0 800 0C766.7 0 733.3 0 700 0C666.7 0 633.3 0 600 0C566.7 0 533.3 0 500 0C466.7 0 433.3 0 400 0C366.7 0 333.3 0 300 0C266.7 0 233.3 0 200 0C166.7 0 133.3 0 100 0C66.7 0 33.3 0 16.7 0L0 0Z" fill="#02b89c"></path><path d="M0 72L16.7 79.5C33.3 87 66.7 102 100 109C133.3 116 166.7 115 200 115C233.3 115 266.7 116 300 111.7C333.3 107.3 366.7 97.7 400 95.5C433.3 93.3 466.7 98.7 500 99.8C533.3 101 566.7 98 600 94.5C633.3 91 666.7 87 700 83.5C733.3 80 766.7 77 800 78C833.3 79 866.7 84 883.3 86.5L900 89L900 0L883.3 0C866.7 0 833.3 0 800 0C766.7 0 733.3 0 700 0C666.7 0 633.3 0 600 0C566.7 0 533.3 0 500 0C466.7 0 433.3 0 400 0C366.7 0 333.3 0 300 0C266.7 0 233.3 0 200 0C166.7 0 133.3 0 100 0C66.7 0 33.3 0 16.7 0L0 0Z" fill="#55c87e"></path><path d="M0 70L16.7 70.3C33.3 70.7 66.7 71.3 100 73.3C133.3 75.3 166.7 78.7 200 76.3C233.3 74 266.7 66 300 61.8C333.3 57.7 366.7 57.3 400 59.2C433.3 61 466.7 65 500 65.8C533.3 66.7 566.7 64.3 600 65C633.3 65.7 666.7 69.3 700 72.5C733.3 75.7 766.7 78.3 800 77.7C833.3 77 866.7 73 883.3 71L900 69L900 0L883.3 0C866.7 0 833.3 0 800 0C766.7 0 733.3 0 700 0C666.7 0 633.3 0 600 0C566.7 0 533.3 0 500 0C466.7 0 433.3 0 400 0C366.7 0 333.3 0 300 0C266.7 0 233.3 0 200 0C166.7 0 133.3 0 100 0C66.7 0 33.3 0 16.7 0L0 0Z" fill="#98d357"></path><path d="M0 27L16.7 29.7C33.3 32.3 66.7 37.7 100 38.7C133.3 39.7 166.7 36.3 200 36.5C233.3 36.7 266.7 40.3 300 41.5C333.3 42.7 366.7 41.3 400 41.7C433.3 42 466.7 44 500 42.5C533.3 41 566.7 36 600 35.7C633.3 35.3 666.7 39.7 700 43.5C733.3 47.3 766.7 50.7 800 51.7C833.3 52.7 866.7 51.3 883.3 50.7L900 50L900 0L883.3 0C866.7 0 833.3 0 800 0C766.7 0 733.3 0 700 0C666.7 0 633.3 0 600 0C566.7 0 533.3 0 500 0C466.7 0 433.3 0 400 0C366.7 0 333.3 0 300 0C266.7 0 233.3 0 200 0C166.7 0 133.3 0 100 0C66.7 0 33.3 0 16.7 0L0 0Z" fill="#dfd630"></path></svg>