<svg id="visual" viewBox="0 0 960 540" width="960" height="540" xmlns="http://www.w3.org/2000/svg" xmlns:xlink="http://www.w3.org/1999/xlink" version="1.1"><rect x="0" y="0" width="960" height="540" fill="#04a5aa"></rect><path d="M0 336L16 323.3C32 310.7 64 285.3 96 275.3C128 265.3 160 270.7 192 274.2C224 277.7 256 279.3 288 288.2C320 297 352 313 384 310.5C416 308 448 287 480 280.8C512 274.7 544 283.3 576 282.5C608 281.7 640 271.3 672 270.3C704 269.3 736 277.7 768 286.2C800 294.7 832 303.3 864 300.8C896 298.3 928 284.7 944 277.8L960 271L960 541L944 541C928 541 896 541 864 541C832 541 800 541 768 541C736 541 704 541 672 541C640 541 608 541 576 541C544 541 512 541 480 541C448 541 416 541 384 541C352 541 320 541 288 541C256 541 224 541 192 541C160 541 128 541 96 541C64 541 32 541 16 541L0 541Z" fill="#767700"></path><path d="M0 322L16 325.5C32 329 64 336 96 332.2C128 328.3 160 313.7 192 314.8C224 316 256 333 288 338.2C320 343.3 352 336.7 384 335C416 333.3 448 336.7 480 336.2C512 335.7 544 331.3 576 331.2C608 331 640 335 672 333.2C704 331.3 736 323.7 768 327.7C800 331.7 832 347.3 864 355.7C896 364 928 365 944 365.5L960 366L960 541L944 541C928 541 896 541 864 541C832 541 800 541 768 541C736 541 704 541 672 541C640 541 608 541 576 541C544 541 512 541 480 541C448 541 416 541 384 541C352 541 320 541 288 541C256 541 224 541 192 541C160 541 128 541 96 541C64 541 32 541 16 541L0 541Z" fill="#8a8909"></path><path d="M0 397L16 392.2C32 387.3 64 377.7 96 370C128 362.3 160 356.7 192 361.3C224 366 256 381 288 388.7C320 396.3 352 396.7 384 392.3C416 388 448 379 480 370C512 361 544 352 576 351.3C608 350.7 640 358.3 672 364.2C704 370 736 374 768 370.7C800 367.3 832 356.7 864 358.5C896 360.3 928 374.7 944 381.8L960 389L960 541L944 541C928 541 896 541 864 541C832 541 800 541 768 541C736 541 704 541 672 541C640 541 608 541 576 541C544 541 512 541 480 541C448 541 416 541 384 541C352 541 320 541 288 541C256 541 224 541 192 541C160 541 128 541 96 541C64 541 32 541 16 541L0 541Z" fill="#9e9c14"></path><path d="M0 404L16 402.8C32 401.7 64 399.3 96 396.3C128 393.3 160 389.7 192 392C224 394.3 256 402.7 288 404.8C320 407 352 403 384 404.2C416 405.3 448 411.7 480 414C512 416.3 544 414.7 576 416.7C608 418.7 640 424.3 672 423.3C704 422.3 736 414.7 768 415.3C800 416 832 425 864 429.3C896 433.7 928 433.3 944 433.2L960 433L960 541L944 541C928 541 896 541 864 541C832 541 800 541 768 541C736 541 704 541 672 541C640 541 608 541 576 541C544 541 512 541 480 541C448 541 416 541 384 541C352 541 320 541 288 541C256 541 224 541 192 541C160 541 128 541 96 541C64 541 32 541 16 541L0 541Z" fill="#b4af1e"></path><path d="M0 433L16 438.2C32 443.3 64 453.7 96 452.8C128 452 160 440 192 439.3C224 438.7 256 449.3 288 453.8C320 458.3 352 456.7 384 455.5C416 454.3 448 453.7 480 450.7C512 447.7 544 442.3 576 443.7C608 445 640 453 672 453C704 453 736 445 768 441.7C800 438.3 832 439.7 864 443C896 446.3 928 451.7 944 454.3L960 457L960 541L944 541C928 541 896 541 864 541C832 541 800 541 768 541C736 541 704 541 672 541C640 541 608 541 576 541C544 541 512 541 480 541C448 541 416 541 384 541C352 541 320 541 288 541C256 541 224 541 192 541C160 541 128 541 96 541C64 541 32 541 16 541L0 541Z" fill="#c9c227"></path><path d="M0 487L16 489C32 491 64 495 96 493C128 491 160 483 192 480.3C224 477.7 256 480.3 288 483.5C320 486.7 352 490.3 384 490.5C416 490.7 448 487.3 480 486.2C512 485 544 486 576 487.7C608 489.3 640 491.7 672 489.5C704 487.3 736 480.7 768 480.5C800 480.3 832 486.7 864 488.5C896 490.3 928 487.7 944 486.3L960 485L960 541L944 541C928 541 896 541 864 541C832 541 800 541 768 541C736 541 704 541 672 541C640 541 608 541 576 541C544 541 512 541 480 541C448 541 416 541 384 541C352 541 320 541 288 541C256 541 224 541 192 541C160 541 128 541 96 541C64 541 32 541 16 541L0 541Z" fill="#dfd630"></path></svg>