<svg width="1105" height="947" viewBox="0 0 1105 947" fill="none" xmlns="http://www.w3.org/2000/svg">
<path d="M115.267 339.873H143.003L165.491 343.579L188.916 353.124L210.342 366.313L232.268 385.969L255.694 405.061L284.429 426.602L310.79 440.355L338.588 446.196L374.881 440.355L423.793 392.312L458.994 350.581L494.194 308.85L546.417 235.592L598.639 162.335L612.507 147.199L637.494 127.794L658.421 113.475L685.344 99.5962L716.515 85.8428L751.809 74.6641L802.283 66.5H852.194L896.546 74.6641L919.971 83.3307L947.707 95.7025L971.819 110.147L986.999 121.388L1007.8 139.663L1036.85 171.818L1050.59 191.223L1061.9 209.624L1073.52 233.3L1081.76 254.275L1091.57 279.835L1099.88 319.965L1104.5 359.844V410.336L1101.5 441.486L1095.69 475.398L1086.32 507.678L1070.96 546.175L1053.96 580.213L1035.16 613.624L1016.11 642.261L992.871 669.203L966.697 695.705L944.209 719.067L923.282 735.772L899.67 751.409L870.935 769.119L836.515 786.515L818.649 793.926L800.596 801.713L776.234 809.752L752.497 816.471L711.143 825.138L666.167 831.92L627.562 835.5H578.837L549.603 833.176L531.862 831.292L508.249 829.157L458.463 821.747L411.237 811.196L361.076 796.438L310.915 777.786L279.057 764.221L247.073 747.202L220.087 731.753L196.412 713.791L168.677 693.067L140.379 666.753L105.022 626.561L81.6597 595.976L63.2943 566.083L50.9258 540.146L43.6171 523.692L34.9966 497.441L28.5 461.205V435.017L31.8108 415.298L38.1824 396.457L46.3032 381.699L60.3583 366.313L76.35 353.124L94.7779 343.579L115.267 339.873Z" fill="#FFD952"/>
<path d="M842.5 828.5L858.5 816L868.5 810.5L879.5 806L889.5 803.5L901.5 801L917.5 797.5L939 793L952.5 788.5L962.5 784L968 778.5L972 771.5V764.5L971 760.5L967 750L960.5 741L952 729.5L945.5 721.5L939 710.5L937 701.5V691.5L938 685L940.5 677L945.5 669L952 663.5L959 661H974L984 665.5L992 671L997.5 677L1004 685L1008 696.5L1012 707L1014.5 721.5L1018 753L1017 784L1014.5 803.5L1012 818.5L1007 835.5L1002 852.5L993.5 872.5L984 889L974 903.5L966 913.5L955 924L942.5 932.5L929.5 939.5L918.5 944L906 947H888.5L874.5 944L861 939.5L848 932.5L840 926L832.5 917.5L827 909L823.5 898.5L821 889V871.5L824.5 855.5L832.5 840.5L842.5 828.5Z" fill="#EE5164"/>
<path d="M246.5 95L244 101.5L237.5 112.5L229.5 122.5L219.5 130L210.5 136L204.5 138.5L197.5 140.5L185.5 143.5L172 146L150 149.5L141.485 153L135 156L127.5 162.114L125 165L123.5 169.5L123 173V178.5L123.5 183L126 187.5L130 191L138.5 196L148.5 205L153.5 213L155 220V232L151 240.5L146 246L140.099 251.5L133.5 254.5H116L111 253L99.9112 247.614L92.5203 242.864L87.4391 237.682L81.434 230.773L74.0432 220L68.5 208.75L63 195L58.5 174.636V145.273V128.432L63 106.841L70 88L79.5 69.7045L89 54.5909L100 39.5L111.921 27.5L125 18.5L138.251 10.9773L152.5 4.5L161.348 1L171.5 0H194.5L206.5 3.5L217.5 9.5L227 16.5L232.947 22.6364L239.876 29.9773L244.957 37.3182L248.19 46.3864L250.5 54.5909L252 62V72.5L250.5 81.5L246.5 95Z" fill="#4AE5AD"/>
<path d="M896.5 315L1020.5 229.5L1029.5 234L1020.5 518.5L905.5 610L896.5 600.5V315Z" fill="#217652" fill-opacity="0.7"/>
<path d="M905.5 319.5L1029.5 234V523L905.5 610V319.5Z" fill="#4AE5AD" fill-opacity="0.7"/>
<rect x="632.5" y="337.5" width="100" height="100" fill="#C4C4C4"/>
<path d="M941.5 350.5L1009.5 304.5V495L941.5 540.5V350.5Z" fill="#0A8357" fill-opacity="0.8"/>
<path d="M952 355L1020 309V499.5L952 545V355Z" fill="white"/>
<path d="M984 472L985 458.75L986 445.5L987 433L988 422L989 410L990.5 403.5L992 398L994 392.5L996 387L998.5 381.5L1000.5 377L1002.5 373.5L1006.5 367.5L1010 363L1014 357L1020 349V499.5L952 545V525.048L957.5 523L965 517.5L969.5 514L974.5 508L978.5 501.5L980.5 496.5L982 491L983 483L984 472Z" fill="#EE5164" fill-opacity="0.6"/>
<path d="M951.967 354.699L968.5 343.844V355.121V363.5L970 369.5L973 377.5L977 384.5L983 389.5L988.5 392.5L994 394.5L998.5 396.5L1002 399.5L1005.5 404.5L1007.5 409L1008 415V431L1006.5 439.5L1004.5 447L1001.5 454L996 465L991.5 472L987.5 477.5L982 482.5L975.5 486L969 489L961 492.5L951.967 496.5V354.699Z" fill="#FFD952" fill-opacity="0.6"/>
<path d="M915.5 451L933.5 438.25L951.5 425.5V430L965 420.5V430.5L915.5 464V451Z" fill="#888888" fill-opacity="0.3"/>
<path d="M915.5 480L933.5 467.25L951.5 454.5V459L965 449.5V459.5L915.5 493V480Z" fill="#0A8357" fill-opacity="0.3"/>
<path d="M915.5 507L933.5 494.25L951.5 481.5V486L965 476.5V486.5L915.5 520V507Z" fill="#0A8357" fill-opacity="0.3"/>
<path d="M920.5 455.5L970 421V435L920.5 468.5V455.5Z" fill="#6C36DD"/>
<path d="M920.5 484L970 449.5V463.5L920.5 497V484Z" fill="#6C36DD"/>
<path d="M920.5 513L970 478.5V492.5L920.5 526V513Z" fill="#EE5164"/>
<path d="M1012.5 263.5L1024 256V259.5L1012.5 267.5V263.5Z" fill="white"/>
<path d="M1012.5 270.5L1024.93 262.5V266L1012.5 274.5V270.5Z" fill="white"/>
<path d="M1012.5 278.5L1025.5 268.5V272L1012.5 282.5V278.5Z" fill="white"/>
<path d="M260 567.5L412.5 585.5L155.5 734.5L3 716L260 567.5Z" fill="#4AE6AD"/>
<path d="M265.5 579.5L367.5 590.5L317.5 620.5L212 609.5L265.5 579.5Z" fill="#9FF3E4"/>
<path d="M261 553.499L4.4999 703.499L156.5 722.5L411.5 573.5L261 553.499Z" stroke="#217652" stroke-width="2"/>
<path d="M116.5 671.5L172.5 680.5L163.5 685.5L108 676.5L116.5 671.5Z" fill="#49A77F"/>
<path d="M96 682.5L153.5 690.5L143 695.5L87.5 687.5L96 682.5Z" fill="#49A77F"/>
<path d="M75 694.5L132.5 702.5L122 707.5L66.5 699.5L75 694.5Z" fill="#49A77F"/>
<path d="M75 691.5L132.5 699.5L122 704.5L66.5 696.5L75 691.5Z" fill="#EAD839"/>
<path d="M96 679.5L153.5 687.5L143 692.5L87.5 684.5L96 679.5Z" fill="#EAD839"/>
<path d="M116 668.5L173.5 676.5L163 681.5L107.5 673.5L116 668.5Z" fill="#EAD839"/>
<path d="M252.5 701.5L386.5 717.5L323.5 753.5L188.5 737L252.5 701.5Z" fill="#5F5F5F" fill-opacity="0.8"/>
<path d="M252.5 694L386.5 710L323.5 746L188.5 729.5L252.5 694Z" fill="#8110DB"/>
<path d="M296.499 730.005L349 698.5" stroke="#E30999" stroke-width="2"/>
<path d="M327.67 734.005L380.171 702.5" stroke="#E30972" stroke-width="2"/>
<path d="M379.5 702.5L348.5 698.5" stroke="#E30999" stroke-width="2"/>
<path d="M328.5 733.5L297 729.633" stroke="#E30999" stroke-width="2"/>
<path d="M358.5 748.5L408.5 755L401 760.5L350.5 753L358.5 748.5Z" fill="#EE5164"/>
<path d="M350.5 753L401 760.5V764L350.5 757V753Z" fill="#66234B"/>
<path d="M401 760.5L408.5 755V759.5L401 763.999V760.5Z" fill="#570536"/>
<path d="M426.5 757.5L477.5 763L471 768.5L419 763L426.5 757.5Z" fill="#EE5164"/>
<path d="M419 763L470.5 768.5V773.5L419 767V763Z" fill="#570536"/>
<path d="M470.5 768.5L477.5 763V768.5L470.5 773.5V768.5Z" fill="#570536"/>
<path d="M386.5 733.5L557.5 753.5L552.5 757.5L381.5 737.5L386.5 733.5Z" fill="#FFF3BA"/>
<path d="M397 728.5L521.5 743L517.5 746L393 732L397 728.5Z" fill="#FFF3BA"/>
<path d="M526.122 744.346L571 748.5L568.5 752L523 747.5L526.122 744.346Z" fill="#FFF3BA"/>
<path d="M575.622 749.5L620.5 753.654L618 757.154L572.5 752.654L575.622 749.5Z" fill="#FFF3BA"/>
<path d="M275.5 681L673.563 731.005" stroke="#FFF3BA"/>
<path d="M402.5 723L470.848 732.5" stroke="#FFF3BA" stroke-width="4"/>
<path d="M476.5 733.5L551 741.501" stroke="#FFF3BA" stroke-width="4"/>
<path d="M556.5 742.928L599.5 747.501" stroke="#FFF3BA" stroke-width="4"/>
<path d="M295.5 671.946L552.5 702.499" stroke="#FFF3BA" stroke-width="4"/>
<path d="M311.5 663.979L568.5 694.532" stroke="#FFF3BA" stroke-width="4"/>
<path d="M326.5 653.98L463 670.501" stroke="#FFF3BA" stroke-width="4"/>
<path d="M473.5 673.123L577.5 685.001" stroke="#FFF3BA" stroke-width="4"/>
<path d="M539 670.5L643 682.378" stroke="#FFF3BA" stroke-width="4"/>
<path d="M342.5 646.194L525.5 668" stroke="#FFF3BA" stroke-width="4"/>
<path d="M564.5 704.501L622.5 712.001" stroke="#FFF3BA" stroke-width="4"/>
<path d="M362.5 629.5L743.5 675.5L822 628V635.5L743.5 681L362.5 635.5V629.5Z" fill="#66234B"/>
<path d="M442 582.5L822 628L743 675.5L362.5 629.5L442 582.5Z" fill="#EE5164"/>
<path d="M445 592.5L560.5 605L517 633L401 619L445 592.5Z" fill="#FAACBE"/>
<path d="M578.5 608.998L653.5 618" stroke="#FAACBE" stroke-width="4"/>
<path d="M561.5 620L657.5 631.5" stroke="#FAACBE" stroke-width="4"/>
<path d="M657.5 618.499L694.5 622.5" stroke="#FAACBE" stroke-width="4"/>
<path d="M570 614.999L621.5 620.5M627 621.499L667.5 626.998M673 628L710.5 632.5" stroke="#FAACBE" stroke-width="4"/>
<path d="M826 170.5L832 166L838.5 162L845.5 158.5L851.5 156L858 154L866 152.5H873.5L880 154L886 158.5L891 162L897 168.5L899.5 176.5L900.5 184.5L900 191.5L901.5 196L908 199.5L915.5 204.5L921.5 208L927 214.5L929 221V230.5L927 235.5L922.5 239L918.5 240.5H908L900 238L889 232.5L878 227L870.5 225H860.5L851.5 227L842 229.5L835 232.5L829 236.5L821 243.5L813.5 251L802 259.5H793L787 256.5L783.5 252L781.5 246.5V240L783.5 231.5L787 223L791 213.5L800.5 199.5L810.5 186L818.5 177L826 170.5Z" fill="#5F5F5F" fill-opacity="0.8"/>
<path d="M834.5 592.5L842.292 203.5L851.5 208.5V601L840.5 608.5L834.5 592.5Z" fill="#4A2597"/>
<path d="M846.5 278L274.5 135.5L282.5 126.5L852 194L851 236L846.5 278Z" fill="#4A2597"/>
<path d="M274.498 135.5L840.5 203.5L839 594.5L274.498 528.428V135.5Z" fill="#C99EEB"/>
<path d="M274.5 150.5L840.5 217.926V608.5L274.5 542.572V150.5Z" fill="#A34AEA"/>
<path d="M275 172.5L840.5 239V600L275 533V172.5Z" fill="#6C36DD"/>
<path d="M456 366.5L543.5 377L548 371.5L553.5 366.5L560.5 363L567.5 360L579 357.5L596.5 358L606 360L616.5 365.5L627 373L634.5 380L641 389.5L646.5 400L650 411.5L650.5 424V432L649 440.5L646 448L642 454.5L635.5 461.5L629.5 466.5L627 469V533L573 525.5L530.5 496.5L508 465L499 435V405.5L479 403.5L456 401.5V366.5Z" fill="#5327B0"/>
<path d="M662 249L807 267V551L662 533.5V249Z" fill="white"/>
<path d="M762.5 345L773 336L789 328.5L800.5 326.5H807V336V551L662 533.5V503L668.5 504.5L679.5 508L686.5 509.5H702.5L711.5 508L719 503L726 491.5L729 482L732.5 465.5L744.5 380.5L748 368.5L755 355L762.5 345Z" fill="#EE5164" fill-opacity="0.6"/>
<path d="M662 249L696 253.5V271L700.5 290L709 311.5L718.5 328.5L729 342L740 351.5L754 362.5L761.5 368.5L768.5 377L773.5 387L777.5 395.5L780.5 406L782 414.5V424.5L780.5 436L775.5 447.5L771.5 456L764.5 463.5L756 468.5L739.5 474.5L729.5 476L714 475L702.5 471.5L691 466L682.5 461.5L674 456L662 446V249Z" fill="#FFD952" fill-opacity="0.6"/>
<path d="M306.5 283.5L545 310.5V319L306.5 291.5V283.5Z" fill="#F0D8FF"/>
<path d="M531.5 313.5V349" stroke="#217652" stroke-width="2"/>
<path d="M531.5 314.5L707.5 333V366.5L531.5 348" stroke="#217652" stroke-width="2"/>
<path d="M517 325V361.501" stroke="#4AE5AD" stroke-width="3"/>
<path d="M517 326.5L693 345V378.5L517 360" stroke="#4AE5AD" stroke-width="3"/>
<path d="M306.5 211.5L462 230.5V238.5L306.5 219.5V211.5Z" fill="#F0D8FF"/>
<path d="M306.5 228.5L513.5 254V263.5L306.5 236.5V228.5Z" fill="#F0D8FF"/>
<path d="M306.5 246.5L434.5 262V270L306.5 254.5V246.5Z" fill="#F0D8FF"/>
<path d="M440.5 263.5L565 278.5V286.5L440.5 271.5V263.5Z" fill="#F0D8FF"/>
<path d="M306.5 265.5L504.5 288.5V296.5L306.5 273.5V265.5Z" fill="#F0D8FF"/>
<path d="M468.5 231.5L576.5 244.5V252.5L468.5 239.5V231.5Z" fill="#F0D8FF"/>
<path d="M520.5 256L611 266V275.5L520.5 264V256Z" fill="#F0D8FF"/>
<path d="M772.999 496.001L772.999 568.001L792 570.002M791 497.898L791 533.898L791 569.898" stroke="#EE5164" stroke-width="3"/>
<path d="M774 497.5L791.5 499.5" stroke="#EE5164" stroke-width="3"/>
<path d="M275 232L498 257.501L497.5 398" stroke="#9B3340" stroke-opacity="0.8" stroke-width="2"/>
<path d="M233.5 353V251L475.5 281" stroke="#EE5164" stroke-width="2"/>
<path d="M233.5 298L233.5 394L475.5 424" stroke="#EE5164" stroke-width="2"/>
<path d="M475 280V424.5" stroke="#EE5164" stroke-width="2"/>
<path d="M215.5 358L224.5 354.5L233.5 353H244.5L251.5 354.5L260.5 358L270.5 362L279.5 369L288.5 377.5L300 386L310.5 390.5L320 393.5H331L343.5 390.5L357.5 380.5L372 366.5L386.5 355.5L397 348L410.5 342.5L422.5 340H444L456 342.5V443L215.5 416V358Z" fill="#EE5164"/>
<path d="M420 353L456 357.5V401.5L420 392.5V353Z" fill="#842452" fill-opacity="0.6"/>
<path d="M392.5 381.5L514.5 395L510 403.5L507 410L505 420L504 426V436L505 446.5L507 454L513 465L519 474L525.5 480.5L534 487.5L546.5 496.5L558 502L571.5 504.5H586.5L599 501V550.5L392.5 527.5V381.5Z" fill="#FFD952"/>
<path d="M407.5 448.5L486.5 457V464.5L407.5 455.5V448.5Z" fill="#FFF3BA"/>
<path d="M407.5 459.5L462 466.5V474L407.5 466.5V459.5Z" fill="#FFF3BA"/>
<path d="M407.5 477.5L506.5 488.5V494.5L407.5 484.5V477.5Z" fill="#FFF3BA"/>
<path d="M407.5 489.5L541 504.5V510L407.5 496.5V489.5Z" fill="#FFF3BA"/>
<path d="M408.5 502.5L488 509.5V516.5L408.5 509.5V502.5Z" fill="#FFF3BA"/>
<path d="M492.5 511.5L572 518.5V525.5L492.5 518.5V511.5Z" fill="#FFF3BA"/>
<path d="M628.5 447C628.5 478.48 605.5 500.004 570 496C538.966 492.5 513 462.5 513 432C513 400.52 534.52 377 566 377C597.48 377 633.5 415 628.5 447Z" fill="#EE5164"/>
<path d="M559.5 454.5H590.5V478.5L607 483L599 488.5L585 489.5L581 496.5H576L570 496L566.5 495.5L565.5 492L564.5 490L552.5 488L545 481L559.5 478.5V454.5Z" fill="#EEB6B6"/>
<path d="M559.5 462.5H570.5L586.5 459L585.5 467L584 473.5L580 479.5L573 486L566.5 489.5H559.5L553 483.5L559.5 476V462.5Z" fill="#AC6565"/>
<path d="M559.5 471V475.5L560.5 481L562 485L564.5 489.5L566 495.5L574.5 496.5L578 496L579.5 492.5L584.5 489L588.5 484.5L590.5 481V478.5V473H595L596.5 474.5L600.5 477L604 479L609 480L615 482.5L613.5 484L610.5 486.5L607.5 488.5L605 490L602 491.5L598.5 493L597 493.5L594 494.5L589 495.5L579.5 496.5H571.5L565 495.5L558.5 493.5L553.5 491.5L550.5 490L547.5 488.5L545 487L541.5 484.5L538 482L531.5 476L540.5 476.5L552 474.5L554.5 472.5L559.5 471Z" fill="#667A5D"/>
<path d="M552.5 474.5L552 480.5L552.5 488L554.5 491.5" stroke="#374033"/>
<path d="M600.001 477.001L600 481.501L599.5 487.5L597.5 492.999" stroke="#374033"/>
<path d="M545.5 424.538V418.869L549 412.685L554 408.562L560 406.5H569L577.5 408.562L585 413.715L589.5 418.869L592 426.6L593 443.608L597.5 444.123L597 448.246L595.5 450.308L593.5 454.431L592 456.492H588L586.5 460.615L580.5 464.738L575.5 469.377L568 473.5L563.5 472.985L560 470.923L555.5 466.285L551.5 461.131L549 454.431L546.5 441.546L545.5 424.538Z" fill="#EEB6B6"/>
<path d="M588.5 437.5L592 439V444.5L593 445L593.5 446V447.5L592.5 448.5L592 450H588.5V437.5Z" fill="#F09E9E"/>
<path d="M535 408.5L539 406.5L540 399.5L541.5 397.5L542.5 397L544 397.5L546 399.5L547 400L548 399.5V398H547.5L546.5 397.5L546 397V396L546.5 395L547 394L549 391L551 388.5L553 387.5H557L561.5 389L565.5 390.5L570.5 392.5L576.5 397L585 399.5L589 403L592.5 407L595 410L597 413.5L599.5 417.5L600.5 421V424.5L601.5 428V431L601 434.5L599.5 439L598 443.5L593.5 442.5L588 439L585 437.5L582 434.5L581 432L579.5 429L577.5 426.5L575.5 423.5L573.5 419.5L571 415L568 414L563.5 413H554.5L552 413.5L548 417L546 422.5L545.5 429L541.5 428L539.5 426L537.5 422.5L535.5 419L535 408.5Z" fill="#193120"/>
<path d="M537 421.5L538 418.5L538.5 412L541.5 409.5L547 408.5L550.5 405L551.5 402.5L553.5 399.5H559L564.5 402L570.5 403.5L574.5 407L579 410L582.5 414.5L585.5 415.5V413.5L586 411.5L589 412L592.5 414.5L594.5 415.5L597 417L600.5 421V425.5L601.5 428V431.5L601 434.5L598 443.5L593.5 442.5L585 437.5L582 434.5L579.5 429L577.5 426.5L575.5 423.5L571 415L567.5 414L563.5 413H554L551.5 414L548 417L546 423L545.5 429L541.5 428L539.5 426L537 421.5Z" fill="#1B1F1C"/>
<path d="M810 191L816 186.5L822.5 182.5L829.5 179L835.5 176.5L842 174.5L850 173H857.5L864 174.5L870 179L875 182.5L881 189L883.5 197L884.5 205L884 212L885.5 216.5L892 220L899.5 225L905.5 228.5L911 235L913 241.5V251L911 256L906.5 259.5L902.5 261H892L884 258.5L873 253L862 247.5L854.5 245.5H844.5L835.5 247.5L826 250L819 253L813 257L805 264L797.5 271.5L786 280H777L771 277L767.5 272.5L765.5 267V260.5L767.5 252L771 243.5L775 234L784.5 220L794.5 206.5L802.5 197.5L810 191Z" fill="#EE5164"/>
</svg>
