<svg width="328" height="358" viewBox="0 0 328 358" fill="none" xmlns="http://www.w3.org/2000/svg">
<mask id="mask0_1636_51" style="mask-type:alpha" maskUnits="userSpaceOnUse" x="0" y="0" width="328" height="357">
<path d="M0 54.483C0 51.8427 2.05293 49.6574 4.68811 49.4927L40.7485 47.2389C44.8132 46.9849 48.8479 46.3766 52.8068 45.421L83.2272 38.0782C87.2819 37.0994 91.241 35.7603 95.0572 34.0766L139.107 14.6429L162.965 1.38841C164.514 0.528149 166.402 0.551398 167.928 1.44952L190.357 14.6429L234.669 34.1924C238.312 35.7993 242.085 37.0926 245.947 38.0581L274.927 45.3031C279.062 46.337 283.283 46.9909 287.538 47.2568L323.312 49.4927C325.947 49.6574 328 51.8427 328 54.483V107.902C328 112.102 327.622 116.293 326.871 120.424L317.671 171.023C316.75 176.087 315.274 181.035 313.268 185.776L284.071 254.786L274.94 272.033C272.252 277.111 268.949 281.838 265.106 286.109L248.032 305.079C245.704 307.666 243.187 310.075 240.501 312.287L225.461 324.673C221.593 327.858 217.395 330.619 212.938 332.907L167.689 356.143C166.289 356.862 164.631 356.88 163.216 356.19L114.916 332.66C110.555 330.535 106.427 327.963 102.598 324.985L86.9011 312.776C83.6401 310.24 80.61 307.42 77.8464 304.349L55.6429 279.679L43.0924 261.899C39.7579 257.175 37.0216 252.056 34.9459 246.659L11.7093 186.244C9.76678 181.194 8.41646 175.935 7.68534 170.573L0 114.214L0 54.483Z" fill="#D9D9D9"/>
</mask>
<g mask="url(#mask0_1636_51)">
<path d="M0 54.483C0 51.8427 2.05293 49.6574 4.68811 49.4927L34.6398 47.6207C42.7692 47.1126 50.8387 45.8961 58.7565 43.9849L77.1331 39.5492C85.2424 37.5917 93.1606 34.9134 100.793 31.5461L139.107 14.6429L162.965 1.38841C164.514 0.528149 166.402 0.551398 167.928 1.44952L190.357 14.6429L229.196 31.7776C236.481 34.9914 244.026 37.578 251.751 39.5091L268.711 43.7491C276.982 45.8168 285.424 47.1247 293.933 47.6565L323.312 49.4927C325.947 49.6574 328 51.8427 328 54.483V101.59C328 109.989 327.244 118.371 325.742 126.634L319.057 163.403C317.215 173.532 314.262 183.427 310.25 192.909L284.071 254.786L278.988 264.388C273.612 274.543 267.006 283.998 259.319 292.539L251.529 301.194C246.873 306.367 241.838 311.186 236.466 315.61L231.279 319.881C223.544 326.252 215.147 331.773 206.233 336.35L165.464 357.286L121.475 335.855C112.753 331.606 104.497 326.462 96.8391 320.506L91.8022 316.588C85.2802 311.516 79.2201 305.875 73.6927 299.734L55.6429 279.679L48.1133 269.012C41.4444 259.564 35.9718 249.327 31.8205 238.533L14.6328 193.845C10.7478 183.744 8.0472 173.227 6.58497 162.504L0 114.214L0 54.483Z" fill="#262626"/>
<mask id="mask1_1636_51" style="mask-type:alpha" maskUnits="userSpaceOnUse" x="23" y="27" width="282" height="306">
<path d="M23.4273 73.7252C23.4273 71.0849 25.4803 68.8996 28.1154 68.7349L57.4819 66.8995C61.5466 66.6455 65.5814 66.0372 69.5403 65.0816L93.8943 59.203C97.949 58.2243 101.908 56.8852 105.724 55.2015L142.662 38.9055L162.755 27.7429C164.303 26.8826 166.191 26.9059 167.718 27.804L186.591 38.9055L223.79 55.3173C227.433 56.9242 231.206 58.2175 235.068 59.183L258.191 64.9637C262.326 65.9976 266.547 66.6515 270.802 66.9174L299.882 68.7349C302.517 68.8996 304.57 71.0849 304.57 73.7252V117.941C304.57 122.14 304.192 126.331 303.441 130.463L295.915 171.857C294.994 176.921 293.517 181.869 291.511 186.61L266.917 244.742L259.669 258.434C256.981 263.511 253.677 268.239 249.834 272.509L236.526 287.296C234.198 289.882 231.681 292.292 228.995 294.504L217.511 303.961C213.643 307.146 209.445 309.907 204.988 312.195L167.479 331.457C166.078 332.176 164.421 332.193 163.005 331.504L122.864 311.948C118.503 309.823 114.375 307.251 110.546 304.273L98.6141 294.993C95.3531 292.457 92.323 289.637 89.5594 286.566L71.1212 266.079L61.0809 251.855C57.7465 247.131 55.0101 242.013 52.9345 236.616L33.8815 187.078C31.939 182.028 30.5887 176.769 29.8576 171.408L23.4273 124.252L23.4273 73.7252Z" fill="white"/>
</mask>
<g mask="url(#mask1_1636_51)">
<path d="M23.4273 73.7252C23.4273 71.0849 25.4803 68.8996 28.1154 68.7349L57.4819 66.8995C61.5466 66.6455 65.5814 66.0372 69.5403 65.0816L93.8943 59.203C97.949 58.2243 101.908 56.8852 105.724 55.2015L142.662 38.9055L162.755 27.7429C164.303 26.8826 166.191 26.9059 167.718 27.804L186.591 38.9055L223.79 55.3173C227.433 56.9242 231.206 58.2175 235.068 59.183L258.191 64.9637C262.326 65.9976 266.547 66.6515 270.802 66.9174L299.882 68.7349C302.517 68.8996 304.57 71.0849 304.57 73.7252V117.941C304.57 122.14 304.192 126.331 303.441 130.463L295.915 171.857C294.994 176.921 293.517 181.869 291.511 186.61L266.917 244.742L259.669 258.434C256.981 263.511 253.677 268.239 249.834 272.509L236.526 287.296C234.198 289.882 231.681 292.292 228.995 294.504L217.511 303.961C213.643 307.146 209.445 309.907 204.988 312.195L167.479 331.457C166.078 332.176 164.421 332.193 163.005 331.504L122.864 311.948C118.503 309.823 114.375 307.251 110.546 304.273L98.6141 294.993C95.3531 292.457 92.323 289.637 89.5594 286.566L71.1212 266.079L61.0809 251.855C57.7465 247.131 55.0101 242.013 52.9345 236.616L33.8815 187.078C31.939 182.028 30.5887 176.769 29.8576 171.408L23.4273 124.252L23.4273 73.7252Z" fill="white"/>
<rect x="138.571" y="163.657" width="54.2362" height="79.2476" fill="#8F492B"/>
<path d="M233.856 124.922C215.382 163.467 190.482 185.149 165.581 193.179C140.681 183.543 110.961 161.861 97.3065 124.922C97.3065 87.2247 127.874 56.665 165.581 56.665C203.288 56.665 233.856 87.2247 233.856 124.922Z" fill="#DB8864"/>
<path d="M105.428 77.9772C105.889 75.6241 107.18 73.5149 109.065 72.0338L127.159 57.8207C128.133 57.0557 129.241 56.4782 130.426 56.1177L145.684 51.475C146.628 51.1879 147.608 51.042 148.595 51.042H161.744C162.691 51.042 163.633 51.1766 164.543 51.4418L179.758 55.8784C181.518 56.3917 183.386 56.4111 185.156 55.9345L197.988 52.4808C201.314 51.5856 204.866 52.465 207.391 54.8083L223.311 69.5877C224.94 71.0997 226.018 73.1113 226.377 75.3048L231.941 109.377C232.071 110.174 231.25 110.789 230.521 110.439L215.255 103.113C213.255 102.153 211.63 100.555 210.638 98.5709L206.098 89.4929C204.404 86.1056 200.941 83.966 197.154 83.966H134.568C130.909 83.966 127.542 85.9644 125.79 89.1765L120.539 98.8015C119.534 100.642 117.977 102.121 116.087 103.028L100.71 110.407C99.9682 110.762 99.1379 110.12 99.2959 109.313L105.428 77.9772Z" fill="black"/>
<rect x="73.209" y="203.974" width="186.35" height="164.057" rx="20" fill="#A32525"/>
<ellipse cx="137.468" cy="124.918" rx="8.03233" ry="12.0454" fill="#2B1103"/>
<ellipse cx="193.693" cy="124.915" rx="8.03233" ry="12.0454" fill="#2B1103"/>
<mask id="mask2_1636_51" style="mask-type:alpha" maskUnits="userSpaceOnUse" x="6" y="-13" width="162" height="370">
<rect x="6.45666" y="-12.9141" width="161.318" height="369.822" fill="#D9D9D9"/>
</mask>
<g mask="url(#mask2_1636_51)">
<rect x="5.16526" y="-14.2061" width="318.464" height="369.822" fill="white"/>
<path d="M292.701 182.985C292.701 251.726 236.542 307.522 167.179 307.522C97.8166 307.522 41.6579 251.726 41.6579 182.985C41.6579 114.244 97.8166 58.4482 167.179 58.4482C236.542 58.4482 292.701 114.244 292.701 182.985Z" stroke="#3572B9" stroke-width="11"/>
<line x1="166.938" y1="56.4551" x2="166.938" y2="310.849" stroke="#3572B9" stroke-width="10"/>
<path d="M167.18 61.6201C67.6038 128.372 79.8325 239.337 167.18 304.355" stroke="#3572B9" stroke-width="10"/>
<path d="M168.927 61.6182C268.508 128.37 256.279 239.335 168.927 304.353" stroke="#3572B9" stroke-width="10"/>
<line y1="-5" x2="251.587" y2="-5" transform="matrix(-0.999993 -0.00372739 0.00378404 -0.999993 291.238 176.983)" stroke="#3572B9" stroke-width="10"/>
<path d="M259.767 95.4277C188.142 143.108 140.975 140.507 74.5904 95.4277" stroke="#3572B9" stroke-width="10"/>
<path d="M259.767 264.475C188.142 216.786 140.974 219.387 74.5903 264.475" stroke="#3572B9" stroke-width="10"/>
</g>
</g>
</g>
</svg>
