<svg width="1123" height="888" viewBox="0 0 1123 888" fill="none" xmlns="http://www.w3.org/2000/svg">
<path d="M161.962 344.201C161.962 387.671 136.121 422.911 104.243 422.911C72.366 422.911 85.3963 422.397 85.3963 378.926C85.3963 335.455 130.085 237.71 161.962 237.71C193.839 237.71 161.962 300.73 161.962 344.201Z" fill="#F485C7"/>
<g filter="url(#filter0_d_1661_329)">
<ellipse cx="165.519" cy="236.904" rx="53.051" ry="51.3692" fill="#F485C7"/>
</g>
<ellipse cx="170.824" cy="239.794" rx="5.3051" ry="12.5213" fill="black"/>
<ellipse cx="202.655" cy="237.708" rx="5.3051" ry="12.5213" fill="black"/>
<path d="M203.716 262.75C203.716 265.055 192.6 271.098 186.74 271.098C180.88 271.098 169.763 265.055 169.763 262.75C169.763 260.445 180.88 262.75 186.74 262.75C192.6 262.75 203.716 260.445 203.716 262.75Z" fill="#FFF2F2"/>
<path d="M112.468 229.422C112.468 221.204 114.823 213.159 119.254 206.239L120.166 204.815C126.811 194.434 137.141 186.955 149.076 183.881L157.301 181.763C168.518 178.874 180.441 181.296 189.642 188.334L192.03 190.161C193.447 191.244 195.018 192.108 196.69 192.725L199.353 193.707C201.488 194.495 203.286 195.997 204.441 197.958V197.958C208.542 204.925 202.983 213.596 194.94 212.778L183.557 211.62H178.045C164.883 211.62 152.557 218.073 145.058 228.889L143.147 231.646C141.803 233.585 140.8 235.739 140.183 238.017L137.231 248.903C134.972 257.233 125.196 260.878 118.035 256.059V256.059C114.555 253.718 112.468 249.799 112.468 245.605V229.422Z" fill="black"/>
<path d="M69.3692 245.508C68.7959 239.897 69.3891 234.227 71.1114 228.856L71.6038 227.32C74.9994 216.731 82.9229 208.196 93.2315 204.025L95.4351 203.133C106.36 198.713 118.807 200.393 128.167 207.553L130.025 208.974C131.441 210.057 133.012 210.922 134.685 211.539L137.347 212.521C139.483 213.308 141.28 214.81 142.435 216.772V216.772C146.536 223.738 140.977 232.41 132.935 231.592L125.456 230.831C122.904 230.571 120.331 231.034 118.03 232.168L114.565 233.875C103.15 239.498 97.177 252.298 100.2 264.658L103.227 277.038C103.384 277.677 103.463 278.333 103.463 278.991V278.991C103.463 286.406 94.4184 290.032 89.2962 284.67L75.3298 270.048C72.8234 267.424 71.2625 264.04 70.8937 260.43L69.3692 245.508Z" fill="black"/>
<path d="M403.319 20C403.319 8.95428 412.273 3.53035e-06 423.319 7.88525e-06L880 0.000187938C891.046 0.000192293 900 8.9545 900 20.0002V151.113C900 162.159 891.046 171.113 880 171.113H558.585C555.63 171.113 552.713 171.767 550.041 173.029L409.102 239.614C404.099 241.977 399.531 235.669 403.337 231.653L433.105 200.245C443.53 189.246 435.733 171.113 420.578 171.113V171.113C411.046 171.113 403.319 163.385 403.319 153.853V20Z" fill="#FFF8B8"/>
<mask id="mask0_1661_329" style="mask-type:alpha" maskUnits="userSpaceOnUse" x="430" y="38" width="101" height="99">
<ellipse cx="480.508" cy="87.4653" rx="49.6325" ry="48.81" fill="#D9D9D9"/>
</mask>
<g mask="url(#mask0_1661_329)">
<ellipse cx="478.422" cy="85.0474" rx="59.2771" ry="64.8633" fill="#838383"/>
<ellipse cx="480.926" cy="74.3738" rx="25.0467" ry="24.6316" fill="#DCDCDC"/>
<ellipse cx="479.256" cy="144.984" rx="41.7445" ry="41.0527" fill="#DCDCDC"/>
</g>
<rect x="551" y="39" width="317" height="97" rx="5" fill="white"/>
<path d="M578.16 101C576.8 101 575.613 100.733 574.6 100.2C573.587 99.64 572.787 98.8533 572.2 97.84C571.64 96.8267 571.36 95.6533 571.36 94.32V75.72H564.16V71.8H575.68V94.32C575.68 95.1733 575.92 95.8533 576.4 96.36C576.88 96.84 577.533 97.08 578.36 97.08H585.16V101H578.16ZM598.984 101.4C597.198 101.4 595.624 101.053 594.264 100.36C592.931 99.64 591.904 98.64 591.184 97.36C590.464 96.08 590.104 94.5867 590.104 92.88V87.12C590.104 85.3867 590.464 83.8933 591.184 82.64C591.904 81.36 592.931 80.3733 594.264 79.68C595.624 78.96 597.198 78.6 598.984 78.6C600.798 78.6 602.371 78.96 603.704 79.68C605.038 80.3733 606.064 81.36 606.784 82.64C607.504 83.8933 607.864 85.3867 607.864 87.12V91.04H594.264V92.88C594.264 94.5067 594.664 95.7467 595.464 96.6C596.291 97.4533 597.478 97.88 599.024 97.88C600.278 97.88 601.291 97.6667 602.064 97.24C602.838 96.7867 603.318 96.1333 603.504 95.28H607.784C607.464 97.1467 606.504 98.64 604.904 99.76C603.304 100.853 601.331 101.4 598.984 101.4ZM603.704 88.44V87.08C603.704 85.48 603.304 84.24 602.504 83.36C601.704 82.48 600.531 82.04 598.984 82.04C597.464 82.04 596.291 82.48 595.464 83.36C594.664 84.24 594.264 85.4933 594.264 87.12V88.12L604.024 88.08L603.704 88.44ZM625.369 101C623.369 101 621.809 100.453 620.689 99.36C619.569 98.2667 619.009 96.7467 619.009 94.8V82.92H612.929V79H619.009V72.8H623.329V79H631.929V82.92H623.329V94.8C623.329 96.32 624.062 97.08 625.529 97.08H631.529V101H625.369ZM646.193 101.36C644.62 101.36 643.233 101.107 642.033 100.6C640.86 100.093 639.926 99.4 639.233 98.52C638.566 97.6133 638.18 96.5467 638.073 95.32H642.393C642.5 96.04 642.886 96.6267 643.553 97.08C644.22 97.5067 645.1 97.72 646.193 97.72H647.913C649.22 97.72 650.206 97.4533 650.873 96.92C651.54 96.3867 651.873 95.68 651.873 94.8C651.873 93.9467 651.566 93.28 650.953 92.8C650.366 92.2933 649.486 91.96 648.313 91.8L645.473 91.36C643.126 90.9867 641.393 90.32 640.273 89.36C639.18 88.3733 638.633 86.92 638.633 85C638.633 82.9733 639.286 81.4133 640.593 80.32C641.926 79.2 643.886 78.64 646.473 78.64H647.993C650.286 78.64 652.113 79.1733 653.473 80.24C654.86 81.28 655.646 82.68 655.833 84.44H651.513C651.406 83.8 651.046 83.28 650.433 82.88C649.846 82.48 649.033 82.28 647.993 82.28H646.473C645.22 82.28 644.3 82.52 643.713 83C643.153 83.4533 642.873 84.1333 642.873 85.04C642.873 85.84 643.126 86.44 643.633 86.84C644.14 87.24 644.926 87.52 645.993 87.68L648.913 88.16C651.393 88.5067 653.206 89.2 654.353 90.24C655.526 91.2533 656.113 92.7333 656.113 94.68C656.113 96.7867 655.42 98.4267 654.033 99.6C652.673 100.773 650.633 101.36 647.913 101.36H646.193ZM685.282 101V79H688.882V81.8H689.682L689.082 82.64C689.082 81.4133 689.415 80.44 690.082 79.72C690.749 78.9733 691.642 78.6 692.762 78.6C693.962 78.6 694.882 79.0667 695.522 80C696.189 80.9333 696.522 82.2133 696.522 83.84L695.562 81.8H697.082L696.442 82.64C696.442 81.4133 696.775 80.44 697.442 79.72C698.135 78.9733 699.055 78.6 700.202 78.6C701.562 78.6 702.629 79.12 703.402 80.16C704.175 81.1733 704.562 82.5333 704.562 84.24V101H700.722V84.36C700.722 83.5333 700.535 82.8933 700.162 82.44C699.815 81.9867 699.309 81.76 698.642 81.76C697.975 81.76 697.455 81.9867 697.082 82.44C696.735 82.8667 696.562 83.4933 696.562 84.32V101H693.322V84.36C693.322 83.5067 693.135 82.8667 692.762 82.44C692.389 81.9867 691.855 81.76 691.162 81.76C690.495 81.76 689.989 81.9867 689.642 82.44C689.322 82.8667 689.162 83.4933 689.162 84.32V101H685.282ZM718.906 101.4C717.12 101.4 715.546 101.053 714.186 100.36C712.853 99.64 711.826 98.64 711.106 97.36C710.386 96.08 710.026 94.5867 710.026 92.88V87.12C710.026 85.3867 710.386 83.8933 711.106 82.64C711.826 81.36 712.853 80.3733 714.186 79.68C715.546 78.96 717.12 78.6 718.906 78.6C720.72 78.6 722.293 78.96 723.626 79.68C724.96 80.3733 725.986 81.36 726.706 82.64C727.426 83.8933 727.786 85.3867 727.786 87.12V91.04H714.186V92.88C714.186 94.5067 714.586 95.7467 715.386 96.6C716.213 97.4533 717.4 97.88 718.946 97.88C720.2 97.88 721.213 97.6667 721.986 97.24C722.76 96.7867 723.24 96.1333 723.426 95.28H727.706C727.386 97.1467 726.426 98.64 724.826 99.76C723.226 100.853 721.253 101.4 718.906 101.4ZM723.626 88.44V87.08C723.626 85.48 723.226 84.24 722.426 83.36C721.626 82.48 720.453 82.04 718.906 82.04C717.386 82.04 716.213 82.48 715.386 83.36C714.586 84.24 714.186 85.4933 714.186 87.12V88.12L723.946 88.08L723.626 88.44ZM742.891 101.4C741.104 101.4 739.531 101.053 738.171 100.36C736.837 99.64 735.811 98.64 735.091 97.36C734.371 96.08 734.011 94.5867 734.011 92.88V87.12C734.011 85.3867 734.371 83.8933 735.091 82.64C735.811 81.36 736.837 80.3733 738.171 79.68C739.531 78.96 741.104 78.6 742.891 78.6C744.704 78.6 746.277 78.96 747.611 79.68C748.944 80.3733 749.971 81.36 750.691 82.64C751.411 83.8933 751.771 85.3867 751.771 87.12V91.04H738.171V92.88C738.171 94.5067 738.571 95.7467 739.371 96.6C740.197 97.4533 741.384 97.88 742.931 97.88C744.184 97.88 745.197 97.6667 745.971 97.24C746.744 96.7867 747.224 96.1333 747.411 95.28H751.691C751.371 97.1467 750.411 98.64 748.811 99.76C747.211 100.853 745.237 101.4 742.891 101.4ZM747.611 88.44V87.08C747.611 85.48 747.211 84.24 746.411 83.36C745.611 82.48 744.437 82.04 742.891 82.04C741.371 82.04 740.197 82.48 739.371 83.36C738.571 84.24 738.171 85.4933 738.171 87.12V88.12L747.931 88.08L747.611 88.44ZM769.275 101C767.275 101 765.715 100.453 764.595 99.36C763.475 98.2667 762.915 96.7467 762.915 94.8V82.92H756.835V79H762.915V72.8H767.235V79H775.835V82.92H767.235V94.8C767.235 96.32 767.968 97.08 769.435 97.08H775.435V101H769.275ZM814.804 101.4C812.164 101.4 810.057 100.64 808.484 99.12C806.91 97.5733 806.124 95.48 806.124 92.84V79H810.444V92.84C810.444 94.36 810.83 95.5467 811.604 96.4C812.377 97.2267 813.444 97.64 814.804 97.64C816.19 97.64 817.27 97.2267 818.044 96.4C818.844 95.5467 819.244 94.36 819.244 92.84V79H823.564V92.84C823.564 95.48 822.764 97.5733 821.164 99.12C819.59 100.64 817.47 101.4 814.804 101.4ZM830.188 108.2V79H834.468V83.2H835.388L834.468 84.2C834.468 82.4667 835.001 81.1067 836.068 80.12C837.161 79.1067 838.615 78.6 840.428 78.6C842.641 78.6 844.401 79.3467 845.708 80.84C847.041 82.3067 847.708 84.32 847.708 86.88V93.08C847.708 94.7867 847.401 96.2667 846.788 97.52C846.201 98.7467 845.361 99.7067 844.268 100.4C843.201 101.067 841.921 101.4 840.428 101.4C838.641 101.4 837.201 100.907 836.108 99.92C835.015 98.9067 834.468 97.5333 834.468 95.8L835.388 96.8H834.388L834.508 101.92V108.2H830.188ZM838.948 97.64C840.361 97.64 841.455 97.24 842.228 96.44C843.028 95.6133 843.428 94.4267 843.428 92.88V87.12C843.428 85.5733 843.028 84.4 842.228 83.6C841.455 82.7733 840.361 82.36 838.948 82.36C837.588 82.36 836.508 82.7867 835.708 83.64C834.908 84.4667 834.508 85.6267 834.508 87.12V92.88C834.508 94.3733 834.908 95.5467 835.708 96.4C836.508 97.2267 837.588 97.64 838.948 97.64Z" fill="black"/>
<path d="M283.123 243.965H445.629L358.931 469.347H0L283.123 243.965Z" fill="#D9D9D9"/>
<path d="M285.733 302.397H343.771L303.783 356.06H218.323L285.733 302.397Z" fill="#828282"/>
<path d="M377.723 238.748L343.77 302.398L303.782 356.06L362.869 312.832L377.723 238.748Z" fill="#616161"/>
<path d="M368.173 262.75L343.77 304.488L314.061 344.138L359.685 310.748L368.173 262.75Z" fill="#FFE39A"/>
<path d="M445.628 243.965V254.399L358.625 508.998V469.347L445.628 243.965Z" fill="#6A6A6A"/>
<rect y="469.35" width="358.625" height="39.6506" fill="#3B3B3B"/>
<path d="M1116 608.602C1116 688.131 1066.08 854.602 1004.5 854.602C942.92 854.602 962 706.631 962 627.102C962 547.573 942.92 464.602 1004.5 464.602C1066.08 464.602 1116 529.073 1116 608.602Z" fill="#2D2D2D"/>
<path d="M997 499.5C997 536.227 969.242 566 935 566C900.758 566 873 536.227 873 499.5C873 462.773 900.758 433 935 433C969.242 433 997 462.773 997 499.5Z" fill="#747474"/>
<path d="M942.953 544.126C942.953 546.431 931.836 552.474 925.976 552.474C920.116 552.474 909 546.431 909 544.126C909 541.821 920.116 544.126 925.976 544.126C931.836 544.126 942.953 541.821 942.953 544.126Z" fill="#FFF2F2"/>
<path d="M987.392 626.846L987.296 608.606H993.44C997.152 608.606 1000.06 607.614 1002.18 605.63C1004.35 603.646 1005.44 600.99 1005.44 597.662C1005.44 594.334 1004.35 591.678 1002.18 589.694C1000 587.71 997.056 586.718 993.344 586.718H980.288V577.022H993.056C997.728 577.022 1001.73 577.886 1005.06 579.614C1008.45 581.278 1011.07 583.646 1012.93 586.718C1014.78 589.79 1015.71 593.438 1015.71 597.662C1015.71 601.438 1014.91 604.798 1013.31 607.742C1011.78 610.686 1009.6 613.022 1006.78 614.75C1004.03 616.414 1000.77 617.31 996.992 617.438V626.846H987.392ZM990.752 647.582C988.896 647.582 987.392 647.038 986.24 645.95C985.088 644.798 984.512 643.326 984.512 641.534C984.512 639.742 985.088 638.302 986.24 637.214C987.392 636.062 988.896 635.486 990.752 635.486H993.632C995.552 635.486 997.056 636.062 998.144 637.214C999.232 638.302 999.776 639.71 999.776 641.438C999.776 643.23 999.2 644.702 998.048 645.854C996.896 647.006 995.392 647.582 993.536 647.582H990.752Z" fill="white"/>
<mask id="mask1_1661_329" style="mask-type:alpha" maskUnits="userSpaceOnUse" x="877" y="508" width="30" height="15">
<path d="M907 519.895C907 523.884 899.861 522.561 892.921 522.561C885.981 522.561 877 519.327 877 515.338C877 511.35 880.534 507.254 892.921 508.116C899.861 508.116 907 515.906 907 519.895Z" fill="#D9D9D9"/>
</mask>
<g mask="url(#mask1_1661_329)">
<path d="M907 519.895C907 523.884 899.861 522.561 892.921 522.561C885.981 522.561 877 519.327 877 515.338C877 511.35 880.534 507.254 892.921 508.116C899.861 508.116 907 515.906 907 519.895Z" fill="url(#paint0_radial_1661_329)"/>
<circle cx="891.827" cy="515.414" r="6.03448" fill="url(#paint1_radial_1661_329)"/>
<circle cx="891.827" cy="515.414" r="2.58621" fill="url(#paint2_radial_1661_329)"/>
</g>
<mask id="mask2_1661_329" style="mask-type:alpha" maskUnits="userSpaceOnUse" x="943" y="508" width="30" height="15">
<path d="M943 519.894C943 523.883 950.139 522.559 957.079 522.559C964.019 522.559 973 519.326 973 515.338C973 511.349 969.466 507.254 957.079 508.116C950.139 508.116 943 515.906 943 519.894Z" fill="#D9D9D9"/>
</mask>
<g mask="url(#mask2_1661_329)">
<path d="M943 519.894C943 523.883 950.139 522.559 957.079 522.559C964.019 522.559 973 519.326 973 515.338C973 511.349 969.466 507.254 957.079 508.116C950.139 508.116 943 515.906 943 519.894Z" fill="url(#paint3_radial_1661_329)"/>
<ellipse cx="6.03448" cy="6.03401" rx="6.03448" ry="6.03401" transform="matrix(-1 0 0 1 964.207 509.38)" fill="url(#paint4_radial_1661_329)"/>
<ellipse cx="2.58621" cy="2.586" rx="2.58621" ry="2.586" transform="matrix(-1 0 0 1 960.759 512.828)" fill="url(#paint5_radial_1661_329)"/>
</g>
<path d="M839.506 622.318H677L763.698 847.701H1122.63L839.506 622.318Z" fill="#D9D9D9"/>
<path d="M836.896 680.752H778.858L818.846 734.414H904.306L836.896 680.752Z" fill="#828282"/>
<path d="M744.906 617.102L778.858 680.751L818.847 734.414L759.76 691.186L744.906 617.102Z" fill="#616161"/>
<path d="M754.455 641.104L778.859 682.841L808.567 722.492L762.943 689.102L754.455 641.104Z" fill="#FFE39A"/>
<path d="M677 622.318V632.753L764.004 887.352V847.701L677 622.318Z" fill="#6A6A6A"/>
<rect width="358.626" height="39.6506" transform="matrix(-1 0 0 1 1122.63 847.703)" fill="#3B3B3B"/>
<path d="M473.026 662.159L472.583 667.14L472.583 667.14L473.026 662.159ZM417.637 309.8C415.594 311.657 415.443 314.819 417.3 316.863L447.566 350.164C449.423 352.208 452.585 352.359 454.629 350.502C456.672 348.644 456.823 345.482 454.966 343.439L428.063 313.837L457.664 286.934C459.708 285.077 459.859 281.915 458.002 279.871C456.144 277.828 452.982 277.677 450.939 279.534L417.637 309.8ZM747.739 329.104L747.977 324.11L747.977 324.11L747.739 329.104ZM762.115 427.533L763.772 432.25L763.772 432.25L762.115 427.533ZM457.066 534.68L458.723 539.398L458.723 539.398L457.066 534.68ZM780.145 342.908L776.709 346.54L776.709 346.54L780.145 342.908ZM420.786 627.493L416.369 629.836L416.369 629.836L420.786 627.493ZM472.583 667.14L712.557 688.48L713.443 678.52L473.468 657.179L472.583 667.14ZM420.761 318.494L747.5 334.098L747.977 324.11L421.238 308.506L420.761 318.494ZM760.458 422.815L455.409 529.963L458.723 539.398L763.772 432.25L760.458 422.815ZM776.709 346.54C801.546 370.034 792.714 411.485 760.458 422.815L763.772 432.25C803.091 418.439 813.856 367.913 783.581 339.275L776.709 346.54ZM425.203 625.15C407.792 592.33 423.671 551.71 458.723 539.398L455.409 529.963C414.584 544.303 396.091 591.612 416.369 629.836L425.203 625.15ZM747.5 334.098C758.411 334.619 768.774 339.033 776.709 346.54L783.581 339.275C773.908 330.125 761.277 324.745 747.977 324.11L747.5 334.098ZM473.468 657.179C452.996 655.358 434.835 643.306 425.203 625.15L416.369 629.836C427.587 650.982 448.739 665.019 472.583 667.14L473.468 657.179Z" fill="black"/>
<defs>
<filter id="filter0_d_1661_329" x="108.468" y="185.535" width="114.102" height="110.738" filterUnits="userSpaceOnUse" color-interpolation-filters="sRGB">
<feFlood flood-opacity="0" result="BackgroundImageFix"/>
<feColorMatrix in="SourceAlpha" type="matrix" values="0 0 0 0 0 0 0 0 0 0 0 0 0 0 0 0 0 0 127 0" result="hardAlpha"/>
<feOffset dy="4"/>
<feGaussianBlur stdDeviation="2"/>
<feComposite in2="hardAlpha" operator="out"/>
<feColorMatrix type="matrix" values="0 0 0 0 0 0 0 0 0 0 0 0 0 0 0 0 0 0 0.25 0"/>
<feBlend mode="normal" in2="BackgroundImageFix" result="effect1_dropShadow_1661_329"/>
<feBlend mode="normal" in="SourceGraphic" in2="effect1_dropShadow_1661_329" result="shape"/>
</filter>
<radialGradient id="paint0_radial_1661_329" cx="0" cy="0" r="1" gradientUnits="userSpaceOnUse" gradientTransform="translate(892 515.386) rotate(30.4586) scale(15.7013 21.296)">
<stop stop-color="white"/>
<stop offset="0.245833" stop-color="white"/>
<stop offset="0.771875" stop-color="#F6D1D1"/>
<stop offset="0.980208" stop-color="#DC4646"/>
</radialGradient>
<radialGradient id="paint1_radial_1661_329" cx="0" cy="0" r="1" gradientUnits="userSpaceOnUse" gradientTransform="translate(891.827 515.414) rotate(90) scale(6.03448)">
<stop stop-color="#2E0F06"/>
<stop offset="0.620833" stop-color="#A44F1F"/>
<stop offset="1" stop-color="#A3410A"/>
</radialGradient>
<radialGradient id="paint2_radial_1661_329" cx="0" cy="0" r="1" gradientUnits="userSpaceOnUse" gradientTransform="translate(891.827 515.414) rotate(90) scale(2.58621)">
<stop/>
<stop offset="1" stop-opacity="0.17"/>
</radialGradient>
<radialGradient id="paint3_radial_1661_329" cx="0" cy="0" r="1" gradientUnits="userSpaceOnUse" gradientTransform="translate(958 515.385) rotate(149.543) scale(15.701 21.2947)">
<stop stop-color="white"/>
<stop offset="0.245833" stop-color="white"/>
<stop offset="0.771875" stop-color="#F6D1D1"/>
<stop offset="0.980208" stop-color="#DC4646"/>
</radialGradient>
<radialGradient id="paint4_radial_1661_329" cx="0" cy="0" r="1" gradientUnits="userSpaceOnUse" gradientTransform="translate(6.03448 6.03401) rotate(90) scale(6.03401 6.03448)">
<stop stop-color="#2E0F06"/>
<stop offset="0.620833" stop-color="#A44F1F"/>
<stop offset="1" stop-color="#A3410A"/>
</radialGradient>
<radialGradient id="paint5_radial_1661_329" cx="0" cy="0" r="1" gradientUnits="userSpaceOnUse" gradientTransform="translate(2.58621 2.586) rotate(90) scale(2.586 2.58621)">
<stop/>
<stop offset="1" stop-opacity="0.17"/>
</radialGradient>
</defs>
</svg>
