<svg width="599" height="264" viewBox="0 0 599 264" fill="none" xmlns="http://www.w3.org/2000/svg">
<ellipse cx="63.5" cy="25" rx="24.5" ry="25" fill="#D54949"/>
<rect x="32" y="47" width="64" height="162" rx="20" fill="#D54949"/>
<ellipse cx="131.5" cy="25" rx="24.5" ry="25" fill="#94AE2E"/>
<rect x="100" y="47" width="64" height="162" rx="20" fill="#94AE2E"/>
<ellipse cx="199.5" cy="25" rx="24.5" ry="25" fill="#8A69E6"/>
<rect x="168" y="47" width="64" height="162" rx="20" fill="#8A69E6"/>
<ellipse cx="266.5" cy="25" rx="24.5" ry="25" fill="#EE63E9"/>
<rect x="235" y="47" width="64" height="162" rx="20" fill="#EE63E9"/>
<ellipse cx="31.5" cy="80" rx="24.5" ry="25" fill="#B2E58A"/>
<rect y="102" width="64" height="162" rx="20" fill="#B2E58A"/>
<ellipse cx="97.5" cy="80" rx="24.5" ry="25" fill="#5D0808"/>
<rect x="66" y="102" width="64" height="162" rx="20" fill="#5D0808"/>
<ellipse cx="163.5" cy="80" rx="24.5" ry="25" fill="#B96528"/>
<rect x="132" y="102" width="64" height="162" rx="20" fill="#B96528"/>
<ellipse cx="229.5" cy="80" rx="24.5" ry="25" fill="#F6D941"/>
<rect x="198" y="102" width="64" height="162" rx="20" fill="#F6D941"/>
<ellipse cx="295.5" cy="80" rx="24.5" ry="25" fill="#9A5286"/>
<rect x="264" y="102" width="64" height="162" rx="20" fill="#9A5286"/>
<ellipse cx="559.5" cy="80" rx="24.5" ry="25" fill="#7F7F7F"/>
<rect x="528" y="102" width="64" height="162" rx="20" fill="#7F7F7F"/>
<path d="M574.919 53.2043C569.877 51.7114 568.15 50.9163 562.581 50.6165C557.716 50.3546 545.796 50.4746 548.499 54.5283C550.619 57.7095 560.254 57.3538 558.489 63.3752C557.018 68.3921 548.529 74.4064 543.172 73.0947C542.444 72.9162 541.661 71.7744 542.059 71.1387C544.01 68.026 553.396 66.7701 554.938 66.4445C559.115 65.5624 563.351 64.971 567.516 64.0372C572.25 62.976 584.742 60.6507 580.726 57.9287C577.623 55.8249 573.549 55.701 569.863 55.0098C567.273 54.524 542.278 51.5553 537.666 49.7739C529.431 46.5934 555.164 45.9991 563.965 46.6745C571.185 47.2285 576.571 48.4545 583.525 49.7739C586.427 50.3246 595.766 50.6982 596.524 55.4913C597.579 62.16 587.339 63.2994 583.525 63.2849C575.862 63.2558 569.216 59.6565 561.739 58.9217C557.156 58.4713 550.81 59.0122 547.837 63.1645C546.498 65.0339 548.354 67.4741 545.489 68.0092C539.999 69.0349 532.964 68.3612 528.337 65.6621" stroke="#F2E3DB" stroke-width="3" stroke-linecap="round"/>
</svg>
