<svg width="237" height="240" viewBox="0 0 237 240" fill="none" xmlns="http://www.w3.org/2000/svg">
<rect x="57.074" y="114" width="60" height="110" transform="rotate(27.0789 57.074 114)" fill="#F99191"/>
<rect y="98.4766" width="24" height="48.7053" transform="rotate(-15.6565 0 98.4766)" fill="#F99191"/>
<rect x="45.176" y="33.0684" width="16.8272" height="68.7444" transform="rotate(-1.90828 45.176 33.0684)" fill="#F99191"/>
<rect x="106.727" y="27.9336" width="16.8272" height="79.486" transform="rotate(20.4153 106.727 27.9336)" fill="#F99191"/>
<rect x="140.616" y="73" width="16.8272" height="68.7444" transform="rotate(37.2558 140.616 73)" fill="#F99191"/>
<rect x="148.39" y="122" width="16.8272" height="45.5242" transform="rotate(57.4879 148.39 122)" fill="#F99191"/>
<line x1="30.2403" y1="202.829" x2="65.2403" y2="222.829" stroke="#540303" stroke-width="5"/>
<line x1="36.5617" y1="175.048" x2="71.5617" y2="203.048" stroke="#540303" stroke-width="5"/>
<line x1="46" y1="164.5" x2="83" y2="164.5" stroke="#540303" stroke-width="5"/>
<path d="M29 127L42.5 144.5L48 100H64L66.5 120L81.5 100L96 105.5L88 131.5L100 127L112 137.5L106 149.5L110 147L119.5 161L95 169L88 161L54 152L29 168.5L13.5 144.5L29 127Z" fill="#F99191"/>
<path d="M122.864 51.9165C121.046 41.7558 120.183 25.9583 120.183 25.9583L117.502 0.000112667L141.119 41.5369L204.302 152.661L195.174 157.851L186.046 163.041C186.046 163.041 131.401 99.6446 122.864 51.9165Z" fill="#7D7D7D"/>
<rect x="189" y="154.026" width="14.4854" height="64" transform="rotate(-33.6502 189 154.026)" fill="#99815C"/>
</svg>
