<svg width="143" height="154" viewBox="0 0 143 154" fill="none" xmlns="http://www.w3.org/2000/svg">
<path d="M64.1584 40.3946C64.1584 46.1018 33.5613 87.1217 28.0822 87.1217C8.6915 79.4836 44.3166 46.1018 44.3166 40.3946C44.3166 34.6873 48.7583 30.0607 54.2375 30.0607C59.7166 30.0607 64.1584 34.6873 64.1584 40.3946Z" fill="#2B2459"/>
<path d="M20.4164 87.1564C4.05851 83.1198 14.7091 21.7153 16.6852 16.6237C30.829 1.3591 22.23 66.6594 27.5727 68.7178C32.9153 70.7762 35.6444 76.5725 33.6683 81.6642C31.6921 86.7558 25.759 89.2148 20.4164 87.1564Z" fill="#2B2459"/>
<path d="M81.6672 101.991C81.6672 110.924 33.7075 142.877 22.9982 142.877C12.289 142.877 47.8005 103.286 47.8005 94.3527C47.8005 85.4196 63.6972 87.164 74.4065 87.164C85.1157 87.164 81.6672 93.0577 81.6672 101.991Z" fill="#2B2459"/>
<path d="M50.5063 148.268C43.9338 154.344 29.3968 148.821 22.1127 140.999C19.3907 118.615 68.1117 132.185 74.6842 126.109C98.0698 114.122 90.7857 132.83 98.0698 140.652C105.354 148.474 57.0788 142.192 50.5063 148.268Z" fill="#2B2459"/>
<path d="M37.8798 34.1491C37.8798 32.9532 38.0152 31.7612 38.2832 30.5958L38.7782 28.4437C40.8405 19.4777 50.7848 14.8424 58.9775 19.0284V19.0284C59.9408 19.5206 60.8445 20.1219 61.6707 20.8203L72.3101 29.8146C74.3006 31.4974 76.0634 33.4324 77.5538 35.5708L85.1506 46.4702C86.1035 47.8372 86.9407 49.2813 87.6538 50.7874L94.9709 66.2429C96.8707 70.2557 97.8561 74.6401 97.8561 79.0799V89.0503C97.8561 96.7786 94.8736 104.209 89.5303 109.792L79.3672 120.412L101.789 115.317C103.97 114.821 106.2 114.571 108.437 114.571H111.005C118.957 114.571 126.493 118.12 131.559 124.248L136.844 130.642C140.288 134.81 140.979 140.606 138.61 145.466V145.466C136.3 150.205 131.489 153.211 126.218 153.211H114.905C114.094 153.211 113.317 152.89 112.743 152.318V152.318C111.51 151.089 111.547 149.081 112.825 147.899L115.792 145.154C116.421 144.572 116.728 143.719 116.615 142.869V142.869C116.323 140.687 113.644 139.803 112.11 141.382L104.792 148.916C103.249 150.504 101.099 151.356 98.8873 151.254L73.0539 150.066H42.4427C40.6609 150.066 38.9365 149.436 37.5742 148.287V148.287C35.292 146.364 34.357 143.276 35.1882 140.409L38.384 129.387C39.2431 126.424 40.6388 123.644 42.5015 121.185L52.9455 107.397C55.6815 103.786 55.3282 98.7076 52.1182 95.5094V95.5094C50.2373 93.6354 49.2732 91.0305 49.4807 88.3834L50.5657 74.5471C51.1042 67.6794 48.8288 60.8877 44.2616 55.7305V55.7305C40.1499 51.0876 37.8798 45.1003 37.8798 38.8985V34.1491Z" fill="#575084"/>
<ellipse cx="22.5475" cy="22.4649" rx="22.5475" ry="22.4649" fill="#575084"/>
<path d="M73.0537 43.133C73.0537 48.8402 42.4566 89.8601 36.9775 89.8601C17.5868 82.222 53.2119 48.8402 53.2119 43.133C53.2119 37.4257 57.6537 32.7991 63.1328 32.7991C68.6119 32.7991 73.0537 37.4257 73.0537 43.133Z" fill="#746D9D"/>
<path d="M29.3117 89.8948C23.969 87.8364 9.74839 23.5131 11.7245 18.4215C25.8683 3.15691 31.1253 69.3978 36.468 71.4562C41.8106 73.5146 44.5397 79.3109 42.5636 84.4026C40.5874 89.4942 34.6544 91.9532 29.3117 89.8948Z" fill="#746D9D"/>
</svg>
