<svg width="218" height="183" viewBox="0 0 218 183" fill="none" xmlns="http://www.w3.org/2000/svg">
<circle cx="105.705" cy="99.8545" r="82.5" fill="black"/>
<ellipse cx="61.7046" cy="99.8545" rx="13.5" ry="18.5" fill="white"/>
<ellipse cx="151.705" cy="99.8545" rx="13.5" ry="18.5" fill="white"/>
<path d="M34.7332 23.4855C31.0334 36.4911 23.2643 47.9449 17.4937 60.074C15.8892 63.4465 11.2445 70.502 14.9478 70.9851C17.835 71.3617 27.5865 63.3389 27.8229 63.1291C34.0985 57.5597 41.4544 49.1027 46.1535 42.2526C48.6736 38.5789 55.4718 27.4414 55.7553 21.8852C56.6053 5.22433 16.3868 25.2176 19.6032 30.1049C21.3537 32.7647 25.4005 32.9847 28.5503 33.451C36.2279 34.5874 44.0352 34.5755 51.7909 34.8694C65.0743 35.3727 94.5106 35.3874 108.565 36.3969C118.497 37.1104 125.594 36.1045 116.821 41.8161C113.629 43.8945 109.742 44.901 106.819 47.3444C99.1907 53.7222 105.448 55.762 113.366 55.2731C124.976 54.5562 144.887 48.3625 154.319 41.8889C164.041 35.2157 168.738 27.1095 156.064 19.6303C143.62 12.2859 112.387 7.25024 99.6906 5.80955C90.2714 4.74075 80.7647 4.35545 71.2854 4.42748C64.7735 4.47696 58.113 4.47106 51.8273 6.17325C49.1843 6.88898 45.5593 8.67306 45.4988 11.4106C45.4254 14.7317 48.7043 17.603 51.5363 19.3393C58.4047 23.5504 66.095 26.3885 73.7949 28.7592C100.159 36.8764 122.508 39.3512 150.136 41.6706C163.672 42.807 192.63 44.3981 208.583 42.98C218.877 42.0649 218.398 40.0435 208.801 36.9789C194.126 32.2928 178.19 30.5101 162.902 30.3231C154.133 30.2159 145.235 30.1723 136.643 31.9234C132.196 32.8296 125.979 33.8415 124.531 38.1427C123.339 41.6869 128.382 44.9711 131.624 46.8352C138.788 50.9547 146.959 53.0399 154.828 55.5641C163.078 58.2104 171.484 60.3703 179.923 62.329C183.007 63.0445 201.216 67.4917 207.201 64.8021C212.275 62.522 214.773 52.5545 213.966 48.29C211.867 37.1986 202.936 28.6599 193.235 23.9219C179.521 17.2243 162.751 16.3986 147.99 15.3386C126.179 13.7722 105.643 12.8159 84.2696 7.7008C76.602 5.86583 65.3675 1.62233 56.9191 2.02704C47.0172 2.50138 39.6146 6.87501 31.0962 11.4833C20.9432 16.9759 10.7159 23.0604 2 30.6868" stroke="#888888" stroke-width="3" stroke-linecap="round"/>
<path d="M41.9345 49.0169C36.0644 52.6108 30.3677 58.7106 25.677 63.3831C23.9225 65.1308 -1.67098 88.5179 15.6388 87.7876C32.253 87.0866 48.9363 76.4039 62.8838 68.6568C83.5093 57.2005 103.225 42.5221 128.205 45.3798C132.333 45.8521 136.313 47.2691 140.243 48.6168C140.475 48.6962 150.803 54.0692 153.409 53.4177C157.715 52.3413 159.567 45.3284 159.992 42.3247C161.225 33.6279 160.402 27.9689 151.445 23.2303C132.666 13.2944 107.029 18.2152 87.2519 21.0118C80.2148 22.0068 72.063 23.0756 65.5025 26.1036" stroke="#888888" stroke-width="3" stroke-linecap="round"/>
<path d="M52.4092 53.5997C54.0634 49.4155 56.1329 45.3705 58.0466 41.3066C59.1533 38.9563 60.1975 36.5758 61.3563 34.2507C62.1873 32.5833 63.6948 28.4229 64.8478 29.8863C69.696 36.0397 68.1774 42.388 78.7049 43.6343C83.6022 44.214 88.5964 43.2061 93.4348 42.2522C100.93 40.7746 118.752 33.5069 127.623 35.5601C131.316 36.4148 134.227 39.6727 136.425 42.7614C139.145 46.5844 140.7 59.4302 147.226 61.7103C156.82 65.0618 174.107 51.4653 172.795 41.3066C170.795 25.8297 138.033 23.4031 128.278 21.5575C118.49 19.7058 108.73 18.3442 98.8904 16.9385" stroke="#888888" stroke-width="3" stroke-linecap="round"/>
<ellipse cx="61.2046" cy="99.8545" rx="4" ry="5.5" fill="black"/>
<ellipse cx="151.205" cy="99.8545" rx="4" ry="5.5" fill="black"/>
<path d="M68.5065 135C68.5065 147.703 69.2385 158 61.5065 158C53.7745 158 55.0066 147.703 55.0066 135C55.0066 122.297 47.5065 112 61.5065 112C75.5065 112 68.5065 122.297 68.5065 135Z" fill="#6C56F0" fill-opacity="0.7"/>
<path d="M158.507 135C158.507 147.703 159.239 158 151.507 158C143.775 158 145.007 147.703 145.007 135C145.007 122.297 137.507 112 151.507 112C165.507 112 158.507 122.297 158.507 135Z" fill="#6C56F0" fill-opacity="0.7"/>
</svg>
