<svg width="157" height="157" viewBox="0 0 157 157" fill="none" xmlns="http://www.w3.org/2000/svg">
<circle cx="78.5" cy="78.5" r="78.5" fill="#646464"/>
<path d="M58.7745 70.0467C58.7745 81.1632 51.5651 90.1749 42.6719 90.1749C33.7787 90.1749 26.5693 81.1632 26.5693 70.0467C34.2181 66.4237 35.4257 62.3994 42.6719 53.1404C45.4898 29.7915 58.7745 58.9302 58.7745 70.0467Z" fill="#D9D9D9"/>
<path d="M97.4206 70.0297C97.4206 81.1548 104.63 90.1736 113.523 90.1736C122.416 90.1736 129.626 81.1548 129.626 70.0297C121.977 66.4038 120.769 62.3763 113.523 53.1102C110.705 29.743 97.4206 58.9045 97.4206 70.0297Z" fill="#D9D9D9"/>
<path d="M63.3063 104.302C65.1752 102.472 67.6865 101.447 70.302 101.447H86.698C89.3135 101.447 91.8249 102.472 93.6938 104.302L108.609 118.904C112.613 122.824 109.838 129.627 104.235 129.627V129.627C103.456 129.627 102.684 129.481 101.959 129.198L81.1177 121.057C78.6668 120.1 75.9373 120.147 73.5209 121.188L55.1206 129.119C54.3441 129.454 53.5075 129.627 52.6619 129.627V129.627C47.0963 129.627 44.3396 122.87 48.3166 118.977L63.3063 104.302Z" fill="#D9D9D9"/>
</svg>
