<svg width="1050" height="825" viewBox="0 0 1050 825" fill="none" xmlns="http://www.w3.org/2000/svg">
<path d="M912.437 388.152L865.66 341.375C848.995 324.71 874.197 299.457 890.887 316.148L937.664 362.926C954.33 379.59 929.124 404.84 912.437 388.152Z" fill="#19661C"/>
<path d="M976.949 268.08H910.795C887.223 268.08 887.199 232.403 910.795 232.403H976.949C1000.52 232.402 1000.55 268.08 976.949 268.08Z" fill="#19661C"/>
<path d="M865.659 159.111L912.436 112.334C929.103 95.6651 954.348 120.876 937.663 137.56L890.886 184.339C874.218 201.007 848.974 175.796 865.659 159.111Z" fill="#19661C"/>
<path d="M912.757 427.195C895.127 409.565 895.127 380.878 912.757 363.249C930.387 345.619 959.074 345.618 976.703 363.249C994.333 380.879 994.333 409.565 976.703 427.195C959.075 444.822 930.388 444.826 912.757 427.195Z" fill="#48AC25"/>
<path d="M1004.78 295.461C979.847 295.461 959.564 275.178 959.564 250.244C959.564 225.311 979.847 205.027 1004.78 205.027C1029.71 205.027 1050 225.311 1050 250.244C1050 275.178 1029.71 295.461 1004.78 295.461Z" fill="#48AC25"/>
<path d="M912.757 137.242C895.127 119.612 895.127 90.9266 912.757 73.2961C930.387 55.6666 959.074 55.6646 976.703 73.2961C994.333 90.9266 994.333 119.612 976.703 137.242C959.075 154.872 930.387 154.874 912.757 137.242Z" fill="#48AC25"/>
<path d="M799.754 157.043C789.902 157.043 781.915 149.055 781.915 139.204V73.0513C781.915 49.4795 817.591 49.455 817.591 73.0513V139.206C817.592 149.057 809.605 157.043 799.754 157.043Z" fill="#48AC25"/>
<path d="M799.754 55.2119V157.043C809.606 157.043 817.593 149.056 817.593 139.204V73.0506C817.593 63.1982 809.606 55.2119 799.754 55.2119Z" fill="#19661C"/>
<path d="M781.916 427.439V361.285C781.916 337.713 817.592 337.688 817.592 361.285V427.439C817.593 451.011 781.916 451.035 781.916 427.439Z" fill="#48AC25"/>
<path d="M799.754 343.446V445.277C809.606 445.277 817.593 437.29 817.593 427.438V361.284C817.593 351.433 809.606 343.446 799.754 343.446Z" fill="#19661C"/>
<path d="M708.622 184.34L661.845 137.562C645.18 120.897 670.383 95.6451 687.072 112.335L733.849 159.112C750.515 175.778 725.309 201.028 708.622 184.34Z" fill="#48AC25"/>
<path d="M688.715 268.083H622.56C598.988 268.083 598.964 232.406 622.56 232.406H688.715C712.285 232.405 712.31 268.083 688.715 268.083Z" fill="#48AC25"/>
<path d="M661.845 362.927L708.622 316.149C725.289 299.479 750.534 324.691 733.849 341.375L687.072 388.152C670.542 404.684 644.948 379.825 661.845 362.927Z" fill="#48AC25"/>
<path d="M799.754 90.434C774.822 90.434 754.537 70.1496 754.537 45.217C754.537 20.2835 774.821 0 799.754 0C824.687 0 844.971 20.2835 844.971 45.217C844.971 70.1486 824.687 90.434 799.754 90.434Z" fill="#98E87D"/>
<path d="M799.754 500.49C774.822 500.49 754.537 480.206 754.537 455.273C754.537 430.34 774.822 410.056 799.754 410.056C824.687 410.056 844.971 430.34 844.971 455.273C844.971 480.205 824.687 500.49 799.754 500.49Z" fill="#98E87D"/>
<path d="M799.754 410.056V500.49C824.687 500.49 844.971 480.206 844.971 455.273C844.971 430.341 824.687 410.056 799.754 410.056Z" fill="#48AC25"/>
<path d="M622.804 137.238C605.133 119.568 605.131 90.9656 622.804 73.2921C640.434 55.6645 669.121 55.6616 686.75 73.2921C704.38 90.9226 704.381 119.608 686.751 137.238C669.123 154.868 640.436 154.87 622.804 137.238Z" fill="#98E87D"/>
<path d="M594.726 295.458C569.794 295.458 549.509 275.175 549.509 250.242C549.509 225.31 569.794 205.025 594.726 205.025C619.659 205.025 639.941 225.309 639.941 250.242C639.941 275.176 619.658 295.458 594.726 295.458Z" fill="#98E87D"/>
<path d="M622.805 427.192C605.133 409.522 605.13 380.918 622.805 363.246C640.434 345.616 669.121 345.615 686.751 363.246C704.38 380.876 704.38 409.562 686.752 427.192C669.124 444.819 640.436 444.823 622.805 427.192Z" fill="#98E87D"/>
<path d="M799.754 379.122C728.69 379.122 670.875 321.307 670.875 250.243C670.875 179.18 728.69 121.364 799.754 121.364C870.817 121.364 928.633 179.18 928.633 250.243C928.633 321.307 870.817 379.122 799.754 379.122Z" fill="#98E87D"/>
<path d="M799.754 0V90.434C824.687 90.434 844.971 70.1496 844.971 45.217C844.971 20.2845 824.687 0 799.754 0Z" fill="#48AC25"/>
<path d="M799.754 121.365V379.125C870.818 379.125 928.633 321.309 928.633 250.246C928.633 179.182 870.818 121.365 799.754 121.365Z" fill="#48AC25"/>
<path d="M799.755 307.865C767.982 307.865 742.133 282.016 742.133 250.244C742.133 218.472 767.982 192.622 799.755 192.622C831.527 192.622 857.376 218.472 857.376 250.244C857.376 282.016 831.527 307.865 799.755 307.865Z" fill="#48AC25"/>
<path d="M799.754 192.622V307.865C831.527 307.865 857.376 282.016 857.376 250.244C857.376 218.472 831.527 192.622 799.754 192.622Z" fill="#19661C"/>
<path d="M299.743 705.849L276.569 659.064C268.313 642.397 293.532 629.873 301.8 646.566L324.974 693.352C333.231 710.019 308.01 722.54 299.743 705.849Z" fill="#19661C"/>
<path d="M378.288 632.344L328.819 615.648C311.192 609.699 320.178 583.015 337.823 588.97L387.292 605.666C404.919 611.614 395.933 638.299 378.288 632.344Z" fill="#19661C"/>
<path d="M322.567 522.77L369.352 499.596C386.022 491.338 398.537 516.562 381.849 524.827L335.064 548.002C318.394 556.26 305.879 531.036 322.567 522.77Z" fill="#19661C"/>
<path d="M290.131 735.128C281.397 717.495 288.637 696.043 306.27 687.31C323.903 678.576 345.354 685.815 354.088 703.448C362.821 721.081 355.582 742.532 337.949 751.266C320.318 759.998 298.866 752.761 290.131 735.128Z" fill="#48AC25"/>
<path d="M392.191 659.843C373.547 653.55 363.498 633.263 369.791 614.618C376.084 595.973 396.37 585.925 415.015 592.217C433.659 598.509 443.708 618.796 437.416 637.441C431.123 656.086 410.836 666.135 392.191 659.843Z" fill="#48AC25"/>
<path d="M363.308 518.303C354.574 500.67 361.814 479.219 379.446 470.485C397.079 461.751 418.531 468.989 427.265 486.623C435.998 504.256 428.759 525.707 411.126 534.441C393.494 543.175 372.042 535.937 363.308 518.303Z" fill="#48AC25"/>
<path d="M273.809 504.59C266.442 502.104 262.485 494.115 264.971 486.749L281.666 437.281C287.615 419.654 314.3 428.639 308.345 446.284L291.649 495.754C289.164 503.121 281.175 507.077 273.809 504.59Z" fill="#48AC25"/>
<path d="M299.507 428.44L273.808 504.588C281.175 507.075 289.163 503.118 291.649 495.751L308.345 446.282C310.831 438.915 306.874 430.927 299.507 428.44Z" fill="#19661C"/>
<path d="M192.226 702.286L208.922 652.817C214.871 635.19 241.555 644.176 235.6 661.821L218.904 711.29C212.956 728.917 186.271 719.931 192.226 702.286Z" fill="#48AC25"/>
<path d="M226.764 643.98L201.065 720.128C208.431 722.615 216.42 718.658 218.906 711.291L235.602 661.821C238.088 654.455 234.131 646.467 226.764 643.98Z" fill="#19661C"/>
<path d="M198.77 502.005L175.597 455.219C167.341 438.552 192.56 426.029 200.827 442.721L224.001 489.506C232.259 506.175 207.037 518.695 198.77 502.005Z" fill="#48AC25"/>
<path d="M162.748 559.602L113.278 542.906C95.6515 536.957 104.637 510.273 122.282 516.228L171.752 532.923C189.378 538.871 180.392 565.557 162.748 559.602Z" fill="#48AC25"/>
<path d="M118.721 623.744L165.506 600.569C182.176 592.31 194.691 617.535 178.003 625.8L131.218 648.974C114.685 657.165 101.82 632.116 118.721 623.744Z" fill="#48AC25"/>
<path d="M290.617 454.782C271.973 448.49 261.924 428.202 268.216 409.558C274.509 390.913 294.796 380.864 313.441 387.157C332.085 393.449 342.134 413.736 335.842 432.381C329.55 451.025 309.262 461.075 290.617 454.782Z" fill="#98E87D"/>
<path d="M187.13 761.416C168.486 755.124 158.436 734.837 164.729 716.192C171.021 697.547 191.309 687.498 209.953 693.791C228.598 700.083 238.647 720.371 232.354 739.015C226.062 757.659 205.774 767.708 187.13 761.416Z" fill="#98E87D"/>
<path d="M209.954 693.787L187.13 761.413C205.775 767.705 226.062 757.657 232.355 739.012C238.647 720.368 228.598 700.079 209.954 693.787Z" fill="#48AC25"/>
<path d="M146.484 445.124C137.729 427.45 144.946 406.061 162.622 397.305C180.254 388.573 201.707 395.811 210.44 413.444C219.174 431.077 211.935 452.528 194.303 461.262C176.671 469.996 155.218 462.758 146.484 445.124Z" fill="#98E87D"/>
<path d="M85.5576 556.353C66.9133 550.06 56.8639 529.773 63.1562 511.129C69.4486 492.485 89.7364 482.436 108.381 488.728C127.025 495.02 137.073 515.307 130.78 533.952C124.488 552.597 104.201 562.645 85.5576 556.353Z" fill="#98E87D"/>
<path d="M73.3069 661.948C64.5519 644.274 71.7685 622.884 89.4453 614.129C107.078 605.395 128.53 612.635 137.264 630.268C145.997 647.901 138.758 669.351 121.126 678.086C103.496 686.818 82.042 679.581 73.3069 661.948Z" fill="#98E87D"/>
<path d="M217.761 670.661C164.62 652.726 135.978 594.901 153.913 541.761C171.847 488.62 229.672 459.978 282.813 477.913C335.953 495.847 364.595 553.672 346.661 606.812C328.726 659.953 270.901 688.595 217.761 670.661Z" fill="#98E87D"/>
<path d="M313.441 387.156L290.618 454.782C309.262 461.074 329.55 451.025 335.842 432.381C342.135 413.736 332.086 393.449 313.441 387.156Z" fill="#48AC25"/>
<path d="M282.812 477.91L217.759 670.66C270.9 688.594 328.725 659.952 346.659 606.811C364.594 553.671 335.952 495.845 282.812 477.91Z" fill="#48AC25"/>
<path d="M235.743 617.373C211.984 609.355 199.178 583.501 207.196 559.742C215.215 535.983 241.069 523.177 264.828 531.196C288.587 539.214 301.393 565.068 293.374 588.827C285.356 612.586 259.502 625.392 235.743 617.373Z" fill="#48AC25"/>
<path d="M264.827 531.197L235.743 617.375C259.502 625.393 285.355 612.587 293.374 588.828C301.392 565.069 288.586 539.216 264.827 531.197Z" fill="#19661C"/>
<path d="M605.994 444.299C605.994 535.464 532.09 609.368 440.925 609.368C349.761 609.368 275.857 535.464 275.857 444.299C275.857 353.134 349.761 279.23 440.925 279.23C532.09 279.23 605.994 353.134 605.994 444.299ZM325.377 444.299C325.377 508.114 377.11 559.847 440.925 559.847C504.741 559.847 556.473 508.114 556.473 444.299C556.473 380.484 504.741 328.751 440.925 328.751C377.11 328.751 325.377 380.484 325.377 444.299Z" fill="#1A91FF"/>
<path d="M792.425 444.299C792.425 535.464 718.521 609.368 627.357 609.368C536.192 609.368 462.288 535.464 462.288 444.299C462.288 353.134 536.192 279.23 627.357 279.23C718.521 279.23 792.425 353.134 792.425 444.299ZM511.809 444.299C511.809 508.114 563.541 559.847 627.357 559.847C691.172 559.847 742.905 508.114 742.905 444.299C742.905 380.484 691.172 328.751 627.357 328.751C563.541 328.751 511.809 380.484 511.809 444.299Z" fill="#C92222"/>
<path d="M597.936 495.242C609.163 460.64 608.645 423.299 596.464 389.023C584.282 354.746 561.119 325.453 530.574 305.696C500.03 285.94 463.814 276.827 427.557 279.773C391.299 282.719 357.03 297.56 330.076 321.988C303.121 346.417 284.991 379.065 278.503 414.859C272.016 450.653 277.533 487.588 294.199 519.923C310.865 552.258 337.745 578.182 370.662 593.666C403.579 609.151 440.689 613.328 476.224 605.549L465.635 557.174C440.76 562.619 414.783 559.695 391.741 548.856C368.699 538.017 349.883 519.87 338.217 497.236C326.551 474.601 322.689 448.747 327.23 423.691C331.772 398.635 344.462 375.782 363.331 358.681C382.199 341.581 406.187 331.193 431.567 329.131C456.948 327.068 482.298 333.448 503.68 347.277C525.061 361.107 541.275 381.612 549.802 405.606C558.329 429.599 558.692 455.738 550.833 479.959L597.936 495.242Z" fill="#1A91FF"/>
<rect x="213.759" y="281.631" width="58.2595" height="138.075" transform="rotate(-45 213.759 281.631)" fill="#1A91FF"/>
<rect x="712.803" y="562.204" width="58.2595" height="187.69" transform="rotate(-45 712.803 562.204)" fill="#C92222"/>
<path d="M155.555 182.231L293.638 219.23L192.554 320.314L155.555 182.231Z" fill="#1A91FF"/>
<rect x="845.207" y="551.105" width="58.2595" height="144.678" transform="rotate(45 845.207 551.105)" fill="#C92222"/>
</svg>
