<svg width="828" height="1066" viewBox="0 0 828 1066" fill="none" xmlns="http://www.w3.org/2000/svg">
<g filter="url(#filter0_dddd_1670_1035)">
<path d="M278.308 275.66L209.251 80.4458C218.293 77.2524 223.031 67.3424 219.82 58.3001L208.244 25.5677C205.051 16.5254 195.123 11.8048 186.098 14.9982L128.443 35.252L221.035 295.932C221.972 295.585 277.978 274.723 278.308 275.66Z" fill="#4D4D4D"/>
<path d="M166.95 315.972L96.1927 121.32C87.1813 124.6 77.2242 119.957 73.9561 110.933L62.0896 78.2966C58.8081 69.2838 63.4727 59.3298 72.4708 56.0615L129.861 35.0689L224.056 295.236C223.112 295.563 166.609 315.039 166.95 315.972Z" fill="#4D4D4D"/>
<path d="M179.278 567.718L158.903 510.601C150.972 488.195 150.434 463.568 158.851 441.353C174.974 398.797 175.13 348.275 175.13 348.275L289.659 307.768C289.659 307.768 321.541 346.974 360.834 369.918C381.349 381.893 396.413 401.401 404.345 423.789L424.408 481.01C435.689 534.795 212.254 618.258 179.278 567.718ZM572.346 899.278C572.346 899.278 492.511 673.275 492.424 673.361C499.678 731.572 276.591 808.526 247.676 760.555C247.572 760.59 327.217 985.969 327.217 985.969C349.519 1036.72 587.063 953.323 572.346 899.278Z" fill="#644638"/>
<path d="M249.585 580.859C212.913 585.909 185.404 581.64 179.278 567.721L247.277 759.968C253.386 773.869 280.825 778.156 317.428 773.141L249.585 580.859Z" fill="#EFEAE0"/>
<path d="M492.405 673.274C492.405 673.274 424.58 480.958 424.406 481.027C433.344 513.881 334.158 569.245 249.602 580.926L317.41 773.103C403.232 761.354 501.256 705.816 492.405 673.274Z" fill="#EFEAE0"/>
<rect x="152.867" y="310.853" width="147.435" height="48.9469" rx="24.4735" transform="rotate(-18.246 152.867 310.853)" fill="#F7BD2A"/>
</g>
<g filter="url(#filter1_dddd_1670_1035)">
<path d="M19.8911 1045.73C13.3722 1039.23 13.3722 1028.71 19.8911 1022.22L184.584 857.495C191.078 851.003 201.625 851.003 208.119 857.495C214.613 864.014 214.613 874.536 208.119 881.03L43.4011 1045.73C36.9072 1052.24 26.3835 1052.24 19.8911 1045.73Z" fill="#BA13B3"/>
<path d="M637.143 539.239C637.143 534.82 635.385 530.573 632.26 527.472L538.147 433.357C531.653 426.838 521.129 426.838 514.636 433.357L184.584 763.382C181.459 766.505 179.701 770.729 179.701 775.148V869.261C179.701 873.852 181.581 878.025 184.584 881.027C187.587 884.03 191.762 885.91 196.352 885.91H290.466C294.885 885.91 299.109 884.152 302.234 881.027L632.257 550.98C635.385 547.882 637.143 543.633 637.143 539.239Z" fill="#E6E9ED"/>
<path d="M179.701 869.263C179.701 873.853 181.581 878.027 184.584 881.028C187.587 884.032 191.762 885.911 196.352 885.911H290.466C294.885 885.911 299.109 884.154 302.234 881.028L502.234 681.033H266.933L184.586 763.382C181.461 766.506 179.703 770.729 179.703 775.148L179.701 869.263Z" fill="#AD357D"/>
<path d="M790.095 339.243C790.095 334.824 788.337 330.576 785.212 327.475L738.144 280.406C731.65 273.912 721.126 273.912 714.632 280.406L538.145 456.868C535.02 459.993 533.287 464.216 533.287 468.635C533.287 473.054 535.02 477.277 538.145 480.402L585.213 527.472C591.707 533.966 602.253 533.966 608.748 527.472L785.212 350.985C788.337 347.885 790.095 343.637 790.095 339.243Z" fill="#E6E9ED"/>
<path d="M502.87 445.125C496.351 438.606 496.351 428.084 502.87 421.59C509.362 415.096 519.886 415.096 526.38 421.59L644.029 539.216C650.523 545.735 650.523 556.257 644.029 562.751C637.535 569.245 627.012 569.245 620.518 562.751L502.87 445.125Z" fill="#CCD1D9"/>
<path d="M431.629 751.615L408.119 728.103C401.625 721.585 391.078 721.61 384.584 728.103C378.09 734.597 378.09 745.121 384.584 751.615L408.119 775.15L431.629 751.615Z" fill="#434A54"/>
<path d="M361.048 822.22L337.513 798.685C331.019 792.192 320.497 792.192 314.003 798.685C307.485 805.179 307.485 815.726 314.003 822.22L337.513 845.73L361.048 822.22Z" fill="#434A54"/>
<path d="M502.259 680.985L478.749 657.476C472.23 650.957 461.708 650.982 455.214 657.476C448.72 663.969 448.72 674.493 455.214 680.985L478.749 704.52L502.259 680.985Z" fill="#434A54"/>
<path d="M572.813 610.454L549.278 586.919C542.785 580.425 532.261 580.425 525.743 586.919C519.25 593.413 519.25 603.96 525.743 610.454L549.278 633.989L572.813 610.454Z" fill="#434A54"/>
</g>
<g filter="url(#filter2_dddd_1670_1035)">
<path d="M813.607 868.969C813.607 786.428 746.444 719.24 663.877 719.24C581.311 719.24 514.123 786.403 514.123 868.969C514.123 911.912 532.239 952.146 564.051 980.589V1035.35C564.051 1044.55 571.496 1052 580.676 1052H747.054C751.472 1052 755.696 1050.24 758.821 1047.12C761.946 1043.99 763.704 1039.77 763.704 1035.35V980.589C795.516 952.147 813.607 911.914 813.607 868.969Z" fill="#E6E9ED"/>
<path d="M630.6 868.969C630.6 878.174 623.153 885.618 613.95 885.618C604.77 885.618 597.325 878.173 597.325 868.969C597.325 859.789 604.77 852.344 613.95 852.344C623.153 852.345 630.6 859.789 630.6 868.969Z" fill="#434A54"/>
<path d="M730.43 868.969C730.43 878.174 722.983 885.618 713.779 885.618C704.599 885.618 697.152 878.173 697.152 868.969C697.152 859.789 704.599 852.344 713.779 852.344C722.983 852.345 730.43 859.789 730.43 868.969Z" fill="#434A54"/>
</g>
<path d="M630.601 1002.07C621.396 1002.07 613.95 1009.52 613.95 1018.72V1052H647.228V1018.72C647.226 1009.52 639.78 1002.07 630.601 1002.07Z" fill="#CCD1D9"/>
<path d="M697.152 999.999C687.947 999.999 680.502 1007.45 680.502 1016.65V1049.93C680.502 1050.61 680.575 1051.32 680.649 1052H713.632C713.729 1051.32 713.779 1050.61 713.779 1049.93V1016.65C713.776 1007.44 706.332 999.999 697.152 999.999Z" fill="#CCD1D9"/>
<path d="M691.097 280.405C684.604 273.911 684.604 263.389 691.097 256.87C697.591 250.377 708.115 250.377 714.632 256.87L808.747 350.985C815.241 357.504 815.241 368.026 808.747 374.52C802.253 381.014 791.706 381.014 785.212 374.52L691.097 280.405Z" fill="#CCD1D9"/>
<defs>
<filter id="filter0_dddd_1670_1035" x="47.0391" y="0" width="539.963" height="1015.73" filterUnits="userSpaceOnUse" color-interpolation-filters="sRGB">
<feFlood flood-opacity="0" result="BackgroundImageFix"/>
<feColorMatrix in="SourceAlpha" type="matrix" values="0 0 0 0 0 0 0 0 0 0 0 0 0 0 0 0 0 0 127 0" result="hardAlpha"/>
<feOffset dx="-10"/>
<feGaussianBlur stdDeviation="2"/>
<feComposite in2="hardAlpha" operator="out"/>
<feColorMatrix type="matrix" values="0 0 0 0 0 0 0 0 0 0 0 0 0 0 0 0 0 0 0.25 0"/>
<feBlend mode="normal" in2="BackgroundImageFix" result="effect1_dropShadow_1670_1035"/>
<feColorMatrix in="SourceAlpha" type="matrix" values="0 0 0 0 0 0 0 0 0 0 0 0 0 0 0 0 0 0 127 0" result="hardAlpha"/>
<feOffset dx="10"/>
<feGaussianBlur stdDeviation="2"/>
<feComposite in2="hardAlpha" operator="out"/>
<feColorMatrix type="matrix" values="0 0 0 0 0 0 0 0 0 0 0 0 0 0 0 0 0 0 0.25 0"/>
<feBlend mode="normal" in2="effect1_dropShadow_1670_1035" result="effect2_dropShadow_1670_1035"/>
<feColorMatrix in="SourceAlpha" type="matrix" values="0 0 0 0 0 0 0 0 0 0 0 0 0 0 0 0 0 0 127 0" result="hardAlpha"/>
<feOffset dy="10"/>
<feGaussianBlur stdDeviation="2"/>
<feComposite in2="hardAlpha" operator="out"/>
<feColorMatrix type="matrix" values="0 0 0 0 0 0 0 0 0 0 0 0 0 0 0 0 0 0 0.25 0"/>
<feBlend mode="normal" in2="effect2_dropShadow_1670_1035" result="effect3_dropShadow_1670_1035"/>
<feColorMatrix in="SourceAlpha" type="matrix" values="0 0 0 0 0 0 0 0 0 0 0 0 0 0 0 0 0 0 127 0" result="hardAlpha"/>
<feOffset dy="-10"/>
<feGaussianBlur stdDeviation="2"/>
<feComposite in2="hardAlpha" operator="out"/>
<feColorMatrix type="matrix" values="0 0 0 0 0 0 0 0 0 0 0 0 0 0 0 0 0 0 0.25 0"/>
<feBlend mode="normal" in2="effect3_dropShadow_1670_1035" result="effect4_dropShadow_1670_1035"/>
<feBlend mode="normal" in="SourceGraphic" in2="effect4_dropShadow_1670_1035" result="shape"/>
</filter>
<filter id="filter1_dddd_1670_1035" x="1.00195" y="261.535" width="803.093" height="803.079" filterUnits="userSpaceOnUse" color-interpolation-filters="sRGB">
<feFlood flood-opacity="0" result="BackgroundImageFix"/>
<feColorMatrix in="SourceAlpha" type="matrix" values="0 0 0 0 0 0 0 0 0 0 0 0 0 0 0 0 0 0 127 0" result="hardAlpha"/>
<feOffset dx="-10"/>
<feGaussianBlur stdDeviation="2"/>
<feComposite in2="hardAlpha" operator="out"/>
<feColorMatrix type="matrix" values="0 0 0 0 0 0 0 0 0 0 0 0 0 0 0 0 0 0 0.25 0"/>
<feBlend mode="normal" in2="BackgroundImageFix" result="effect1_dropShadow_1670_1035"/>
<feColorMatrix in="SourceAlpha" type="matrix" values="0 0 0 0 0 0 0 0 0 0 0 0 0 0 0 0 0 0 127 0" result="hardAlpha"/>
<feOffset dx="10"/>
<feGaussianBlur stdDeviation="2"/>
<feComposite in2="hardAlpha" operator="out"/>
<feColorMatrix type="matrix" values="0 0 0 0 0 0 0 0 0 0 0 0 0 0 0 0 0 0 0.25 0"/>
<feBlend mode="normal" in2="effect1_dropShadow_1670_1035" result="effect2_dropShadow_1670_1035"/>
<feColorMatrix in="SourceAlpha" type="matrix" values="0 0 0 0 0 0 0 0 0 0 0 0 0 0 0 0 0 0 127 0" result="hardAlpha"/>
<feOffset dy="10"/>
<feGaussianBlur stdDeviation="2"/>
<feComposite in2="hardAlpha" operator="out"/>
<feColorMatrix type="matrix" values="0 0 0 0 0 0 0 0 0 0 0 0 0 0 0 0 0 0 0.25 0"/>
<feBlend mode="normal" in2="effect2_dropShadow_1670_1035" result="effect3_dropShadow_1670_1035"/>
<feColorMatrix in="SourceAlpha" type="matrix" values="0 0 0 0 0 0 0 0 0 0 0 0 0 0 0 0 0 0 127 0" result="hardAlpha"/>
<feOffset dy="-10"/>
<feGaussianBlur stdDeviation="2"/>
<feComposite in2="hardAlpha" operator="out"/>
<feColorMatrix type="matrix" values="0 0 0 0 0 0 0 0 0 0 0 0 0 0 0 0 0 0 0.25 0"/>
<feBlend mode="normal" in2="effect3_dropShadow_1670_1035" result="effect4_dropShadow_1670_1035"/>
<feBlend mode="normal" in="SourceGraphic" in2="effect4_dropShadow_1670_1035" result="shape"/>
</filter>
<filter id="filter2_dddd_1670_1035" x="500.123" y="705.24" width="327.483" height="360.76" filterUnits="userSpaceOnUse" color-interpolation-filters="sRGB">
<feFlood flood-opacity="0" result="BackgroundImageFix"/>
<feColorMatrix in="SourceAlpha" type="matrix" values="0 0 0 0 0 0 0 0 0 0 0 0 0 0 0 0 0 0 127 0" result="hardAlpha"/>
<feOffset dx="-10"/>
<feGaussianBlur stdDeviation="2"/>
<feComposite in2="hardAlpha" operator="out"/>
<feColorMatrix type="matrix" values="0 0 0 0 0 0 0 0 0 0 0 0 0 0 0 0 0 0 0.25 0"/>
<feBlend mode="normal" in2="BackgroundImageFix" result="effect1_dropShadow_1670_1035"/>
<feColorMatrix in="SourceAlpha" type="matrix" values="0 0 0 0 0 0 0 0 0 0 0 0 0 0 0 0 0 0 127 0" result="hardAlpha"/>
<feOffset dx="10"/>
<feGaussianBlur stdDeviation="2"/>
<feComposite in2="hardAlpha" operator="out"/>
<feColorMatrix type="matrix" values="0 0 0 0 0 0 0 0 0 0 0 0 0 0 0 0 0 0 0.25 0"/>
<feBlend mode="normal" in2="effect1_dropShadow_1670_1035" result="effect2_dropShadow_1670_1035"/>
<feColorMatrix in="SourceAlpha" type="matrix" values="0 0 0 0 0 0 0 0 0 0 0 0 0 0 0 0 0 0 127 0" result="hardAlpha"/>
<feOffset dy="10"/>
<feGaussianBlur stdDeviation="2"/>
<feComposite in2="hardAlpha" operator="out"/>
<feColorMatrix type="matrix" values="0 0 0 0 0 0 0 0 0 0 0 0 0 0 0 0 0 0 0.25 0"/>
<feBlend mode="normal" in2="effect2_dropShadow_1670_1035" result="effect3_dropShadow_1670_1035"/>
<feColorMatrix in="SourceAlpha" type="matrix" values="0 0 0 0 0 0 0 0 0 0 0 0 0 0 0 0 0 0 127 0" result="hardAlpha"/>
<feOffset dy="-10"/>
<feGaussianBlur stdDeviation="2"/>
<feComposite in2="hardAlpha" operator="out"/>
<feColorMatrix type="matrix" values="0 0 0 0 0 0 0 0 0 0 0 0 0 0 0 0 0 0 0.25 0"/>
<feBlend mode="normal" in2="effect3_dropShadow_1670_1035" result="effect4_dropShadow_1670_1035"/>
<feBlend mode="normal" in="SourceGraphic" in2="effect4_dropShadow_1670_1035" result="shape"/>
</filter>
</defs>
</svg>
