<svg width="450" height="841" viewBox="0 0 450 841" fill="none" xmlns="http://www.w3.org/2000/svg">
<circle cx="225" cy="125.001" r="125" fill="#FFAEE4"/>
<path d="M92.4268 341.896C96.8156 318.197 117.488 301.001 141.591 301.001H308.409C332.512 301.001 353.184 318.197 357.573 341.897L439.055 781.897C444.747 812.635 421.152 841.001 389.891 841.001H60.1094C28.848 841.001 5.25291 812.635 10.9453 781.897L92.4268 341.896Z" fill="#FFAEE4"/>
<path d="M162.28 64.0001C162.28 89.6814 133.114 79.5001 105.5 79.5001C77.8858 79.5001 17 155.681 17 130C17 104.319 63.8858 18 91.5 18C119.114 18 162.28 38.3189 162.28 64.0001Z" fill="#FFAEE4"/>
<path d="M291 63.8867C291 89.5046 320.165 79.3484 347.78 79.3484C375.394 79.3484 436.28 155.342 436.28 129.724C436.28 104.106 389.394 18 361.78 18C334.165 18 291 38.2688 291 63.8867Z" fill="#FFAEE4"/>
<circle cx="225" cy="663" r="125" fill="white"/>
<circle cx="243.5" cy="614" r="25" fill="#FF5151"/>
<path d="M283.267 662.5C283.267 676.307 305.767 730 231.767 724.5C217.96 724.5 212.267 703 228.267 699C252.267 675.5 244.459 637.5 258.267 637.5C272.074 637.5 283.267 648.693 283.267 662.5Z" fill="#FF5151"/>
<path d="M265.5 658.247C265.5 668.187 253.859 676.363 239.5 676.363C225.141 676.363 191 651.441 191 641.5C191 631.56 225.141 652.865 239.5 652.865C253.859 652.865 265.5 648.306 265.5 658.247Z" fill="#FF5151"/>
<path d="M251 718.803C251 705.02 226.281 684.803 211.826 684.803C197.37 684.803 163 719.357 163 733.139C163 746.921 197.37 718.803 211.826 718.803C226.281 718.803 251 732.585 251 718.803Z" fill="#FF5151"/>
</svg>
