<svg width="926" height="1473" viewBox="0 0 926 1473" fill="none" xmlns="http://www.w3.org/2000/svg">
<path d="M384 0L926 400.5L222 672L384 0Z" fill="#764E13"/>
<path d="M500 559C500 613.328 482.303 666.176 449.587 709.549C416.871 752.921 370.918 784.456 318.681 799.381C266.443 814.306 210.766 811.809 160.075 792.267C109.384 772.725 66.4375 737.203 37.7361 691.076C9.03469 644.949 -3.85987 590.728 1.00389 536.618C5.86765 482.509 28.225 431.457 64.6924 391.187C101.16 350.918 149.752 323.624 203.116 313.436C256.479 303.247 311.71 310.719 360.448 334.72L250 559H500Z" fill="#4C7FE3"/>
<rect x="554.265" y="465.261" width="119.565" height="587.945" rx="59.7826" transform="rotate(-11.7069 554.265 465.261)" fill="#173266"/>
<rect x="274" y="946.686" width="119.565" height="460.126" rx="59.7826" transform="rotate(-79.5358 274 946.686)" fill="#173266"/>
<path d="M36 967C36 898.517 91.5167 843 160 843H372.607C423.082 843 464 883.918 464 934.393V934.393C464 954.256 470.471 973.577 482.433 989.434L581.691 1121.01C602.599 1148.72 610.931 1183.94 604.66 1218.08L577.212 1367.55C569.06 1411.94 537.434 1448.4 494.64 1462.74L483.171 1466.58C470.474 1470.83 457.172 1473 443.782 1473H160C91.5167 1473 36 1417.48 36 1349V967Z" fill="#4C7FE3"/>
<ellipse cx="134.399" cy="518.378" rx="30.5" ry="17.5" transform="rotate(-41.8158 134.399 518.378)" fill="black"/>
<ellipse cx="239.399" cy="418.378" rx="30.5" ry="17.5" transform="rotate(-41.8158 239.399 418.378)" fill="black"/>
<rect x="449.265" y="514.151" width="119.565" height="587.945" rx="59.7826" transform="rotate(-11.7069 449.265 514.151)" fill="#254B95"/>
<rect x="169" y="995.576" width="119.565" height="460.126" rx="59.7826" transform="rotate(-79.5358 169 995.576)" fill="#254B95"/>
<path fill-rule="evenodd" clip-rule="evenodd" d="M441.048 102.679L371.529 137.966C368.461 139.524 367.008 143.257 368.3 145.801C369.443 148.051 371.242 151.595 372.692 154.449C374.716 158.434 378.799 161.202 384.114 162.047C389.177 162.852 394.963 161.833 400.195 159.176C412.613 152.87 428.906 144.595 441.324 138.289C446.555 135.632 450.792 131.561 453.127 126.999C455.581 122.209 455.756 117.277 453.732 113.293C452.283 110.438 450.483 106.895 449.34 104.645C448.782 103.545 447.778 102.727 446.533 102.284C444.885 101.696 442.806 101.786 441.048 102.679Z" fill="#F8AC3A"/>
<path fill-rule="evenodd" clip-rule="evenodd" d="M441.049 102.678L433.857 106.312C435.615 105.419 437.844 105.624 439.492 106.212C440.737 106.655 441.741 107.472 442.299 108.572C443.442 110.822 445.242 114.366 446.691 117.221C448.715 121.205 448.54 126.137 446.086 130.926C444.334 134.348 441.511 137.496 438.002 139.976L441.325 138.288C446.556 135.631 450.793 131.56 453.129 126.998C455.582 122.208 455.757 117.277 453.733 113.292C452.284 110.438 450.484 106.894 449.341 104.644C448.783 103.544 447.779 102.726 446.534 102.284C444.886 101.696 442.807 101.785 441.049 102.678Z" fill="#F39404"/>
<path fill-rule="evenodd" clip-rule="evenodd" d="M362.78 122.373L433.4 86.4579C434.846 85.7232 435.914 84.4041 436.33 82.8381C436.745 81.2729 436.466 79.6105 435.565 78.2708C435.56 78.2643 435.556 78.2571 435.551 78.2507C424.278 62.0372 400.241 57.1038 379.428 67.6736C358.617 78.2428 348.419 100.561 354.815 119.242C354.818 119.251 354.821 119.261 354.823 119.268C355.377 120.798 356.566 122.016 358.087 122.608C359.608 123.203 361.317 123.118 362.78 122.373Z" fill="#F8AC3A"/>
<path fill-rule="evenodd" clip-rule="evenodd" d="M375.99 69.5852C395.914 61.2713 417.895 66.5305 428.524 81.8188C428.528 81.826 428.533 81.8324 428.538 81.8388C429.439 83.1785 429.718 84.841 429.302 86.407C428.888 87.9722 427.82 89.2913 426.373 90.026L433.418 86.448C434.865 85.7133 435.933 84.3942 436.349 82.8283C436.764 81.263 436.484 79.6006 435.583 78.2609C435.578 78.2544 435.575 78.2473 435.57 78.2408C424.297 62.0274 400.26 57.0939 379.447 67.6638C378.261 68.2661 377.109 68.9071 375.99 69.5852Z" fill="#F39404"/>
<path fill-rule="evenodd" clip-rule="evenodd" d="M362.481 118.94C359.047 120.683 357.664 124.859 359.395 128.266L359.396 128.268C360.219 129.892 361.66 131.119 363.4 131.68C365.14 132.239 367.036 132.089 368.674 131.257C368.674 131.257 368.674 131.257 437.327 96.3918C440.76 94.648 442.143 90.4726 440.413 87.0652C439.589 85.4405 438.148 84.2128 436.408 83.6532C434.668 83.0921 432.77 83.2432 431.133 84.0742L362.481 118.94Z" fill="#F0682D"/>
<path fill-rule="evenodd" clip-rule="evenodd" d="M358.889 123.345C358.952 123.309 359.019 123.275 359.086 123.241L427.738 88.3758C429.375 87.5447 431.272 87.3922 433.012 87.9533C434.752 88.5129 436.191 89.74 437.016 91.3639C437.82 92.9463 437.952 94.696 437.519 96.2888C440.807 94.4887 442.105 90.4086 440.408 87.0673C439.585 85.4426 438.144 84.2149 436.404 83.6553C434.664 83.0942 432.766 83.2453 431.129 84.0763L362.476 118.942C360.637 119.876 359.387 121.508 358.889 123.345Z" fill="#E54F0D"/>
<path fill-rule="evenodd" clip-rule="evenodd" d="M410.779 121.733C411.813 121.208 413.004 121.09 414.115 121.405C417.403 122.337 422.985 123.92 422.985 123.92C423.802 124.152 424.665 123.713 424.96 122.917C424.96 122.917 426.975 117.476 428.162 114.272C428.563 113.188 429.361 112.295 430.395 111.77C434.315 109.78 442.154 105.799 442.154 105.799C445.588 104.055 446.97 99.8793 445.241 96.4713C444.417 94.8473 442.977 93.6188 441.237 93.0592C439.497 92.4981 437.599 92.6506 435.963 93.4817C422.045 100.55 381.288 121.249 367.31 128.347C363.877 130.091 362.493 134.265 364.222 137.673C365.047 139.297 366.488 140.525 368.227 141.086C369.967 141.646 371.865 141.495 373.502 140.664L410.779 121.733Z" fill="#FFFC5C"/>
<path fill-rule="evenodd" clip-rule="evenodd" d="M363.493 134.668C364.112 133.86 364.919 133.175 365.888 132.683C379.865 125.584 420.622 104.885 434.54 97.8171C436.177 96.986 438.074 96.8335 439.815 97.3946C441.554 97.9542 442.993 99.1812 443.818 100.805C444.307 101.767 444.547 102.792 444.563 103.804C446.137 101.752 446.497 98.91 445.257 96.464C444.432 94.84 442.992 93.6116 441.252 93.0519C439.512 92.4909 437.615 92.6434 435.978 93.4744C422.06 100.543 381.303 121.241 367.326 128.34C364.861 129.592 363.454 132.094 363.493 134.668Z" fill="#FEFA22"/>
<path d="M409.604 135.803C410.604 135.295 411.006 134.08 410.503 133.089C409.999 132.098 408.781 131.706 407.781 132.214C406.781 132.721 406.379 133.936 406.882 134.928C407.386 135.919 408.604 136.311 409.604 135.803Z" fill="#F39404"/>
<path d="M381.701 147.981C382.701 147.473 383.103 146.258 382.6 145.267C382.096 144.276 380.878 143.884 379.878 144.391C378.878 144.899 378.476 146.114 378.979 147.105C379.483 148.097 380.701 148.489 381.701 147.981Z" fill="#F39404"/>
<path d="M398.653 151.332C399.653 150.825 400.055 149.61 399.551 148.618C399.048 147.627 397.829 147.235 396.83 147.743C395.83 148.251 395.428 149.466 395.931 150.457C396.434 151.448 397.653 151.84 398.653 151.332Z" fill="#F39404"/>
<path d="M426.657 136.313C427.657 135.805 428.059 134.59 427.556 133.599C427.052 132.608 425.834 132.216 424.834 132.723C423.834 133.231 423.432 134.446 423.935 135.437C424.439 136.429 425.657 136.821 426.657 136.313Z" fill="#F39404"/>
<path d="M442.241 123.714C443.24 123.207 443.643 121.991 443.139 121C442.636 120.009 441.417 119.617 440.418 120.125C439.418 120.632 439.016 121.848 439.519 122.839C440.022 123.83 441.241 124.222 442.241 123.714Z" fill="#F39404"/>
<path d="M366.795 109.503C367.795 108.996 368.197 107.78 367.694 106.789C367.19 105.798 365.972 105.406 364.972 105.914C363.972 106.421 363.57 107.637 364.073 108.628C364.577 109.619 365.795 110.011 366.795 109.503Z" fill="#F39404"/>
<path d="M369.331 89.3764C370.331 88.8687 370.734 87.6535 370.23 86.6623C369.727 85.671 368.508 85.279 367.508 85.7867C366.509 86.2945 366.106 87.5096 366.61 88.5009C367.113 89.4922 368.332 89.8842 369.331 89.3764Z" fill="#F39404"/>
<path d="M387.822 97.23C388.821 96.7222 389.224 95.5071 388.72 94.5158C388.217 93.5245 386.998 93.1325 385.999 93.6403C384.999 94.148 384.597 95.3632 385.1 96.3544C385.603 97.3457 386.822 97.7377 387.822 97.23Z" fill="#F39404"/>
<path d="M417.645 80.1899C418.645 79.6822 419.047 78.467 418.544 77.4758C418.04 76.4845 416.822 76.0925 415.822 76.6002C414.822 77.1079 414.42 78.3231 414.923 79.3144C415.427 80.3056 416.645 80.6976 417.645 80.1899Z" fill="#F39404"/>
<path d="M404.804 92.2925C405.804 91.7847 406.206 90.5696 405.703 89.5783C405.199 88.587 403.981 88.195 402.981 88.7028C401.981 89.2105 401.579 90.4257 402.082 91.4169C402.586 92.4082 403.804 92.8002 404.804 92.2925Z" fill="#F39404"/>
<path d="M402.985 74.6782C403.985 74.1705 404.387 72.9553 403.883 71.964C403.38 70.9728 402.162 70.5808 401.162 71.0885C400.162 71.5962 399.76 72.8114 400.263 73.8027C400.766 74.7939 401.985 75.1859 402.985 74.6782Z" fill="#F39404"/>
<path fill-rule="evenodd" clip-rule="evenodd" d="M472.197 372.046L465.098 366.965C444.586 354.775 419.787 359.054 409.681 376.059C409.117 377.008 408.604 378.067 408.507 378.269C408.257 378.796 408.181 379.277 408.214 379.703L408.585 380.808L408.438 380.641L425.815 421.896C426.264 422.961 427.314 423.652 428.471 423.644L479.918 423.296L480.116 423.287C480.512 423.259 480.884 423.148 481.219 422.971C481.555 422.798 481.858 422.555 482.11 422.249L482.231 422.091C482.713 421.413 483.17 420.713 483.599 419.99C492.443 405.11 487.35 385.005 472.197 372.046Z" fill="#F8AC3A"/>
<path fill-rule="evenodd" clip-rule="evenodd" d="M468.782 399.518L469.037 399.134L469.151 398.898C469.261 398.645 469.332 398.38 469.365 398.111L469.386 397.657L469.365 397.378C469.328 397.11 469.255 396.847 469.142 396.594L469.023 396.353C468.95 396.223 468.865 396.097 468.769 395.979L448.017 369.377C447.064 368.155 445.306 367.915 444.059 368.838L432.654 377.288C432.234 377.597 431.909 378.016 431.712 378.498L414.485 420.385C414.111 421.294 414.23 422.326 414.797 423.129L429.751 444.239C430.278 444.982 431.124 445.428 432.033 445.446C432.941 445.463 433.802 445.05 434.357 444.328L468.782 399.518Z" fill="#8FF467"/>
<path fill-rule="evenodd" clip-rule="evenodd" d="M414.582 381.891C413.842 382.828 413.763 384.126 414.381 385.146L428.397 408.244C429.016 409.267 430.204 409.794 431.379 409.57C436.068 408.673 440.368 405.851 442.997 401.427C447.869 393.228 445.17 382.619 436.971 377.747C429.437 373.269 419.863 375.189 414.582 381.891Z" fill="#F0682D"/>
<path fill-rule="evenodd" clip-rule="evenodd" d="M408.358 522.541C408.998 522.942 409.795 523.086 410.58 522.884C412.111 522.492 413.032 520.93 412.639 519.402L401.324 475.384C401.129 474.625 400.633 473.981 399.952 473.6C399.27 473.218 398.459 473.132 397.712 473.364L356.358 486.076C355.275 486.408 354.494 487.348 354.358 488.472C354.223 489.596 354.765 490.693 355.736 491.271L408.29 522.504L408.358 522.541Z" fill="#F8AC3A"/>
<path fill-rule="evenodd" clip-rule="evenodd" d="M435.156 423.062C435.418 422.622 435.557 422.119 435.558 421.607C435.602 402.871 427.552 385.991 412.536 377.067C411.853 376.66 411.027 376.556 410.262 376.783C409.499 377.009 408.864 377.546 408.509 378.261L354.632 487.538C353.972 488.876 354.452 490.499 355.736 491.262C366.637 497.741 381.854 496.152 396.33 487.691C396.749 487.445 397.097 487.099 397.346 486.681L435.156 423.062Z" fill="#F8AC3A"/>
<path fill-rule="evenodd" clip-rule="evenodd" d="M397.346 486.683L396.008 481.432C395.761 481.847 395.411 482.195 394.993 482.439C380.855 490.702 366.009 492.411 355.169 486.451L354.632 487.539C353.973 488.878 354.453 490.501 355.736 491.264C366.638 497.742 381.854 496.154 396.33 487.693C396.749 487.446 397.098 487.101 397.346 486.683Z" fill="#F39404"/>
<path fill-rule="evenodd" clip-rule="evenodd" d="M468.734 418.818C469.837 418.928 470.906 418.389 471.473 417.435L478.821 405.07C479.628 403.713 479.181 401.956 477.824 401.15L467.965 395.291C466.608 394.484 464.851 394.931 464.044 396.288L453.954 413.266C453.454 414.107 453.42 415.145 453.859 416.018C454.303 416.89 455.159 417.476 456.132 417.575L468.734 418.818Z" fill="#FFFC5C"/>
<path fill-rule="evenodd" clip-rule="evenodd" d="M477.824 401.152L474.543 399.202C475.901 400.009 476.348 401.765 475.541 403.123L468.193 415.487C467.625 416.441 466.556 416.981 465.451 416.87L453.727 415.712C453.764 415.817 453.811 415.918 453.86 416.02C454.303 416.893 455.159 417.478 456.132 417.577L468.734 418.821C469.837 418.93 470.906 418.391 471.473 417.437L478.821 405.073C479.628 403.715 479.181 401.959 477.824 401.152Z" fill="#FEFA22"/>
<path fill-rule="evenodd" clip-rule="evenodd" d="M451.695 423.977C452.96 424.369 454.327 423.844 455.004 422.705L464.736 406.33C465.542 404.973 465.096 403.216 463.738 402.409L453.88 396.55C452.522 395.744 450.766 396.191 449.959 397.548L438.822 416.286C438.375 417.039 438.296 417.957 438.612 418.774C438.925 419.592 439.596 420.22 440.432 420.481L451.695 423.977Z" fill="#FFFC5C"/>
<path fill-rule="evenodd" clip-rule="evenodd" d="M457.694 398.812C459.054 399.621 459.498 401.376 458.692 402.733L448.96 419.108C448.283 420.247 446.916 420.772 445.651 420.38L438.44 418.141C438.471 418.352 438.524 418.56 438.603 418.763C438.915 419.581 439.586 420.21 440.423 420.471L451.686 423.967C452.951 424.359 454.318 423.833 454.994 422.695L464.726 406.32C465.533 404.962 465.086 403.206 463.729 402.399L457.694 398.812Z" fill="#FEFA22"/>
<path fill-rule="evenodd" clip-rule="evenodd" d="M482.325 422.14C482.786 421.488 482.954 420.673 482.785 419.894C482.62 419.113 482.135 418.439 481.449 418.032C456.762 403.36 421.962 415.658 403.958 445.952C393.275 463.928 390.032 483.551 393.108 498.75C395.257 509.368 400.488 517.868 408.291 522.505C409.574 523.268 411.231 522.915 412.09 521.695L482.325 422.14Z" fill="#F8AC3A"/>
<path fill-rule="evenodd" clip-rule="evenodd" d="M428.758 420.587C419.148 426.41 410.458 435.002 403.959 445.937C393.275 463.913 390.032 483.536 393.109 498.735C395.257 509.353 400.488 517.853 408.291 522.49C409.575 523.253 411.232 522.9 412.09 521.68L414.53 518.225L414.525 518.222C406.72 513.583 401.489 505.083 399.34 494.466C396.264 479.267 399.509 459.645 410.191 441.672C415.252 433.156 421.642 426.061 428.758 420.587Z" fill="#F39404"/>
<path d="M412.423 405.191C414.121 406.2 416.315 405.641 417.324 403.942C418.334 402.244 417.776 400.049 416.079 399.04C414.381 398.032 412.187 398.591 411.178 400.289C410.168 401.988 410.726 404.182 412.423 405.191Z" fill="#F39404"/>
<path d="M454.114 433.818C455.811 434.827 458.005 434.268 459.015 432.569C460.024 430.871 459.466 428.676 457.769 427.667C456.072 426.659 453.878 427.218 452.868 428.916C451.859 430.614 452.416 432.809 454.114 433.818Z" fill="#F39404"/>
<path d="M428.565 465.561C430.263 466.57 432.457 466.011 433.466 464.312C434.476 462.614 433.918 460.419 432.221 459.411C430.523 458.402 428.329 458.961 427.32 460.659C426.31 462.358 426.868 464.552 428.565 465.561Z" fill="#F39404"/>
<path d="M387.151 454.811C388.848 455.82 391.042 455.261 392.052 453.562C393.061 451.864 392.504 449.669 390.806 448.661C389.109 447.652 386.915 448.211 385.905 449.909C384.896 451.608 385.453 453.802 387.151 454.811Z" fill="#F39404"/>
<path fill-rule="evenodd" clip-rule="evenodd" d="M439.846 435.192L430.387 438.817C428.912 439.385 428.172 441.038 428.74 442.514C429.305 443.988 430.959 444.725 432.433 444.16L441.893 440.534C443.366 439.969 444.104 438.314 443.54 436.838C442.975 435.364 441.32 434.627 439.846 435.192Z" fill="#F39404"/>
<path fill-rule="evenodd" clip-rule="evenodd" d="M415.407 478.182L409.208 488.611C408.402 489.968 408.849 491.725 410.206 492.531C411.564 493.338 413.32 492.891 414.127 491.534L420.325 481.105C421.132 479.747 420.685 477.991 419.327 477.184C417.97 476.377 416.213 476.824 415.407 478.182Z" fill="#F39404"/>
<path fill-rule="evenodd" clip-rule="evenodd" d="M405.708 421.214L398.667 430.493C397.713 431.75 397.957 433.545 399.217 434.5C400.472 435.456 402.269 435.209 403.222 433.952L410.264 424.674C411.222 423.416 410.975 421.619 409.718 420.665C408.459 419.711 406.662 419.957 405.708 421.214Z" fill="#F39404"/>
<path fill-rule="evenodd" clip-rule="evenodd" d="M374.163 481.566L383.394 478.347C384.883 477.828 385.674 476.195 385.153 474.703C384.634 473.214 382.999 472.425 381.51 472.944L372.281 476.165C370.789 476.682 370.002 478.314 370.522 479.808C371.041 481.298 372.673 482.085 374.163 481.566Z" fill="#F39404"/>
<path d="M478.687 333.929L481.466 327.622L487.731 330.383C489.404 331.12 491.301 331.162 493.005 330.5C494.709 329.839 496.081 328.527 496.818 326.855C497.555 325.182 497.597 323.285 496.935 321.581C496.274 319.877 494.962 318.505 493.29 317.768L487.024 315.008L475.264 284.72L457.092 291.777L468.852 322.064L466.073 328.371C465.336 330.044 465.293 331.941 465.955 333.645C466.617 335.349 467.928 336.72 469.601 337.457C471.274 338.195 473.171 338.237 474.875 337.575C476.579 336.914 477.95 335.602 478.687 333.929Z" fill="#FFE6C1"/>
<path d="M449.181 298.335L485.526 284.222L479.132 206.088C478.592 199.306 476.476 192.744 472.95 186.925C469.424 181.107 464.587 176.193 458.825 172.576C453.063 168.959 446.535 166.739 439.762 166.093C432.989 165.447 426.159 166.393 419.817 168.855C413.475 171.318 407.797 175.229 403.235 180.276C398.673 185.323 395.353 191.367 393.542 197.924C391.731 204.482 391.477 211.373 392.802 218.046C394.126 224.719 396.993 230.99 401.171 236.359L449.181 298.335Z" fill="#DC562C"/>
<path fill-rule="evenodd" clip-rule="evenodd" d="M736.617 431.024C737.367 431.379 738.252 431.291 738.919 430.796C739.587 430.302 739.926 429.481 739.805 428.659C739.723 428.099 739.677 427.531 739.667 426.958L737.75 317.282C737.739 316.714 737.765 316.149 737.829 315.59C737.918 314.766 737.549 313.958 736.867 313.488C736.182 313.017 735.294 312.961 734.558 313.342C731.46 314.939 728.615 317.046 726.149 319.606C720.233 325.748 716.996 333.995 717.143 342.531C717.463 360.832 717.872 384.158 718.192 402.459C718.341 410.997 721.866 419.124 727.992 425.054C730.546 427.527 733.464 429.535 736.617 431.024Z" fill="#F8AC3A"/>
<path fill-rule="evenodd" clip-rule="evenodd" d="M736.617 431.024C737.367 431.379 738.252 431.291 738.919 430.796C739.587 430.302 739.926 429.481 739.805 428.659C739.723 428.099 739.677 427.531 739.667 426.958L737.75 317.282C737.739 316.714 737.765 316.149 737.829 315.59C737.918 314.766 737.549 313.958 736.867 313.488C736.182 313.017 735.294 312.961 734.558 313.342C731.46 314.939 728.615 317.046 726.149 319.606C720.233 325.748 716.996 333.995 717.143 342.531C717.463 360.832 717.872 384.158 718.192 402.459C718.341 410.997 721.866 419.124 727.992 425.054C730.546 427.527 733.464 429.535 736.617 431.024Z" fill="#F8AC3A"/>
<path fill-rule="evenodd" clip-rule="evenodd" d="M736.617 431.024C737.367 431.379 738.252 431.291 738.919 430.796C739.587 430.302 739.926 429.481 739.805 428.659C739.723 428.099 739.677 427.531 739.667 426.958L737.75 317.282C737.739 316.714 737.765 316.149 737.829 315.59C737.918 314.766 737.549 313.958 736.867 313.488C736.182 313.017 735.294 312.961 734.558 313.342C731.46 314.939 728.615 317.046 726.149 319.606C720.233 325.748 716.996 333.995 717.143 342.531C717.463 360.832 717.872 384.158 718.192 402.459C718.341 410.997 721.866 419.124 727.992 425.054C730.546 427.527 733.464 429.535 736.617 431.024Z" fill="#F8AC3A"/>
<path fill-rule="evenodd" clip-rule="evenodd" d="M718.086 396.509L718.192 402.46C718.341 410.998 721.866 419.125 727.991 425.055C730.545 427.528 733.464 429.535 736.617 431.025C737.366 431.379 738.252 431.292 738.918 430.796C739.586 430.302 739.925 429.481 739.804 428.66C739.723 428.1 739.676 427.532 739.666 426.959L739.61 423.75C739.467 424.181 739.192 424.566 738.814 424.847C738.146 425.341 737.264 425.428 736.513 425.075C733.36 423.586 730.441 421.578 727.887 419.105C721.762 413.175 718.235 405.047 718.086 396.509Z" fill="#F39404"/>
<path fill-rule="evenodd" clip-rule="evenodd" d="M767.168 312.773C766.418 312.418 765.533 312.505 764.868 312.999C764.2 313.493 763.859 314.313 763.98 315.134C764.06 315.69 764.106 316.254 764.116 316.821L766.034 426.498C766.043 427.07 766.016 427.642 765.953 428.203C765.86 429.028 766.23 429.838 766.913 430.307C767.598 430.778 768.484 430.836 769.221 430.455C772.32 428.856 775.168 426.749 777.634 424.189C783.549 418.048 786.788 409.8 786.64 401.264C786.32 382.963 785.911 359.637 785.591 341.336C785.442 332.798 781.917 324.671 775.79 318.739C773.238 316.268 770.319 314.261 767.168 312.773Z" fill="#F8AC3A"/>
<path fill-rule="evenodd" clip-rule="evenodd" d="M780.812 324.994C781.196 326.892 781.407 328.832 781.441 330.793C781.761 349.094 782.17 372.42 782.49 390.721C782.637 399.257 779.4 407.504 773.484 413.646C771.243 415.973 768.685 417.925 765.91 419.464L766.034 426.498C766.043 427.069 766.016 427.641 765.952 428.203C765.86 429.028 766.229 429.838 766.913 430.307C767.598 430.777 768.484 430.835 769.221 430.454C772.32 428.856 775.168 426.749 777.634 424.189C783.548 418.048 786.787 409.8 786.64 401.263C786.32 382.962 785.911 359.636 785.591 341.335C785.491 335.508 783.815 329.871 780.812 324.994Z" fill="#F39404"/>
<path fill-rule="evenodd" clip-rule="evenodd" d="M753.162 444.454C757.851 444.372 762.316 442.431 765.576 439.056C768.833 435.682 770.617 431.152 770.536 426.461C770.064 399.412 769.091 343.751 768.618 316.702C768.535 312.012 766.594 307.546 763.219 304.287C759.846 301.03 755.315 299.246 750.624 299.326L750.621 299.326C745.932 299.408 741.465 301.351 738.207 304.724C734.948 308.099 733.165 312.63 733.247 317.319C733.719 344.368 734.692 400.032 735.165 427.081C735.247 431.77 737.187 436.235 740.562 439.494C743.936 442.752 748.466 444.536 753.157 444.455L753.162 444.454Z" fill="#F0682D"/>
<path fill-rule="evenodd" clip-rule="evenodd" d="M760.949 302.434C763.125 305.373 764.351 308.939 764.415 312.644C764.888 339.693 765.861 395.354 766.333 422.403C766.414 427.093 764.63 431.624 761.373 434.997C758.114 438.372 753.648 440.313 748.959 440.395L748.954 440.397C745.249 440.462 741.646 439.361 738.629 437.289C739.208 438.071 739.853 438.809 740.562 439.494C743.936 442.752 748.466 444.535 753.157 444.455L753.162 444.453C757.851 444.372 762.316 442.431 765.575 439.056C768.833 435.682 770.616 431.152 770.536 426.461C770.063 399.412 769.091 343.751 768.618 316.702C768.535 312.012 766.594 307.546 763.219 304.287C762.511 303.604 761.75 302.985 760.949 302.434Z" fill="#E54F0D"/>
<path fill-rule="evenodd" clip-rule="evenodd" d="M744.925 314.631L750.852 322.198C753.409 325.462 753.454 330.039 750.96 333.356C750.014 334.609 749.027 335.925 748.079 337.184C744.311 342.188 744.432 349.119 748.372 353.989L751.297 357.608C753.937 360.871 754.018 365.519 751.493 368.872C750.573 370.094 749.617 371.369 748.697 372.591C744.93 377.595 745.051 384.521 748.991 389.396L751.915 393.015C754.556 396.278 754.637 400.921 752.112 404.279C751.289 405.371 750.439 406.504 749.611 407.607C745.683 412.825 746 420.097 750.367 424.954C753.538 428.481 756.722 432.024 756.722 432.024C757.552 432.947 758.977 433.02 759.9 432.19C760.824 431.359 760.901 429.935 760.069 429.011L753.715 421.942C750.788 418.684 750.575 413.811 753.208 410.312C754.036 409.21 754.887 408.081 755.71 406.984C759.477 401.98 759.356 395.055 755.417 390.18L752.491 386.566C749.851 383.298 749.77 378.655 752.294 375.296C753.214 374.074 754.171 372.805 755.092 371.583C758.858 366.573 758.737 359.648 754.798 354.773L751.873 351.159C749.232 347.891 749.151 343.248 751.676 339.889C752.625 338.631 753.613 337.32 754.558 336.061C758.277 331.119 758.212 324.291 754.397 319.424C751.48 315.697 748.47 311.852 748.47 311.852C747.705 310.876 746.289 310.705 745.31 311.47C744.332 312.234 744.16 313.649 744.925 314.631Z" fill="#FFFC5C"/>
<path d="M593.778 140.129L544 268.129L672 218.351L593.778 140.129Z" fill="#FFD54F"/>
<path d="M576.004 232.577C573.67 232.577 571.358 233.036 569.201 233.929C567.044 234.822 565.084 236.131 563.433 237.782C561.782 239.432 560.472 241.392 559.578 243.548C558.684 245.705 558.224 248.017 558.223 250.351C558.223 254.43 559.652 258.145 561.967 261.146L593.626 248.833C592.844 239.742 585.299 232.577 576.004 232.577Z" fill="#FF3D00"/>
<path d="M579.56 184.577C579.56 188.821 581.245 192.89 584.246 195.891C587.246 198.891 591.316 200.577 595.56 200.577C599.803 200.577 603.873 198.891 606.873 195.891C609.874 192.89 611.56 188.821 611.56 184.577C611.56 180.334 609.874 176.264 606.873 173.263C603.873 170.263 599.803 168.577 595.56 168.577C591.316 168.577 587.246 170.263 584.246 173.263C581.245 176.264 579.56 180.334 579.56 184.577Z" fill="#FF3D00"/>
<path d="M622.221 189.906C616.337 189.906 611.554 194.688 611.554 200.58C611.554 206.461 616.337 211.24 622.221 211.24C628.105 211.24 632.888 206.461 632.888 200.58C632.887 197.751 631.763 195.037 629.763 193.036C627.763 191.035 625.05 189.909 622.221 189.906ZM622.221 205.906C621.509 205.925 620.801 205.801 620.138 205.541C619.475 205.282 618.871 204.892 618.361 204.396C617.851 203.899 617.445 203.305 617.168 202.649C616.891 201.993 616.748 201.288 616.748 200.577C616.748 199.865 616.89 199.16 617.167 198.504C617.443 197.848 617.848 197.253 618.358 196.756C618.868 196.259 619.472 195.869 620.135 195.609C620.798 195.35 621.506 195.225 622.217 195.243C623.608 195.279 624.929 195.856 625.9 196.851C626.871 197.847 627.414 199.182 627.415 200.573C627.415 201.964 626.873 203.299 625.902 204.296C624.932 205.292 623.611 205.87 622.221 205.906ZM579.554 207.684C573.67 207.684 568.888 212.466 568.888 218.358C568.888 224.239 573.67 229.017 579.554 229.017C585.439 229.017 590.221 224.239 590.221 218.358C590.22 215.528 589.096 212.815 587.096 210.814C585.096 208.813 582.384 207.687 579.554 207.684ZM579.554 223.684C578.843 223.703 578.134 223.579 577.471 223.319C576.808 223.06 576.204 222.67 575.694 222.173C575.184 221.677 574.778 221.083 574.502 220.427C574.225 219.771 574.082 219.066 574.082 218.354C574.081 217.642 574.224 216.938 574.5 216.281C574.777 215.625 575.182 215.031 575.691 214.534C576.201 214.037 576.805 213.647 577.468 213.387C578.131 213.127 578.839 213.003 579.551 213.021C580.941 213.056 582.262 213.633 583.233 214.629C584.204 215.625 584.748 216.96 584.748 218.351C584.749 219.741 584.206 221.077 583.236 222.073C582.266 223.07 580.945 223.648 579.554 223.684Z" fill="#3E2723"/>
<path d="M628.876 234.431C628.214 232.666 626.877 231.235 625.16 230.455C623.443 229.675 621.486 229.609 619.72 230.271C616.044 231.651 597.534 241.991 598.91 245.667C599.031 245.994 599.354 246.236 599.756 246.446L629.036 235.057C628.983 234.851 628.954 234.638 628.876 234.431Z" fill="#8D6E63"/>
<path d="M612.226 240.676C610.498 235.272 611.135 230.39 611.135 230.39C611.252 230.237 611.256 230.056 611.242 229.871C611.443 229.182 611.423 228.447 611.185 227.769C610.977 227.219 610.636 226.728 610.192 226.342C609.748 225.955 609.215 225.685 608.641 225.555C608.067 225.425 607.47 225.44 606.903 225.598C606.336 225.756 605.817 226.053 605.393 226.461C602.273 228.433 599.927 231.418 598.747 234.916C597.568 238.413 597.627 242.209 598.914 245.668C599.035 245.995 599.217 246.28 599.359 246.596L612.532 241.476C612.436 241.209 612.319 240.957 612.226 240.676Z" fill="#8D6E63"/>
<path d="M615.11 220.468C615.11 220.468 613.204 201.367 593.776 208.226C595.871 228.098 615.11 220.468 615.11 220.468ZM642.114 207.685C642.114 207.685 623.01 209.588 629.872 229.019C649.744 226.921 642.114 207.685 642.114 207.685Z" fill="#689F38"/>
<path d="M671.495 215.465C668.199 207.717 660.555 185.097 643.812 168.357C627.524 152.058 605.977 143.098 596.413 140.503C593.429 139.699 592.768 139.536 591.598 142.505C590.645 144.908 587.936 153.125 586.599 156.972C586.406 157.515 586.262 158.075 586.169 158.643C601.487 164.564 615.395 173.626 627 185.245C638.605 196.865 647.649 210.785 653.55 226.11C653.639 226.089 653.717 226.106 653.813 226.074C656.285 225.289 666.155 221.843 668.775 220.969C671.396 220.08 672.821 218.576 671.495 215.465Z" fill="#FF9800"/>
<path fill-rule="evenodd" clip-rule="evenodd" d="M537.399 351.778L533.419 342.329C532.619 340.428 532.21 338.391 532.21 336.33V326.928C532.21 325.313 530.897 324 529.279 324C527.662 324 526.354 325.313 526.354 326.928C526.354 326.928 526.354 332.452 526.354 336.33C526.354 339.169 526.922 341.984 528.021 344.603L532.006 354.053C532.63 355.543 534.352 356.244 535.837 355.615C537.328 354.985 538.029 353.269 537.399 351.778Z" fill="#4A2401"/>
<path fill-rule="evenodd" clip-rule="evenodd" d="M536.684 425.626C536.684 425.626 538.475 424.038 540.74 422.027C546.089 417.276 554.065 417.016 559.711 421.408C560.215 421.801 560.725 422.196 561.223 422.587C566.584 426.758 574.097 426.758 579.458 422.587C580.169 422.033 580.887 421.474 581.598 420.92C586.959 416.749 594.467 416.749 599.827 420.92C600.539 421.474 601.257 422.033 601.968 422.587C607.329 426.758 614.836 426.758 620.197 422.587C620.909 422.033 621.632 421.474 622.344 420.92C627.705 416.749 635.212 416.749 640.573 420.92C641.219 421.424 641.872 421.933 642.524 422.438C647.974 426.677 655.624 426.6 660.99 422.25C663.386 420.306 665.313 418.742 665.313 418.742" fill="black"/>
<path d="M536.684 425.626C536.684 425.626 538.475 424.038 540.74 422.027C546.089 417.276 554.065 417.016 559.711 421.408C560.215 421.801 560.725 422.196 561.223 422.587C566.584 426.758 574.097 426.758 579.458 422.587C580.169 422.033 580.887 421.474 581.598 420.92C586.959 416.749 594.467 416.749 599.827 420.92C600.539 421.474 601.257 422.033 601.968 422.587C607.329 426.758 614.836 426.758 620.197 422.587C620.909 422.033 621.632 421.474 622.344 420.92C627.705 416.749 635.212 416.749 640.573 420.92C641.219 421.424 641.872 421.933 642.524 422.438C647.974 426.677 655.624 426.6 660.99 422.25C663.386 420.306 665.313 418.742 665.313 418.742" stroke="black" stroke-width="17.2809" stroke-miterlimit="1.5" stroke-linecap="round" stroke-linejoin="round"/>
<path fill-rule="evenodd" clip-rule="evenodd" d="M682.999 406.29C682.999 404.673 681.687 403.361 680.07 403.361H521.929C520.312 403.361 519 404.673 519 406.29V437.212C519 438.832 520.312 440.141 521.929 440.141H680.07C681.687 440.141 682.999 438.832 682.999 437.212V406.29Z" fill="#F8AC3A"/>
<path fill-rule="evenodd" clip-rule="evenodd" d="M670.845 403.912V428.327C670.845 429.947 669.533 431.256 667.917 431.256L519 430.705V437.212C519 438.832 520.312 440.141 521.929 440.141H680.07C681.687 440.141 682.999 438.832 682.999 437.212V406.29C682.999 404.673 681.687 403.361 680.07 403.361L670.845 403.912Z" fill="#F39404"/>
<path fill-rule="evenodd" clip-rule="evenodd" d="M680.07 409.22C681.687 409.22 682.999 407.91 682.999 406.291V388.954C682.999 387.334 681.687 386.025 680.07 386.025H521.929C520.312 386.025 519 387.334 519 388.954V406.291C519 407.91 520.312 409.22 521.929 409.22H680.07Z" fill="#633001"/>
<path fill-rule="evenodd" clip-rule="evenodd" d="M670.216 386.025V401.898C670.216 403.518 668.904 404.827 667.287 404.827H519V406.291C519 407.91 520.312 409.22 521.929 409.22H680.07C681.687 409.22 682.999 407.91 682.999 406.291V388.954C682.999 387.334 681.687 386.025 680.07 386.025H670.216Z" fill="#4A2401"/>
<path fill-rule="evenodd" clip-rule="evenodd" d="M519.721 387.258C518.965 388.125 518.79 389.352 519.264 390.398C519.742 391.44 520.787 392.111 521.935 392.108L680.077 391.88C681.476 391.877 682.68 390.881 682.947 389.505C683.213 388.128 682.466 386.758 681.166 386.233L564.173 339.154C563.017 338.688 561.69 339.008 560.87 339.948L519.721 387.258Z" fill="#F8AC3A"/>
<path fill-rule="evenodd" clip-rule="evenodd" d="M677.535 384.771C677.101 385.87 676.032 386.619 674.817 386.619L520.078 386.845L519.721 387.258C518.965 388.125 518.79 389.352 519.264 390.397C519.742 391.44 520.787 392.11 521.935 392.107L680.077 391.879C681.476 391.876 682.68 390.88 682.947 389.504C683.213 388.128 682.466 386.757 681.166 386.233L677.535 384.771Z" fill="#F39404"/>
<path fill-rule="evenodd" clip-rule="evenodd" d="M581.735 363.062L579.368 359.554C578.462 358.215 576.64 357.861 575.301 358.765C573.962 359.668 573.608 361.49 574.511 362.829L576.879 366.339C577.782 367.678 579.605 368.032 580.944 367.129C582.285 366.225 582.639 364.403 581.735 363.062Z" fill="#633001"/>
<path fill-rule="evenodd" clip-rule="evenodd" d="M597.276 378.11L599.331 374.41C600.113 372.996 599.603 371.211 598.19 370.427C596.778 369.643 594.993 370.153 594.209 371.565L592.154 375.267C591.37 376.679 591.881 378.464 593.293 379.248C594.706 380.034 596.491 379.524 597.276 378.11Z" fill="#633001"/>
<path fill-rule="evenodd" clip-rule="evenodd" d="M614.84 379.044L617.29 381.298C618.479 382.393 620.334 382.315 621.427 381.126C622.522 379.937 622.445 378.083 621.256 376.987L618.806 374.734C617.616 373.64 615.762 373.717 614.669 374.905C613.574 376.095 613.651 377.951 614.84 379.044Z" fill="#633001"/>
<path fill-rule="evenodd" clip-rule="evenodd" d="M568.947 379.04L573.165 380.442C574.699 380.951 576.357 380.118 576.866 378.585C577.377 377.05 576.544 375.392 575.01 374.883L570.792 373.481C569.258 372.972 567.6 373.805 567.091 375.338C566.58 376.873 567.413 378.531 568.947 379.04Z" fill="#633001"/>
<path fill-rule="evenodd" clip-rule="evenodd" d="M546.426 343.896C536.909 343.896 529.186 351.606 529.186 361.098C529.186 370.589 536.909 378.297 546.426 378.297C555.944 378.297 563.667 370.589 563.667 361.098C563.667 351.606 555.944 343.896 546.426 343.896Z" fill="#F0682D"/>
</svg>
